<svg width="87" height="58" viewBox="0 0 87 58" fill="none"
  xmlns="http://www.w3.org/2000/svg">
  <g id="layer1">
    <path id="path95" d="M21.1324 57.8077C14.0972 57.0038 6.5691 51.2428 1.35302 42.6709C-0.159834 40.1848 -0.207184 40.0539 0.262697 39.6567C1.52753 38.5875 6.96913 35.894 7.24259 36.2018C7.304 36.2709 6.20032 37.0152 4.78997 37.8558C0.669319 40.3118 0.834187 39.8813 2.90533 42.778C7.1359 48.6948 12.8665 53.4282 17.9264 55.185C23.9411 57.2733 30.7665 56.3406 39.6529 52.2161C41.293 51.4548 40.0871 52.3899 37.4568 53.9189C32.242 56.9504 26.2085 58.3877 21.1324 57.8077ZM61.8073 57.9472C57.4895 57.5439 54.104 56.4788 49.9573 54.2191C46.8354 52.518 45.1947 51.332 47.3812 52.357C49.6083 53.4011 54.2844 55.1524 55.7567 55.4938C59.9028 56.4553 64.7052 56.4108 68.2475 55.378C73.8669 53.7397 80.0835 48.3967 85.3282 40.6975C85.6127 40.2799 85.3233 40.0061 82.955 38.4476C81.4715 37.4717 79.9899 36.541 79.6624 36.3794C79.1321 36.1176 79.1515 36.1043 79.8399 36.257C80.8479 36.4807 85.5871 38.8654 86.3825 39.5492L87 40.0801L85.4209 42.675C82.4029 47.6347 77.3069 52.9343 73.4248 55.1505C69.9786 57.1179 65.2122 58.2653 61.8073 57.9472ZM27.9317 51.8783C27.5775 51.8075 26.5921 51.6137 25.742 51.4478C17.7455 49.8869 11.4448 43.9272 7.1932 33.9031C5.89055 30.8317 4.36971 25.8496 4.56234 25.2846C4.74616 24.7454 7.84033 24.0273 11.7581 23.6145C19.4413 22.8051 27.1615 25.0554 31.4309 29.3488C31.9858 29.9068 32.15 30.1551 31.7958 29.9006C28.5404 27.5613 25.031 25.9934 21.6202 25.3544C19.2218 24.905 13.6218 24.8941 11.0583 25.3339C8.58348 25.7584 6.29251 26.2914 6.29251 26.4426C6.29251 26.8228 8.19372 31.9842 8.99785 33.7871C12.9439 42.6346 18.1783 47.7882 25.3568 49.8935C27.6 50.5514 28.7752 50.7094 32.257 50.8208C36.0018 50.9406 40.5379 50.595 41.819 50.0921C42.1028 49.9808 42.1497 50.0271 41.9714 50.2428C41.4423 50.8828 36.1013 51.8019 32.311 51.9052C30.2566 51.9612 28.2859 51.9492 27.9317 51.8783ZM51.2453 51.8503C49.6727 51.6285 45.3077 50.5321 44.9339 50.265C44.6316 50.049 44.6597 50.0211 45.0627 50.1366C47.8449 50.9344 54.8425 51.1044 58.5872 50.4654C67.3164 48.9756 73.3385 43.742 77.7786 33.7871C78.8094 31.4759 80.5721 26.5332 80.4247 26.3672C80.376 26.3125 78.9494 25.9798 77.2543 25.628C73.7458 24.8998 68.2096 24.773 65.1562 25.3509C61.7341 25.9987 58.2472 27.5574 54.9806 29.8997C54.6264 30.1536 54.8003 29.8801 55.367 29.2918C58.1503 26.4027 63.1292 24.2885 68.6736 23.6414C72.9755 23.1393 81.8468 24.2073 82.2094 25.2709C82.4054 25.8457 80.8279 30.98 79.5301 33.9916C75.9377 42.3273 70.688 48.0747 64.4789 50.4698C61.1476 51.7548 55.0658 52.3892 51.2453 51.8503ZM41.7841 48.3494C39.3284 44.9284 37.2493 41.1052 39.3008 43.7826C39.9117 44.58 41.0841 46.0153 41.9061 46.9721L43.4007 48.7118L44.4893 47.298C46.4015 44.8147 48.7383 40.966 50.0653 38.1144C51.6176 34.7786 53.1168 29.8778 53.3486 27.3809C53.4681 26.0945 53.5748 25.7288 53.7104 26.1414C53.9766 26.9514 53.5633 30.7664 52.9197 33.4385C52.2063 36.401 50.2323 40.9094 48.3563 43.8615C46.7122 46.4486 43.746 50.3065 43.4011 50.3065C43.2845 50.3065 42.5568 49.4258 41.7841 48.3494ZM37.1346 40.7844C34.4421 36.2051 32.5578 29.6865 32.5776 25.0205C32.6092 17.5967 36.115 8.83195 41.8317 1.88468L43.3825 0L44.7999 1.7397C49.9913 8.11141 53.7522 17.224 53.6554 23.1961L53.6273 24.9358L53.4179 23.1235C52.6987 16.8971 49.3906 9.43427 44.7611 3.5945L43.4207 1.90376L42.2088 3.41646C39.467 6.83886 36.6901 11.8044 35.3686 15.648C32.659 23.5293 33.1175 30.9927 36.8215 39.2935C37.4606 40.726 37.9399 41.898 37.8864 41.898C37.833 41.898 37.4947 41.3968 37.1346 40.7844ZM20.1456 22.8733C19.6419 22.0023 19.3771 16.8711 19.6716 13.6884C20.0595 9.49593 20.6542 6.5239 21.1052 6.5239C21.6845 6.5239 25.9045 8.27643 27.5453 9.19839C29.5063 10.3003 33.0569 12.9345 33.7291 13.7862C34.3394 14.5593 34.4591 14.6074 30.8942 12.6473C28.3739 11.2616 22.8867 8.84352 22.2625 8.84352C21.7489 8.84352 20.8186 14.792 20.5168 20.0066C20.4153 21.7609 20.2482 23.0508 20.1456 22.8733ZM66.3135 21.4419C66.31 18.3208 65.2748 10.0532 64.7732 9.13968C64.4816 8.60859 59.8633 10.4142 55.8636 12.6232C54.1789 13.5536 52.7663 14.2766 52.7247 14.2297C52.5632 14.0479 55.018 11.9838 57.0388 10.6023C59.0726 9.21198 63.6743 6.98797 65.2522 6.63276C65.9997 6.46449 66.0069 6.47615 66.4231 8.53595C67.1596 12.1804 67.4187 16.4102 67.1045 19.6602C66.7766 23.0528 66.3165 24.0892 66.3135 21.4419Z" fill="black"/>
  </g>
</svg>
