<svg width="100" height="100" viewBox="0 0 879 811" fill="none" xmlns="http://www.w3.org/2000/svg">
<path d="M426.169 425.029C450.745 425.029 471.757 421.584 492.067 412.757C496.604 410.785 498.802 405.604 497.025 400.987C495.147 396.108 489.611 393.819 484.791 395.843C469.242 402.373 450.573 405.755 430.737 405.755C369.269 405.755 323.999 364.398 323.999 297.342C323.999 215.831 380.899 164.033 448.596 164.033C512.971 164.033 549.104 205.793 549.104 264.015C549.104 310.593 525.431 337.897 504.249 337.496C490.543 337.094 485.559 323.041 491.789 292.524L503.131 234.146C504.816 225.474 499.456 216.918 490.873 214.828C482.252 212.728 472.238 211.414 461.47 211.414C403.74 211.414 363.038 256.787 363.038 306.578C363.038 338.299 383.804 357.171 407.893 357.171C432.813 357.171 451.917 345.527 466.454 321.836H468.115C466.869 346.33 482.236 357.171 498.849 357.171C537.889 357.171 572.776 321.836 572.776 261.606C572.776 194.55 524.183 145.562 451.917 145.562C359.715 145.562 300.324 217.036 300.324 299.752C300.326 376.845 358.056 425.029 426.169 425.029ZM468.532 280.879C463.964 305.774 441.951 335.488 417.862 335.488C399.588 335.488 390.451 322.639 390.451 304.971C390.451 266.022 419.939 232.695 456.487 232.695C466.04 232.695 473.1 234.3 477.253 235.505L468.532 280.879Z" fill="black"/>
<path d="M847.329 269.333C847.324 269.329 847.319 269.325 847.313 269.321C847.311 269.32 847.31 269.319 847.308 269.318L481.15 13.1498C456.089 -4.38325 422.415 -4.38325 397.354 13.1498L31.191 269.321C11.66 282.985 0 305.372 0 329.209V737.407C0 759.201 9.591 778.794 24.771 792.196C25.164 792.588 25.579 792.947 26.016 793.271C38.742 804.012 55.171 810.497 73.089 810.497H805.416C823.403 810.497 839.89 803.962 852.636 793.147C852.969 792.892 853.287 792.617 853.593 792.322C868.854 778.916 878.505 759.269 878.505 737.408V329.209C878.505 305.379 866.851 282.998 847.329 269.333ZM856.054 329.209V737.407C856.054 749.627 851.703 760.85 844.468 769.608L527.887 548.128L847.313 324.657C850.154 322.67 852.632 320.281 854.698 317.6C855.587 321.367 856.054 325.259 856.054 329.209ZM410.223 31.5457C418.906 25.4707 429.077 22.4358 439.252 22.4358C449.424 22.4358 459.6 25.4727 468.281 31.5457L834.44 287.714C834.442 287.715 834.443 287.717 834.445 287.718C837.514 289.865 839.274 293.244 839.274 296.99C839.274 300.735 837.514 304.115 834.445 306.262L508.303 534.432L472.216 509.18C452.5 495.391 426.006 495.391 406.289 509.181L370.204 534.432L44.062 306.262C40.993 304.115 39.233 300.736 39.233 296.99C39.233 293.244 40.993 289.865 44.062 287.717L410.223 31.5457ZM34.035 769.608C26.801 760.85 22.449 749.627 22.449 737.407V329.209C22.449 325.258 22.9161 321.367 23.8051 317.6C25.8701 320.282 28.3491 322.67 31.1901 324.657L350.616 548.128L34.035 769.608ZM73.088 788.045C65.906 788.045 59.0731 786.533 52.8781 783.825L376.37 557.51C376.389 557.497 376.408 557.484 376.428 557.471C376.45 557.456 376.472 557.441 376.494 557.426C376.542 557.394 376.59 557.362 376.637 557.329L419.156 527.576C431.176 519.169 447.327 519.169 459.346 527.575L501.867 557.329C501.914 557.362 501.961 557.393 502.009 557.425C502.032 557.441 502.055 557.457 502.079 557.472C502.097 557.484 502.115 557.497 502.134 557.509L825.627 783.825C819.432 786.533 812.599 788.045 805.417 788.045H73.088Z" fill="black"/>
</svg>
