<svg width="100" height="100" viewBox="0 0 103 103" fill="none" xmlns="http://www.w3.org/2000/svg">
<path fill-rule="evenodd" clip-rule="evenodd" d="M53.3585 6.93945C29.4652 6.93945 10.0352 26.2203 10.0352 49.9275C10.0352 59.3288 13.098 68.0423 18.2865 75.1315L12.8765 91.0931L29.5218 85.804C36.3605 90.2911 44.5549 92.911 53.3585 92.911C77.2421 92.911 96.6774 73.6284 96.6774 49.9275C96.6774 26.2203 77.2421 6.93945 53.3585 6.93945Z" fill="url(#paint0_linear_865_2686)"/>
<path d="M52.9111 0.5C80.2946 0.500053 102.5 22.53 102.5 49.7139C102.5 76.8921 80.2949 98.9238 52.9111 98.9238C44.2921 98.9238 36.1887 96.7404 29.1289 92.9023L2.15137 101.477L1.20898 101.775L1.52637 100.839L10.3115 74.9248C5.86947 67.5512 3.31837 58.9254 3.31836 49.7139C3.31836 22.5299 25.5235 0.5 52.9111 0.5Z" stroke="black"/>
<path fill-rule="evenodd" clip-rule="evenodd" d="M77.7006 60.9344C77.3964 60.4359 76.5936 60.1372 75.3951 59.5399C74.191 58.9439 68.2714 56.0522 67.1699 55.6564C66.0685 55.2593 65.2602 55.0591 64.463 56.2524C63.6603 57.4467 61.3534 60.1372 60.6491 60.9344C59.9491 61.7329 59.2491 61.83 58.0449 61.233C56.8394 60.6371 52.9602 59.3718 48.3659 55.3096C44.7909 52.1402 42.3757 48.2344 41.6701 47.04C40.9714 45.8471 41.6006 45.2012 42.1965 44.6053C42.7397 44.0676 43.402 43.2108 44.0035 42.5163C44.6065 41.8163 44.8063 41.3164 45.2077 40.5192C45.609 39.7221 45.4092 39.0276 45.105 38.4303C44.8063 37.8343 42.3981 31.958 41.3938 29.5652C40.3964 27.1789 39.3925 27.268 38.6869 27.268C37.9868 27.268 36.688 27.4762 36.688 27.4762C36.688 27.4762 34.2756 27.7749 33.1745 28.9692C32.0731 30.1621 28.9648 33.0538 28.9648 38.9246C28.9648 44.7995 33.273 50.4802 33.8746 51.2717C34.4772 52.0703 42.1969 64.5205 54.4315 69.301C66.6662 74.0801 66.6662 72.4858 68.8732 72.2842C71.0761 72.09 75.9914 69.3981 76.9954 66.6091C77.9993 63.8205 77.9993 61.4287 77.7006 60.9344Z" fill="white"/>
<defs>
<linearGradient id="paint0_linear_865_2686" x1="53.3564" y1="6.93945" x2="53.3564" y2="92.9111" gradientUnits="userSpaceOnUse">
<stop stop-color="#4AC14B"/>
<stop offset="1" stop-color="#06853A"/>
</linearGradient>
</defs>
</svg>
