<svg width="100" height="100" viewBox="0 0 88 90" fill="none" xmlns="http://www.w3.org/2000/svg">
<path d="M19.0459 6.04785C21.5227 5.75851 23.5155 6.39305 24.9043 8.42969H24.9053C26.5382 10.8226 28.4974 14.0615 29.9219 17.3115C31.369 20.6133 32.1705 23.7227 31.7373 25.9473C31.345 27.962 29.6416 29.1719 27.5986 29.9209C25.5218 30.6823 23.6365 30.804 22.8975 30.9688C22.3948 31.0801 21.6096 31.2589 21.0127 31.7236C20.6877 31.9767 20.4038 32.3238 20.2451 32.7852C20.089 33.2393 20.0797 33.7314 20.1797 34.2422L20.1807 34.248C20.5273 35.9642 22.8876 43.0355 30.3096 52.4336V52.4346C34.0642 57.1986 39.0005 61.1435 42.9678 63.8857C44.9567 65.2605 46.7139 66.3413 47.9756 67.0791C48.6066 67.4481 49.1143 67.7316 49.4658 67.9238C49.6415 68.0199 49.7784 68.0929 49.8721 68.1426C49.9187 68.1673 49.9547 68.1863 49.9795 68.1992L50.0166 68.2178C50.0175 68.2183 50.018 68.2194 50.0186 68.2197H50.0195L50.832 68.6387L51.3223 67.8672V67.8662L51.332 67.8516C51.3387 67.841 51.3485 67.825 51.3613 67.8047C51.3872 67.7638 51.4257 67.7035 51.4746 67.626C51.5724 67.471 51.7142 67.2467 51.8887 66.9678C52.2376 66.41 52.7191 65.634 53.251 64.7617C54.3103 63.0245 55.584 60.8786 56.3965 59.3125C57.2281 57.7094 57.5972 57.0649 58.0996 56.667C58.5745 56.291 59.2666 56.0687 61.0508 55.7852C61.6907 55.6835 62.6319 55.8174 63.8525 56.2344C65.0493 56.6432 66.4117 57.2867 67.8477 58.0859C70.718 59.6836 73.7895 61.8493 76.2656 63.8184C78.7212 65.772 79.7762 67.2174 80.1396 68.3877C80.485 69.4998 80.2588 70.5413 79.6318 71.8818V71.8828C78.9905 73.2594 77.3776 76.2184 75.3633 79.2617C73.4611 82.1357 71.2702 84.9769 69.2617 86.6543L68.8623 86.9736C67.81 87.7778 66.7745 88.3404 65.5996 88.6426C64.4236 88.945 63.0474 89.0023 61.2969 88.7119C57.7542 88.1241 52.8129 86.139 45.1621 82.1133H45.1611C30.5417 74.4256 17.4789 59.1686 9.72559 45.9404L8.99219 44.667C5.19685 37.9535 3.07146 31.62 1.98242 26.6885C1.43781 24.2223 1.15422 22.1148 1.04883 20.4941C0.940501 18.8282 1.02876 17.788 1.14941 17.3857L1.15039 17.3848C1.42269 16.4756 2.23063 15.3147 3.81445 13.916C5.18447 12.7061 7.06764 11.3761 9.50879 9.93164L10.5898 9.30566C13.5632 7.61619 16.5049 6.34474 19.0459 6.04785Z" stroke="black" stroke-width="2"/>
</svg>
