<svg width="2008" height="448" viewBox="0 0 2008 448" fill="none" xmlns="http://www.w3.org/2000/svg">
<g clip-path="url(#clip0_561_1936)">
<path d="M1296.02 155.471C1353.68 147.45 1409.06 144.843 1457.44 150.556C1485.12 153.826 1512.16 160.019 1536.45 170.557C1541.8 171.431 1547.08 173.338 1551.99 176.351C1578.05 192.341 1602.57 214.24 1624.38 234.695C1647.38 256.268 1667.07 275.914 1687.41 292.854C1707.76 309.79 1724.04 319.836 1737.46 323.846C1748.51 327.151 1757.59 326.538 1768.6 319.61C1811.74 292.452 1852.31 265.986 1889.8 250.351C1929.03 233.992 1970.44 226.979 2014.7 243.4L2015.74 243.791L2016.77 244.199C2038.29 252.984 2049 277.381 2040.71 299.241C2032.42 321.1 2008.24 332.274 1986.3 324.589L1985.26 324.209L1984.45 323.906C1967.35 317.659 1949.55 318.614 1922.9 329.725C1893.79 341.865 1860.86 363.148 1814.41 392.391C1780.61 413.662 1745.54 416.025 1712.82 406.242C1682.46 397.165 1655.35 378.06 1632.39 358.947C1609.44 339.837 1585.92 316.532 1565.54 297.418C1555.27 287.783 1545.58 278.988 1536.3 271.23C1532.63 269.455 1529.15 267.127 1525.98 264.234C1511.77 251.235 1486.56 240.594 1447.35 235.962C1408.8 231.41 1361.32 233.217 1307.87 240.652C1201.09 255.505 1076.92 291.891 965.894 336.06C871.764 373.506 763.927 387.976 671.036 386.099C624.44 385.157 580.504 380.085 542.985 371.187C506.514 362.537 471.895 349.305 447.622 329.263C384.945 277.511 326.881 262.342 262.411 266.96C194.417 271.831 118.495 298.63 20.3983 336.253C-1.77496 344.757 -26.6444 333.676 -35.1486 311.503C-43.6527 289.33 -32.5716 264.461 -10.3986 255.956C85.5736 219.147 173.402 187.116 256.265 181.18C342.653 174.992 422.555 197.04 502.378 262.948C511.728 270.668 531.359 280.044 562.832 287.508C593.258 294.724 630.963 299.272 672.773 300.117C756.695 301.812 852.734 288.521 934.105 256.151C1049.58 210.214 1180.59 171.528 1296.02 155.471Z" fill="#A2D2FF"/>
<rect x="-38" y="263" width="483" height="298" fill="#A2D2FF"/>
<rect x="1841" y="291" width="253" height="298" fill="#A2D2FF"/>
<rect x="1033" y="224" width="559" height="298" fill="#A2D2FF"/>
<rect x="386" y="311" width="1293" height="307" fill="#A2D2FF"/>
<rect x="725" y="343" width="1293" height="275" fill="#A2D2FF"/>
</g>
<defs>
<clipPath id="clip0_561_1936">
<rect width="2008" height="448" fill="white"/>
</clipPath>
</defs>
</svg>
