<svg width="1200" height="231" viewBox="0 0 1200 231" fill="none" xmlns="http://www.w3.org/2000/svg">
<path d="M478.403 226.118C435.043 230.756 393.398 232.263 357.016 228.96C336.201 227.069 315.867 223.489 297.601 217.397C293.578 216.892 289.608 215.789 285.915 214.047C266.319 204.803 247.88 192.143 231.479 180.317C214.183 167.845 199.376 156.487 184.081 146.694C168.778 136.903 156.535 131.095 146.444 128.777C138.134 126.866 131.306 127.22 123.026 131.226C90.5855 146.926 60.0772 162.227 31.885 171.266C2.38434 180.724 -28.7556 184.778 -62.0387 175.285L-62.8208 175.058L-63.5954 174.823C-79.7783 169.744 -87.8321 155.639 -81.5981 143.001C-75.364 130.364 -57.1809 123.904 -40.6822 128.347L-39.9001 128.567L-39.291 128.742C-26.4319 132.354 -13.0465 131.801 6.99407 125.378C28.8846 118.359 53.6476 106.055 88.5777 89.1491C113.995 76.8518 140.367 75.4857 164.973 81.1415C187.803 86.3891 208.19 97.4342 225.455 108.484C242.713 119.532 260.4 133.005 275.726 144.055C283.449 149.626 290.736 154.71 297.714 159.195C300.474 160.221 303.091 161.567 305.475 163.24C316.161 170.755 335.118 176.907 364.604 179.585C393.593 182.216 429.298 181.172 469.492 176.873C549.789 168.286 643.164 147.251 726.655 121.715C797.44 100.067 878.532 91.7015 948.386 92.7866C983.426 93.3312 1016.47 96.2635 1044.68 101.408C1072.11 106.408 1098.14 114.058 1116.39 125.645C1163.52 155.564 1207.19 164.334 1255.67 161.664C1306.8 158.848 1363.89 143.355 1437.66 121.604C1454.33 116.687 1473.04 123.094 1479.43 135.912C1485.83 148.731 1477.49 163.109 1460.82 168.026C1388.65 189.306 1322.6 207.824 1260.29 211.255C1195.33 214.833 1135.24 202.086 1075.22 163.983C1068.18 159.52 1053.42 154.1 1029.75 149.785C1006.87 145.613 978.52 142.984 947.08 142.495C883.971 141.515 811.75 149.199 750.56 167.913C663.724 194.47 565.205 216.836 478.403 226.118Z" fill="#6D5093"/>
<path d="M1118.36 163.953H1481.58V-8.32812H1118.36V163.953Z" fill="#6D5093"/>
<path d="M-121.672 147.766H68.582V-24.5156H-121.672V147.766Z" fill="#6D5093"/>
<path d="M255.828 186.5H676.191V14.2188H255.828V186.5Z" fill="#6D5093"/>
<path d="M190.405 136.203H1162.73V-41.2812H190.405V136.203Z" fill="#6D5093"/>
<path d="M-64.5211 117.703H907.805V-41.2812H-64.5211V117.703Z" fill="#6D5093"/>
<path d="M425.487 203.073C391.028 208.641 357.933 210.451 329.021 206.485C312.479 204.215 296.319 199.916 281.803 192.6C278.606 191.993 275.451 190.67 272.517 188.578C256.943 177.478 242.289 162.276 229.256 148.076C215.511 133.1 203.744 119.462 191.588 107.702C179.427 95.9451 169.698 88.9712 161.678 86.1874C155.074 83.8931 149.648 84.3187 143.068 89.1281C117.287 107.981 93.0424 126.354 70.638 137.207C47.1938 148.564 22.4468 153.432 -4.00336 142.033L-4.6249 141.761L-5.24045 141.478C-18.101 135.38 -24.5014 118.443 -19.5472 103.268C-14.593 88.0937 -0.142862 80.3368 12.9687 85.6717L13.5902 85.9354L14.0743 86.1458C24.2935 90.4824 34.9309 89.8195 50.8572 82.1063C68.2536 73.6787 87.9328 58.9041 115.692 38.6038C135.891 23.8375 156.849 22.1971 176.403 28.9884C194.546 35.2896 210.748 48.5523 224.469 61.8205C238.184 75.0866 252.24 91.2648 264.419 104.534C270.556 111.222 276.347 117.328 281.893 122.713C284.086 123.945 286.166 125.562 288.06 127.57C296.552 136.594 311.618 143.981 335.05 147.196C358.088 150.356 386.463 149.102 418.405 143.94C482.218 133.63 556.423 108.37 622.773 77.7085C679.026 51.7137 743.471 41.6686 798.983 42.9716C826.829 43.6256 853.086 47.1465 875.508 53.3235C897.303 59.3283 917.992 68.5139 932.497 82.427C969.954 118.353 1004.65 128.883 1043.18 125.678C1083.82 122.296 1129.19 103.692 1187.81 77.5746C1201.06 71.6711 1215.92 79.3635 1221.01 94.7559C1226.09 110.148 1219.47 127.412 1206.21 133.316C1148.86 158.869 1096.37 181.105 1046.85 185.226C995.228 189.521 947.478 174.216 899.775 128.463C894.187 123.103 882.455 116.595 863.647 111.413C845.464 106.404 822.931 103.247 797.945 102.66C747.792 101.483 690.399 110.71 641.771 133.181C572.762 165.07 494.469 191.926 425.487 203.073Z" fill="#D9CFE8"/>
<path d="M934.064 128.427H1222.71V-78.4438H934.064V128.427Z" fill="#D9CFE8"/>
<path d="M-51.3944 108.989H99.8008V-97.8813H-51.3944V108.989Z" fill="#D9CFE8"/>
<path d="M248.606 155.5H582.67V-51.3705H248.606V155.5Z" fill="#D9CFE8"/>
<path d="M196.615 95.105H969.324V-118.013H196.615V95.105Z" fill="#D9CFE8"/>
<path d="M-6 73H1200V-191H-6V73Z" fill="#D9CFE8"/>
</svg>
