<?xml version="1.0" standalone="no"?>
<!DOCTYPE svg PUBLIC "-//W3C//DTD SVG 20010904//EN"
 "http://www.w3.org/TR/2001/REC-SVG-20010904/DTD/svg10.dtd">
<svg version="1.0" xmlns="http://www.w3.org/2000/svg"
 width="342.000000pt" height="362.000000pt" viewBox="0 0 342.000000 362.000000"
 preserveAspectRatio="xMidYMid meet">

<g transform="translate(0.000000,362.000000) scale(0.100000,-0.100000)"
fill="#000000" stroke="none">
<path d="M1670 3029 c-103 -20 -202 -94 -248 -186 -89 -174 -16 -391 159 -477
61 -29 92 -27 87 7 -2 13 -22 30 -57 48 -94 49 -142 111 -159 209 -33 181 99
339 283 340 118 0 214 -60 266 -166 34 -71 33 -180 -3 -249 -33 -63 -79 -107
-143 -137 -35 -16 -51 -30 -53 -46 -5 -34 21 -37 81 -9 77 35 132 89 169 165
30 61 33 75 33 157 -1 78 -4 97 -28 145 -55 108 -146 178 -262 199 -65 12 -63
12 -125 0z"/>
<path d="M2097 2958 c-3 -8 -2 -20 3 -27 8 -14 160 -80 203 -88 24 -5 27 -2
27 22 0 23 -9 30 -77 62 -89 41 -147 53 -156 31z"/>
<path d="M1210 2922 c-313 -140 -575 -432 -685 -766 -51 -152 -75 -367 -58
-506 7 -61 10 -65 33 -65 l25 0 1 155 c1 223 38 384 126 560 68 134 114 197
227 311 118 119 235 201 364 256 94 40 110 53 101 76 -9 25 -40 21 -134 -21z"/>
<path d="M1605 2896 c-22 -23 -49 -46 -60 -52 -16 -9 -19 -23 -21 -98 -1 -86
-1 -87 30 -112 17 -14 48 -41 69 -60 30 -28 43 -35 62 -30 23 6 25 4 25 -34 0
-27 5 -43 15 -46 23 -9 45 15 45 51 0 29 3 32 30 32 22 0 40 10 67 39 21 21
47 44 58 50 17 10 20 23 22 100 1 69 -2 93 -14 106 -9 10 -21 18 -27 18 -6 0
-25 17 -42 37 l-31 37 -93 2 -94 1 -41 -41z m219 -49 c12 -14 30 -29 40 -35
15 -7 19 -22 20 -70 2 -54 0 -62 -20 -71 -13 -5 -30 -21 -39 -35 -15 -22 -22
-24 -87 -24 -66 1 -74 3 -95 29 -13 15 -32 30 -41 33 -14 5 -17 18 -17 65 0
52 3 61 22 70 12 5 31 23 42 38 20 26 25 28 88 26 57 -1 69 -5 87 -26z"/>
<path d="M2397 2823 c-19 -18 0 -43 75 -98 184 -136 335 -347 414 -577 45
-132 58 -224 58 -388 0 -171 -14 -263 -65 -407 -16 -45 -29 -88 -29 -96 0 -21
31 -30 47 -14 18 18 68 168 90 269 25 116 25 380 0 498 -69 323 -235 583 -501
783 -47 35 -75 45 -89 30z"/>
<path d="M907 2593 c-19 -18 5 -50 133 -178 117 -117 143 -138 157 -129 9 6
19 16 21 23 5 16 -267 291 -288 291 -9 0 -20 -3 -23 -7z"/>
<path d="M2391 2456 c-125 -125 -143 -147 -132 -160 8 -9 19 -16 25 -16 6 0
76 64 154 143 106 106 141 147 136 160 -3 9 -14 17 -23 17 -9 0 -81 -65 -160
-144z"/>
<path d="M1710 2345 l0 -76 28 3 c27 3 27 4 27 73 0 69 0 70 -27 73 l-28 3 0
-76z"/>
<path d="M1416 2235 c-112 -46 -119 -55 -362 -467 -41 -70 -141 -207 -249
-343 -221 -279 -214 -268 -191 -294 57 -63 207 -84 297 -42 25 12 59 34 76 49
31 27 257 297 302 360 13 18 26 31 29 28 3 -3 -1 -67 -8 -142 l-13 -137 -151
-72 c-369 -177 -383 -184 -416 -222 -128 -146 -82 -364 94 -444 46 -21 133
-25 217 -9 128 24 672 110 696 110 24 0 325 -48 635 -100 64 -11 143 -20 175
-20 197 0 329 215 243 395 -37 78 -81 107 -350 236 -140 67 -256 123 -258 124
-3 3 -32 250 -32 278 0 11 24 -13 62 -60 111 -140 256 -309 288 -337 50 -42
98 -58 175 -58 94 0 195 45 195 86 0 9 -86 124 -191 256 -166 209 -208 270
-330 477 -77 131 -156 255 -176 275 -19 20 -63 49 -97 65 -50 23 -78 28 -157
31 -84 3 -97 2 -103 -13 -12 -32 11 -42 102 -47 66 -3 99 -10 135 -28 83 -41
85 -44 311 -432 42 -72 136 -202 247 -342 98 -124 179 -230 179 -235 0 -15
-59 -31 -115 -31 -55 0 -105 17 -141 47 -29 24 -226 262 -326 393 -44 58 -85
108 -92 112 -7 4 -20 2 -29 -5 -15 -11 -14 -31 8 -234 13 -123 27 -228 30
-234 4 -5 50 -31 103 -56 378 -179 437 -210 473 -250 93 -103 60 -266 -64
-328 -61 -30 -94 -31 -240 -6 -62 11 -175 29 -252 41 -180 28 -168 23 -146 62
45 78 35 154 -29 212 -22 20 -43 36 -48 36 -4 1 -47 7 -96 14 -96 15 -67 18
-461 -43 -71 -11 -179 -27 -240 -36 -60 -9 -120 -20 -132 -25 -27 -11 -30 -35
-7 -48 16 -9 36 -7 324 38 30 5 87 13 125 19 39 6 115 18 169 26 118 18 159
19 242 4 83 -14 114 -43 114 -106 0 -36 -6 -50 -29 -74 -32 -31 -66 -36 -149
-20 -28 6 -72 4 -125 -5 -492 -82 -701 -114 -731 -114 -144 0 -247 162 -190
298 32 77 38 81 497 299 86 42 119 62 122 77 11 56 46 437 40 446 -3 5 -16 10
-28 9 -16 0 -42 -27 -94 -97 -39 -53 -130 -167 -202 -253 -146 -177 -177 -199
-275 -199 -63 0 -121 23 -109 43 4 7 84 109 179 228 166 208 200 260 396 599
60 103 84 129 151 166 43 23 67 29 139 32 90 5 116 16 104 47 -10 26 -167 20
-240 -10z"/>
<path d="M1717 2223 c-4 -3 -7 -37 -7 -75 0 -73 14 -94 45 -68 18 15 21 120 3
138 -13 13 -31 16 -41 5z"/>
<path d="M1723 2033 c-7 -3 -13 -16 -13 -29 0 -23 -2 -24 -55 -18 -86 10 -143
-19 -176 -91 -52 -112 10 -222 184 -328 72 -44 81 -43 172 13 78 50 148 124
165 174 38 116 -37 236 -147 236 -24 0 -53 -5 -64 -10 -16 -9 -19 -7 -19 14 0
26 -25 47 -47 39z m-23 -138 c30 -28 58 -32 67 -10 7 21 56 45 89 45 38 0 94
-59 94 -99 0 -70 -60 -145 -165 -206 l-48 -29 -45 24 c-69 37 -148 118 -162
167 -23 77 34 150 109 139 19 -3 46 -17 61 -31z"/>
<path d="M565 1780 c-3 -6 -3 -19 0 -30 6 -20 14 -20 213 -18 l207 3 0 25 0
25 -207 3 c-134 1 -209 -1 -213 -8z"/>
<path d="M2486 1774 c-15 -40 7 -45 218 -42 l201 3 0 25 0 25 -206 3 c-184 2
-207 1 -213 -14z"/>
<path d="M504 1465 c-7 -17 39 -170 58 -192 14 -17 44 -17 51 1 3 7 -9 56 -27
107 -26 77 -36 95 -54 97 -13 2 -25 -3 -28 -13z"/>
<path d="M2090 874 c-23 -26 8 -42 120 -59 58 -10 141 -23 185 -30 67 -12 82
-12 94 0 15 15 9 43 -11 49 -19 6 -344 56 -361 56 -8 0 -20 -7 -27 -16z"/>
</g>
</svg>
