<svg viewBox="0 0 121 121" fill="none" xmlns="http://www.w3.org/2000/svg">
<path d="M57.5412 1.07675C52.6831 2.0201 48.0137 5.51047 45.8441 9.84985C41.6463 18.0569 45.0894 28.2922 53.3434 32.3486C56.2206 33.7165 57.6827 33.6221 57.4469 32.0184C57.3525 31.4053 56.4092 30.6034 54.7584 29.7544C50.3248 27.4432 48.0609 24.5189 47.259 19.8965C45.7026 11.3592 51.9285 3.90679 60.607 3.85962C66.1726 3.85962 70.7005 6.68965 73.1531 11.6894C74.7567 15.0382 74.7096 20.1795 73.0116 23.434C71.4551 26.4055 69.2855 28.4809 66.2669 29.8959C64.6161 30.6506 63.8614 31.3109 63.7671 32.0656C63.5313 33.6693 64.7576 33.8108 67.5875 32.4901C71.2193 30.8393 73.8134 28.2922 75.5586 24.7075C76.9735 21.8303 77.115 21.17 77.115 17.3023C77.0679 13.6232 76.9264 12.7271 75.7944 10.463C73.2003 5.36897 68.9082 2.06726 63.4369 1.07675C60.3712 0.510746 60.4655 0.510746 57.5412 1.07675Z" fill="black"/>
<path d="M77.6812 4.42443C77.5397 4.80177 77.5868 5.36777 77.8227 5.69794C78.2 6.35828 85.3692 9.47132 87.3973 9.84866C88.5293 10.0845 88.6708 9.94299 88.6708 8.81098C88.6708 7.72613 88.2463 7.39596 85.039 5.88661C80.8413 3.95276 78.1056 3.38675 77.6812 4.42443Z" fill="black"/>
<path d="M35.8428 6.12299C21.0799 12.7264 8.7224 26.4992 3.53416 42.2531C1.1287 49.4225 -0.00328439 59.5634 0.798536 66.1197C1.1287 68.9969 1.27019 69.1855 2.35501 69.1855H3.53416L3.58132 61.8746C3.62849 51.3563 5.37363 43.7624 9.52422 35.461C12.7315 29.1406 14.9011 26.1691 20.2309 20.792C25.7964 15.1791 31.3149 11.3114 37.3993 8.71719C41.8328 6.8305 42.5875 6.21733 42.163 5.13248C41.7385 3.9533 40.2764 4.14198 35.8428 6.12299Z" fill="black"/>
<path d="M54.4704 7.35065C53.4328 8.4355 52.1593 9.52034 51.6405 9.80335C50.8858 10.2279 50.7443 10.8882 50.65 14.4257C50.6028 18.4821 50.6028 18.5293 52.065 19.7085C52.8668 20.3688 54.3289 21.6423 55.3194 22.5385C56.7344 23.8592 57.3475 24.1893 58.2437 23.9535C59.3285 23.6705 59.4228 23.7648 59.4228 25.5572C59.4228 26.8307 59.6587 27.5854 60.1303 27.7269C61.2151 28.1514 62.2528 27.0194 62.2528 25.3214C62.2528 23.9535 62.3943 23.812 63.6678 23.812C64.7054 23.812 65.5544 23.3403 66.8279 21.9725C67.8184 20.982 69.0447 19.8971 69.5635 19.6141C70.3653 19.1425 70.5068 18.5293 70.6012 14.8974C70.6483 11.6429 70.5068 10.5109 69.9408 9.89768C69.5163 9.42601 68.9504 9.04867 68.6674 9.04867C68.3844 9.04867 67.4882 8.24683 66.6864 7.30349L65.2242 5.5583L60.8378 5.46396L56.4042 5.4168L54.4704 7.35065ZM64.7998 9.66185C65.3657 10.3222 66.2147 11.0297 66.6864 11.3127C67.3939 11.6429 67.5825 12.3504 67.6297 14.6144C67.724 17.1614 67.6297 17.5388 66.6864 17.9633C66.0732 18.1991 65.2714 18.9538 64.8469 19.6141C64.1394 20.6518 63.8093 20.7461 60.7435 20.7461C57.6305 20.699 57.2532 20.6046 56.2627 19.3783C55.6496 18.6708 54.7534 17.9633 54.3289 17.8218C53.6686 17.5859 53.5271 16.9728 53.5271 14.7559C53.5271 12.3032 53.6686 11.8787 54.5648 11.4542C55.1307 11.2184 56.0269 10.3694 56.5457 9.66185C57.489 8.4355 57.7249 8.34116 60.6963 8.4355C63.3848 8.48267 63.9508 8.67134 64.7998 9.66185Z" fill="black"/>
<path d="M91.8317 10.7936C90.9355 11.6426 91.8317 12.8218 95.3691 15.416C104.048 21.8307 111.17 31.783 114.896 42.6314C117.018 48.8575 117.631 53.1969 117.631 60.9323C117.631 68.9979 116.971 73.3373 114.566 80.1294C113.811 82.2519 113.198 84.2801 113.198 84.6574C113.198 85.6479 114.66 86.0724 115.415 85.3178C116.264 84.4688 118.622 77.3937 119.66 72.6298C120.839 67.1584 120.839 54.7062 119.66 49.1405C116.405 33.9055 108.576 21.642 96.0294 12.2086C93.8126 10.5577 92.492 10.0861 91.8317 10.7936Z" fill="black"/>
<path d="M21.5528 21.6417C20.6567 22.4907 21.7886 24 27.8259 30.0374C33.3443 35.556 34.5706 36.5465 35.2309 36.122C35.6554 35.839 36.1271 35.3673 36.2214 35.0372C36.4572 34.2825 23.6281 21.3115 22.6376 21.3115C22.2131 21.3115 21.6943 21.453 21.5528 21.6417Z" fill="black"/>
<path d="M91.5502 28.1029C85.6545 33.9988 84.8055 35.0364 85.3243 35.6496C85.7016 36.0741 86.2204 36.4043 86.5034 36.4043C86.7864 36.4043 90.0881 33.3856 93.767 29.6594C98.7666 24.6597 100.417 22.7258 100.182 22.1126C100.04 21.6881 99.5212 21.3108 99.0967 21.3108C98.6722 21.3108 95.2763 24.3767 91.5502 28.1029Z" fill="black"/>
<path d="M59.4258 33.3391V36.9238L60.7464 36.7823C62.0199 36.6408 62.0199 36.5937 62.0199 33.3391C62.0199 30.0846 62.0199 30.0374 60.7464 29.8959L59.4258 29.7544V33.3391Z" fill="black"/>
<path d="M45.5554 38.5272C40.2728 40.6969 39.9427 41.1214 28.4814 60.5543C26.5476 63.856 21.831 70.3179 16.737 76.7327C6.31339 89.8923 6.64355 89.3735 7.72836 90.5998C10.4168 93.5713 17.4917 94.5619 21.7366 92.5808C22.9158 92.0148 24.5194 90.9771 25.3212 90.2696C26.7834 88.9961 37.4429 76.261 39.5653 73.2894C40.1785 72.4404 40.7917 71.8273 40.9332 71.9688C41.0746 72.1103 40.886 75.129 40.5558 78.6665L39.9427 85.1284L32.8206 88.5245C15.4164 96.873 14.7561 97.2032 13.1996 98.9956C7.16237 105.882 9.332 116.164 17.6332 119.938C19.8028 120.928 23.9063 121.117 27.8682 120.362C33.9054 119.23 59.5637 115.174 60.6957 115.174C61.8276 115.174 76.0246 117.438 90.646 119.891C93.6646 120.409 97.3907 120.834 98.9 120.834C108.192 120.834 114.418 110.693 110.361 102.203C108.616 98.5239 106.541 97.156 93.8533 91.0715C87.25 87.9113 81.7788 85.2699 81.6845 85.2227C81.543 85.0812 80.1752 73.4309 80.1752 72.1103C80.1752 71.5914 81.3071 72.7234 83.0994 74.9403C88.3349 81.5437 95.1739 89.515 96.6832 90.8356C99.0415 92.8167 101.305 93.5713 104.937 93.5713C109.371 93.5713 114.135 91.4488 114.135 89.515C114.135 89.0905 110.078 83.6662 105.126 77.4402C97.2964 67.5822 95.3154 64.705 89.5612 54.9414C85.9294 48.7625 82.2033 42.9138 81.26 41.9704C80.3638 41.0271 78.2885 39.6592 76.6849 38.9046C74.3266 37.8197 73.006 37.5839 69.2798 37.4424C65.3179 37.3009 64.7048 37.348 64.4218 38.0555C63.8558 39.5649 64.9406 40.0366 69.2327 40.2724C72.3456 40.4139 73.9021 40.7441 75.6001 41.5931C79.5148 43.5269 79.6092 43.6684 90.2687 61.9693C92.2496 65.3654 96.6832 71.4971 101.919 78.1005C106.541 83.9492 110.361 88.949 110.361 89.1848C110.361 89.8923 107.579 90.647 104.937 90.647C102.343 90.647 99.9848 89.8451 98.2869 88.4301C96.9191 87.2981 87.6274 76.0723 82.9108 69.8934C80.8355 67.1577 78.9017 64.7994 78.5715 64.6107C78.2414 64.422 77.6282 64.5163 77.2037 64.8465C76.4962 65.3654 76.5434 66.3087 77.581 75.8836C78.1942 81.6852 78.8545 86.6378 78.996 86.9208C79.1847 87.1566 81.3543 88.3829 83.8541 89.5621C101.683 98.0051 104.466 99.4672 106.164 101.354C110.55 106.212 108.994 113.9 103.145 116.825C100.268 118.24 98.7114 118.287 91.8251 117.108C88.9009 116.589 83.5711 115.74 79.9393 115.174C71.4495 113.853 72.0155 114.089 73.0531 112.25C75.1756 108.571 74.7039 104.986 71.6853 102.25C70.6477 101.307 69.6572 100.552 69.4213 100.552C69.2327 100.505 67.2045 100.222 64.8934 99.8917C60.3655 99.1842 61.7333 99.0427 43.1499 101.92C39.8012 102.439 34.7073 103.193 31.8301 103.618C29.0002 104.042 26.1702 104.561 25.6042 104.797C24.3308 105.316 24.1893 106.448 25.2741 107.061C26.0287 107.486 26.972 107.391 40.5558 105.269C41.9708 105.033 44.6593 104.656 46.4516 104.373C48.291 104.09 51.8756 103.524 54.4226 103.146C59.9882 102.297 61.922 102.25 65.8367 102.958C69.7515 103.618 71.2136 104.986 71.2136 107.957C71.2136 109.655 70.9306 110.316 69.8458 111.448C68.3365 112.91 66.7329 113.146 62.8181 112.391C61.4975 112.108 59.4222 112.202 56.9224 112.627C33.7168 116.495 23.8591 118.004 22.4441 118.004C15.6522 118.004 10.7941 110.363 13.4826 103.948C14.9919 100.316 15.2749 100.128 36.924 89.8451C40.9803 87.8641 42.5368 86.9208 42.6783 86.2133C43.1971 83.5719 44.8479 65.6012 44.5649 65.1767C44.4234 64.9409 43.8103 64.705 43.2443 64.7522C42.4896 64.7522 41.2633 66.0257 38.8107 69.3274C36.9712 71.8273 32.6791 77.2043 29.2832 81.2607C22.397 89.6093 20.9348 90.647 16.3126 90.647C13.3411 90.647 10.6055 89.5621 11.1715 88.6188C11.3601 88.2886 15.1334 83.4776 19.6142 77.8647C27.4437 68.0539 29.0473 65.6012 38.2919 49.6115C41.1218 44.7533 42.2538 43.5269 45.4139 41.7818C47.442 40.6969 48.574 40.4139 51.97 40.2724C56.2149 40.0366 57.4412 39.5177 56.8752 38.0555C56.4036 36.8292 48.9985 37.1122 45.5554 38.5272Z" fill="black"/>
<path d="M59.7559 39.093C59.5673 39.2345 59.4258 40.8382 59.4258 42.6305C59.4258 46.0737 60.0861 47.0642 61.5482 45.8379C62.3972 45.1304 62.5387 40.1778 61.6897 39.3288C61.0766 38.7156 60.2276 38.5741 59.7559 39.093Z" fill="black"/>
<path d="M60.0401 48.057C59.7099 48.1985 59.4269 48.8117 59.4269 49.4249C59.4269 50.5097 59.3326 50.5569 56.8328 50.2739C52.7765 49.8022 50.0881 51.1701 48.5316 54.5661C46.079 59.8488 49.0032 65.0372 57.2101 70.0369C60.606 72.1123 61.0305 72.0651 65.3226 69.4238C69.0016 67.0654 72.3032 63.575 73.105 61.2167C74.8973 55.7453 71.3599 50.0852 66.1716 50.0852C65.0396 50.0852 63.6718 50.321 63.153 50.5569C62.3984 50.9814 62.2569 50.8871 62.2569 49.8965C62.2569 48.6702 61.0777 47.6797 60.0401 48.057ZM58.9552 54.5661C60.3702 55.8868 61.6909 56.0754 62.1154 55.0378C62.4455 54.0473 64.7566 52.9152 66.3131 52.9152C68.1054 52.9152 70.7467 55.6981 70.7467 57.5848C70.7467 60.8865 67.9168 64.424 62.9643 67.3012L60.7004 68.6691L58.5779 67.5371C55.3235 65.7919 51.5974 61.9713 50.937 59.6602C49.8522 56.0283 52.5407 52.5851 56.0781 53.1039C56.9743 53.2454 58.2478 53.9058 58.9552 54.5661Z" fill="black"/>
<path d="M5.42253 59.9891C5.28103 60.2721 5.28103 60.8852 5.42253 61.4041C5.70552 62.3474 6.08285 62.3474 15.4689 62.2531L25.2322 62.1116V60.9324V59.7532L15.4689 59.6117C9.14863 59.5646 5.61119 59.6589 5.42253 59.9891Z" fill="black"/>
<path d="M96.0242 60.2702C95.3167 62.1569 96.3543 62.3928 106.306 62.2512L115.787 62.1097V60.9306V59.7514L106.071 59.6099C97.392 59.5156 96.3072 59.5627 96.0242 60.2702Z" fill="black"/>
<path d="M2.54169 74.8463C2.21153 75.6482 4.38116 82.8648 5.27732 83.9024C5.93764 84.7043 7.35261 84.7043 7.68278 83.8553C7.82427 83.5251 7.25828 81.2139 6.4093 78.8084C5.18298 75.1765 4.71132 74.3275 3.86234 74.2332C3.24918 74.1388 2.68319 74.3747 2.54169 74.8463Z" fill="black"/>
<path d="M77.3468 102.721C76.262 103.948 77.7242 104.702 83.0068 105.504C85.7424 105.976 89.6571 106.589 91.7324 106.919C94.8926 107.485 95.6 107.485 96.166 106.919C96.8735 106.212 96.5905 104.891 95.6472 104.608C94.7511 104.325 79.4221 101.967 78.6203 101.967C78.243 101.967 77.677 102.297 77.3468 102.721Z" fill="black"/>
</svg>
