<svg viewBox="0 0 120 120" fill="none" xmlns="http://www.w3.org/2000/svg">
<path d="M55.4901 0.732697C43.4775 2.62389 35.0541 6.40628 25.8981 14.0931C20.5511 18.6075 18.6467 20.6818 16.083 25.0132C13.0066 30.1987 12.9334 30.4428 12.4206 38.3736C12.1276 42.827 11.5417 47.2195 11.1022 48.1956C10.5894 49.1107 7.95254 53.1371 5.09589 57.1025C-0.177919 64.5453 -0.837145 66.5585 0.774297 69.6088C1.50677 70.9509 5.31563 73.0252 7.07357 73.0252C7.36656 73.0252 8.09903 73.2692 8.68501 73.5742C9.49073 74.0013 9.41749 74.3673 8.46527 75.5874C7.07357 77.3566 7.80604 79.8579 9.93022 80.834C10.9557 81.322 11.0289 81.7491 10.443 83.1522C9.49073 85.3484 10.2965 87.1786 12.4939 88.1547C14.1053 88.8868 14.2518 89.3138 14.2518 93.7673C14.2518 99.0748 15.204 100.844 19.7454 103.345C21.7963 104.565 23.1147 104.748 28.828 104.748C36.6655 104.748 40.1081 105.419 43.1845 107.616C46.2609 109.751 47.5061 112.008 48.0921 116.34L48.5316 120L74.9739 119.878L101.416 119.695L101.782 101.393C102.222 80.834 101.856 82.2371 108.521 74.4893C117.238 64.3623 120.461 55.6384 119.948 43.8641C119.435 32.2729 114.967 23.366 105.445 14.8862C92.48 3.29496 73.3624 -2.07359 55.4901 0.732697ZM77.977 4.39307C80.3942 4.88113 85.1553 6.46729 88.5979 7.87044C93.652 9.94465 96.0691 11.4088 101.416 15.9233C106.836 20.4377 108.668 22.4509 111.085 26.6604C115.04 33.4931 116.505 38.6786 116.505 46.0604C116.432 56.3094 113.502 63.3862 105.372 72.8421C98.6328 80.5899 98.6328 80.5289 98.1933 100.173L97.7538 117.255L74.9006 117.438L51.9742 117.56L51.6812 116.218C51.4615 115.425 51.0952 113.777 50.8755 112.557C50.2895 109.507 46.4074 105.419 42.5253 103.589C39.8884 102.369 37.984 102.064 30.8057 101.82C22.309 101.515 22.309 101.515 19.8186 99.4409C17.3282 97.3667 17.3282 97.3667 17.7677 92.7912C18.1339 88.8868 17.9874 88.0327 16.8887 87.1176C16.1562 86.5075 15.1308 85.8975 14.5448 85.7145C13.7391 85.4704 13.7391 85.1044 14.5448 83.5792C15.5703 81.505 14.8378 79.6748 12.7136 78.6377C11.6882 78.1497 11.6149 77.7836 12.4939 75.8314C13.8123 72.8421 12.9334 71.866 7.95254 70.2799C2.09275 68.3887 2.166 66.9855 8.39202 58.4447C15.2773 48.8667 15.497 48.2566 16.083 39.0446C16.5225 31.4189 16.669 30.8088 19.2326 26.5384C24.7262 17.2654 35.64 9.21257 47.8724 5.49119C56.5888 2.86792 68.6014 2.37987 77.977 4.39307Z" fill="black"/>
<path d="M51.7563 15.8019C49.9983 17.2661 47.5812 24.0378 47.5812 27.3931C47.5812 28.1862 46.1895 29.8944 44.1385 31.6636C39.3774 35.69 39.5239 36.9711 45.2372 42.7057L49.7053 47.2202L49.9251 53.8698L50.1448 60.5195H64.428H78.7113L78.931 54.1139C79.0775 48.8673 79.3705 47.5252 80.5425 46.4881C82.5934 44.6579 83.4724 42.2176 83.4724 38.5573C83.4724 36.7271 84.1316 32.8837 84.9373 30.0164C85.743 27.1491 86.4023 24.2208 86.4023 23.5497C86.4023 21.5975 83.0329 19.2183 80.6157 19.4623C79.4438 19.5233 78.0521 19.1573 77.3196 18.5472C75.8546 17.3271 72.9247 16.595 71.3865 17.1441C70.8006 17.3271 69.4821 16.778 68.4567 15.9239C66.8452 14.5818 66.1127 14.3988 63.8421 14.7038C62.3771 14.9478 60.6192 15.0698 60.0332 15.0698C59.4472 15.0698 57.6893 14.9478 56.2243 14.7038C53.9537 14.3988 53.2212 14.5818 51.7563 15.8019ZM57.4695 18.1202C57.7625 18.4862 57.5428 20.2554 57.1033 22.0856C56.2976 25.3189 56.2243 25.4409 53.8804 25.4409H51.4633L52.3422 22.1466C52.855 20.3164 53.5142 18.5472 53.8072 18.1812C54.3932 17.3271 56.8836 17.3271 57.4695 18.1202ZM66.479 19.5843C66.772 21.2925 64.6478 29.6503 63.7688 30.4434C63.4758 30.6875 62.3771 30.2604 61.2052 29.4673L59.081 28.0642L60.3994 23.5497C61.8644 18.3642 62.5969 17.3881 64.721 17.6321C65.8197 17.7541 66.3325 18.3642 66.479 19.5843ZM74.2432 20.3164C75.7081 20.8044 75.7081 22.6346 74.2432 27.7592C72.8515 32.3956 72.119 33.3717 70.2146 33.3717C67.7974 33.3717 67.4312 31.5415 68.8961 26.417C70.6541 20.3164 71.4598 19.4013 74.2432 20.3164ZM82.4469 23.3057C83.1061 24.6478 80.396 33.4327 79.224 33.7988C77.0998 34.5309 76.5139 32.9447 77.5393 29.0403C77.9788 27.0271 78.7113 24.6478 79.0775 23.8547C79.81 22.2076 81.7877 21.9025 82.4469 23.3057ZM60.5459 33.0057C63.8421 35.507 66.3325 37.7032 66.1127 37.8862C64.721 39.0453 59.8867 37.7642 55.4919 35.0189C53.5142 33.7988 51.976 34.0428 51.976 35.568C51.976 36.7271 57.909 40.2044 61.3517 41.0585C63.9153 41.6686 64.0618 41.8516 63.9153 44.1088C63.8421 45.39 63.5491 47.4032 63.3293 48.4403C62.8899 50.1485 63.0363 50.4535 64.2083 50.4535C66.0395 50.4535 68.0904 46.9151 68.0904 43.5598C68.0904 42.1566 68.6031 40.4485 69.1891 39.8384C69.7751 39.1673 70.2878 38.1912 70.2878 37.5812C70.2878 36.9711 71.0936 36.422 72.119 36.178C74.1699 35.751 79.6635 36.9711 80.103 38.0082C80.7622 39.4114 79.1508 43.3158 77.3196 44.9019C75.5616 46.4271 75.4152 46.9761 75.4152 52.1617V57.7742H64.428H53.4409V52.1007V46.4271L49.5588 42.4617C43.2596 36.117 43.3328 36.6661 48.5334 32.2736C51.0238 30.1994 53.3677 28.4912 53.8072 28.4912C54.1734 28.4912 57.2498 30.5654 60.5459 33.0057Z" fill="black"/>
<path d="M28.0936 22.6937C27.4344 24.0969 28.3133 24.6459 33.3674 26.0491C36.7368 27.0252 38.4215 27.2082 38.9342 26.7811C40.3991 25.561 38.8609 24.3409 34.3196 23.0598C28.8261 21.5346 28.6063 21.5346 28.0936 22.6937Z" fill="black"/>
<path d="M96.6551 23.0613C91.894 24.4644 90.5755 25.3795 91.5278 26.6606C92.48 27.9418 102.881 24.8915 102.881 23.2443C102.881 21.6581 101.416 21.6581 96.6551 23.0613Z" fill="black"/>
<path d="M28.9027 39.1061C26.5588 39.5331 25.1671 40.1432 25.0206 40.8142C24.6543 42.4004 26.046 42.6444 30.5874 41.9124C36.8867 40.8753 37.3261 40.6922 37.3261 39.4111C37.3261 38.069 34.8357 37.947 28.9027 39.1061Z" fill="black"/>
<path d="M93.5061 39.1065C92.8469 40.4486 94.3118 41.0587 99.8786 41.8518C105.079 42.5839 106.544 42.2788 105.812 40.5707C105.519 39.8996 103.688 39.3505 100.758 38.9235C94.8246 38.0694 93.9456 38.0694 93.5061 39.1065Z" fill="black"/>
<path d="M37.5458 53.8677C33.6637 56.6739 32.4917 58.9922 34.9821 58.9922C37.0331 58.9312 44.2113 53.1966 43.6986 52.0375C42.9661 50.5123 41.6476 50.8784 37.5458 53.8677Z" fill="black"/>
<path d="M87.3539 52.0985C86.7679 53.3186 94.0194 58.9922 96.1436 58.9922C98.634 58.9922 97.3888 56.6739 93.2869 53.8677C88.7456 50.7563 88.0131 50.5733 87.3539 52.0985Z" fill="black"/>
</svg>
