<?xml version="1.0" standalone="no"?>
<!DOCTYPE svg PUBLIC "-//W3C//DTD SVG 20010904//EN"
 "http://www.w3.org/TR/2001/REC-SVG-20010904/DTD/svg10.dtd">
<svg version="1.0" xmlns="http://www.w3.org/2000/svg"
 width="256.000000pt" height="252.000000pt" viewBox="0 0 256.000000 252.000000"
 preserveAspectRatio="xMidYMid meet">

<g transform="translate(0.000000,252.000000) scale(0.100000,-0.100000)"
fill="#000000" stroke="none">
<path d="M1098 2225 c-164 -31 -279 -93 -404 -219 -73 -74 -99 -108 -134 -179
-42 -85 -43 -89 -50 -219 -4 -73 -12 -145 -18 -161 -7 -15 -43 -81 -82 -146
-72 -122 -81 -155 -59 -205 10 -22 62 -56 86 -56 4 0 14 -4 22 -9 11 -7 10
-13 -3 -33 -19 -29 -9 -70 20 -86 14 -8 15 -15 7 -38 -13 -36 -2 -66 28 -82
22 -12 24 -19 24 -92 0 -87 13 -116 75 -157 28 -20 46 -23 124 -23 107 0 154
-11 196 -47 42 -35 59 -72 67 -143 l6 -60 361 2 361 3 5 300 c6 337 1 314 92
441 119 166 163 309 156 502 -7 190 -68 336 -198 475 -177 190 -438 278 -682
232z m307 -60 c33 -8 98 -34 145 -57 69 -34 102 -58 175 -132 74 -74 99 -107
132 -176 54 -112 74 -197 74 -318 -1 -168 -41 -284 -152 -439 -92 -127 -92
-126 -98 -448 l-6 -280 -312 -3 -313 -2 -4 22 c-3 13 -8 40 -11 60 -8 50 -61
117 -114 147 -36 20 -62 25 -160 29 -116 5 -116 5 -150 39 -34 34 -34 34 -28
109 5 64 3 78 -12 93 -10 10 -24 20 -32 23 -11 4 -11 10 0 35 14 34 4 64 -25
81 -14 8 -15 14 -3 46 18 49 6 65 -62 91 -80 31 -79 54 6 194 94 157 97 167
105 318 6 125 8 135 43 205 75 152 224 284 391 345 119 43 283 51 411 18z"/>
<path d="M1047 1978 c-24 -24 -57 -135 -57 -190 0 -13 -19 -41 -47 -70 -65
-66 -63 -87 15 -181 l61 -74 3 -109 3 -109 195 0 195 0 3 105 c2 86 6 108 22
125 28 30 40 70 40 130 0 30 9 93 20 140 11 47 20 95 20 106 0 32 -46 71 -79
67 -16 -1 -35 5 -45 15 -20 20 -60 32 -81 23 -8 -3 -26 6 -40 20 -22 22 -32
25 -63 20 -20 -4 -44 -6 -52 -6 -8 0 -32 2 -52 6 -31 5 -41 2 -61 -18z m78
-38 c4 -6 1 -35 -5 -65 -11 -53 -12 -55 -44 -55 l-33 0 12 54 c7 30 16 59 20
65 8 14 42 14 50 1z m123 -24 c4 -28 -25 -165 -37 -178 -4 -4 -19 3 -35 16
l-29 23 18 74 c20 85 30 101 59 97 15 -2 22 -12 24 -32z m106 -12 c20 -8 20
-38 0 -122 -19 -76 -29 -92 -55 -92 -33 0 -38 30 -18 114 24 100 35 115 73
100z m112 -49 c9 -22 -28 -166 -44 -172 -29 -12 -37 14 -23 78 6 33 16 72 21
85 10 27 37 32 46 9z m-299 -159 c45 -41 79 -77 76 -80 -19 -19 -85 2 -145 47
-27 20 -48 16 -48 -9 0 -19 81 -76 128 -90 35 -10 37 -13 35 -50 -1 -21 -5
-54 -8 -71 -6 -28 -4 -33 12 -33 25 0 53 58 53 113 0 23 7 51 15 61 8 11 15
27 15 37 0 10 11 19 25 23 28 7 103 -13 109 -30 9 -23 -13 -87 -38 -113 -24
-25 -26 -34 -26 -119 l0 -92 -150 0 -150 0 0 93 0 93 -53 65 c-86 104 -85 95
-14 167 34 34 66 62 72 62 5 0 47 -34 92 -74z"/>
<path d="M724 1865 c-9 -23 3 -32 72 -55 46 -16 69 -19 76 -12 20 20 -1 40
-63 61 -75 25 -78 25 -85 6z"/>
<path d="M1660 1859 c-65 -23 -83 -38 -70 -59 13 -21 155 29 155 56 0 26 -20
26 -85 3z"/>
<path d="M735 1596 c-32 -7 -51 -17 -53 -28 -5 -26 14 -30 76 -18 86 17 92 20
92 41 0 22 -34 24 -115 5z"/>
<path d="M1617 1596 c-9 -22 11 -32 87 -45 71 -12 91 -7 81 21 -4 11 -29 20
-69 27 -81 14 -93 14 -99 -3z"/>
<path d="M853 1354 c-53 -46 -69 -84 -35 -84 28 1 126 95 119 114 -10 25 -28
19 -84 -30z"/>
<path d="M1533 1383 c-8 -20 91 -113 120 -113 34 0 17 38 -39 84 -62 51 -72
54 -81 29z"/>
</g>
</svg>
