<svg viewBox="0 0 122 122" fill="none" xmlns="http://www.w3.org/2000/svg">
<path d="M50.1523 13.373C50.407 13.373 50.6534 13.3575 50.8418 13.3232C50.9336 13.3065 51.028 13.2824 51.1055 13.2451C51.1607 13.2185 51.3201 13.1305 51.3203 12.9404V12.916L51.3164 12.8926C50.9595 11.0441 50.0531 8.10236 49.1602 5.60645C48.7132 4.35725 48.267 3.2134 47.8916 2.36816C47.7043 1.94639 47.5327 1.59289 47.3848 1.33691C47.3112 1.20965 47.2397 1.09979 47.1719 1.01562C47.138 0.973618 47.101 0.933354 47.0615 0.899414C47.0241 0.867353 46.9698 0.828299 46.9014 0.808594C46.7295 0.759163 46.5557 0.731407 46.3994 0.761719C46.2232 0.795973 46.0854 0.901832 46.0117 1.07129C45.9468 1.22082 45.94 1.40154 45.958 1.58789C45.9765 1.77947 46.0244 2.00828 46.0967 2.27344L46.0996 2.28223L46.1025 2.29199C46.3811 3.07399 47.0812 5.85532 47.792 8.43262C48.146 9.95908 48.5199 11.1627 48.8906 11.9902C49.0758 12.4035 49.2658 12.7359 49.46 12.9688C49.6474 13.1935 49.8795 13.373 50.1523 13.373Z" fill="black" stroke="black" stroke-width="0.5"/>
<path d="M77.207 15.1934C77.2759 15.1753 77.3258 15.1368 77.3486 15.1182C77.3897 15.0846 77.4281 15.0422 77.4629 15C77.5336 14.9143 77.6147 14.7964 77.7021 14.6562C77.8783 14.3737 78.099 13.9735 78.3467 13.4961C78.8428 12.5398 79.4557 11.2546 80.0527 9.93359C80.6499 8.61236 81.2324 7.25114 81.666 6.14258C81.8826 5.5889 82.0636 5.0956 82.1904 4.7002C82.2538 4.50255 82.3046 4.32603 82.3398 4.17773C82.374 4.03401 82.3974 3.90049 82.3975 3.79395C82.3975 3.56543 82.2637 3.3886 82.1006 3.28027C81.938 3.1723 81.7286 3.11719 81.5117 3.11719C81.3968 3.1172 81.2959 3.1667 81.2207 3.21582C81.1411 3.26779 81.0617 3.33809 80.9844 3.41797C80.8293 3.57821 80.6587 3.80209 80.4824 4.06738C80.1287 4.59981 79.7334 5.3287 79.376 6.13086L79.3711 6.14258C78.7385 7.78099 77.7531 9.97026 77.1904 11.124L77.1865 11.1318C76.6551 12.3246 76.34 13.2868 76.2832 13.9639C76.2551 14.2999 76.2865 14.6068 76.4268 14.8369C76.58 15.088 76.8339 15.2031 77.1328 15.2031L77.207 15.1934Z" fill="black" stroke="black" stroke-width="0.5"/>
<path d="M26.7412 24.1816C26.7858 24.1851 26.8541 24.1852 26.9229 24.1562L26.9912 24.1162L26.998 24.1113L27.0039 24.1064C27.0908 24.0314 27.1162 23.9309 27.1172 23.8525C27.1181 23.7793 27.0995 23.7093 27.0781 23.6523C27.0348 23.5368 26.9558 23.4041 26.8584 23.2637C26.6606 22.9784 26.3462 22.6064 25.9463 22.1768C25.1438 21.3146 23.9709 20.195 22.624 19.0322C20.2967 17.0231 18.7808 15.7904 17.8438 15.1992C17.6082 15.0506 17.4019 14.9379 17.2236 14.8633C17.0497 14.7905 16.8805 14.7441 16.7256 14.7529C16.5539 14.7628 16.4047 14.8411 16.3115 14.9912C16.2295 15.1235 16.207 15.2865 16.207 15.4414C16.2071 15.5211 16.2334 15.5937 16.2578 15.6465C16.2842 15.7036 16.32 15.763 16.3604 15.8223C16.4413 15.9411 16.5555 16.0805 16.6934 16.2344C16.9702 16.5434 17.3625 16.9323 17.8291 17.3682C18.7636 18.241 20.0132 19.3176 21.2783 20.3525C22.5433 21.3873 23.8286 22.3842 24.835 23.0967C25.337 23.4521 25.7754 23.7413 26.1094 23.9287C26.275 24.0216 26.425 24.0947 26.5488 24.1377C26.61 24.1589 26.6761 24.1765 26.7412 24.1816Z" fill="black" stroke="black" stroke-width="0.5"/>
<path d="M60.041 121.248C61.2274 121.233 62.0446 121.16 62.5215 121.053C62.6416 121.026 62.747 120.995 62.834 120.96C62.9163 120.927 63.0039 120.881 63.0693 120.812C63.1444 120.734 63.201 120.61 63.1553 120.469C63.1187 120.356 63.0307 120.284 62.9668 120.241C62.8321 120.151 62.6249 120.078 62.3789 120.016C62.1252 119.951 61.8039 119.892 61.4229 119.841C60.6602 119.738 59.6432 119.667 58.418 119.651L58.4189 119.65C57.1101 119.621 55.6393 119.277 54.5967 118.854C54.0713 118.64 53.6796 118.415 53.4697 118.218C53.3633 118.118 53.3299 118.048 53.3232 118.016C53.3215 118.007 53.3185 117.996 53.3438 117.967C53.3679 117.959 53.4044 117.947 53.4561 117.936C53.5611 117.911 53.7096 117.886 53.8994 117.857C54.2783 117.801 54.806 117.74 55.4443 117.68C56.72 117.558 58.4291 117.436 60.2627 117.345H60.2637C64.7053 117.101 67.2356 116.918 68.6182 116.631C69.3011 116.489 69.7619 116.312 70.0244 116.043C70.3155 115.744 70.3204 115.384 70.2422 115.029C70.1469 114.597 69.7877 114.271 69.2646 114.021C68.7367 113.767 67.9903 113.565 67.0195 113.403C65.0742 113.08 62.1612 112.912 58.1328 112.882H58.1309C54.7102 112.882 51.8952 112.745 49.9395 112.518C48.9598 112.404 48.2059 112.268 47.7021 112.12C47.5222 112.067 47.3817 112.015 47.2773 111.965C47.4463 111.936 47.6729 111.904 47.9561 111.875C48.658 111.803 49.6773 111.735 50.9385 111.674C53.4593 111.552 56.9344 111.46 60.7461 111.43H60.7471C65.9033 111.369 69.3887 111.277 71.6123 111.132C72.7225 111.059 73.5276 110.973 74.0723 110.868C74.3435 110.816 74.5627 110.757 74.7256 110.688C74.8742 110.624 75.0389 110.525 75.1045 110.355C75.1867 110.143 75.1945 109.92 75.0957 109.707C75.0012 109.503 74.8225 109.337 74.5938 109.196C74.14 108.918 73.3954 108.687 72.3418 108.48C70.2222 108.065 66.7277 107.73 61.4668 107.395L61.4678 107.394C55.9537 107.027 50.3141 106.601 48.9824 106.42L48.9814 106.421C48.3807 106.329 47.9339 106.261 47.624 106.201C47.6115 106.199 47.5989 106.197 47.5869 106.194C47.7704 106.124 48.0108 106.036 48.3145 105.931H48.3154C48.5315 105.864 48.9989 105.801 49.6943 105.75C50.3802 105.7 51.2652 105.664 52.2998 105.645C54.3689 105.607 57.0306 105.637 59.8867 105.759H59.8877C65.0799 105.942 68.8035 105.927 71.2324 105.682C72.4439 105.559 73.3546 105.377 73.9688 105.122C74.5728 104.872 74.9805 104.509 74.9805 103.984C74.9804 103.564 74.7075 103.245 74.2627 103.003C73.821 102.763 73.1581 102.566 72.251 102.397C70.4312 102.059 67.5372 101.814 63.2295 101.601H63.2285C58.621 101.387 55.1243 101.17 52.7402 100.956C51.5475 100.849 50.6374 100.743 50.0078 100.64C49.8001 100.606 49.6259 100.571 49.4834 100.538C49.4977 100.535 49.5123 100.53 49.5273 100.527C49.9888 100.435 50.7325 100.344 51.7656 100.256C53.8282 100.08 57.01 99.9204 61.3174 99.7832C64.2503 99.6917 67.0252 99.5692 69.1475 99.4395C70.2081 99.3746 71.1078 99.3074 71.7832 99.2412C72.1206 99.2082 72.4049 99.1755 72.626 99.1426C72.8258 99.1128 72.9938 99.0793 73.1035 99.041H73.1045C73.633 98.8888 74.0116 98.4418 74.2979 97.7803C74.5848 97.117 74.8001 96.191 74.9775 94.9961C75.2567 93.1286 76.0983 90.2836 76.7969 88.6553C77.5377 87.0811 78.3935 83.9654 78.8477 81.4668L78.9326 80.9746V80.9727C79.3896 78.0895 79.9142 76.0591 81.0107 73.8652C82.111 71.664 83.7923 69.2875 86.582 65.7207L87.8721 64.0537C90.7151 60.3472 92.411 57.8628 93.4053 55.5107C94.5469 52.81 94.7588 50.2984 94.7588 46.3584C94.7588 43.2251 94.7244 41.4592 94.418 39.9883C94.1095 38.5077 93.5268 37.3353 92.4678 35.3848L92.4668 35.3838C89.1859 29.411 83.4141 24.6164 76.4385 22.1582C68.9181 19.4634 59.5535 18.3581 52.4443 19.4014V19.4023C35.2688 21.8534 23.2697 33.3906 23.2695 47.5166V47.5195L23.2803 48.0996C23.359 50.9621 23.7902 53.2802 24.916 55.7754C26.1129 58.4281 28.09 61.2695 31.2354 65.1748C34.5586 69.3256 36.3947 71.7584 37.5195 74.0391C38.6392 76.3095 39.059 78.4402 39.5176 82.0029L39.6963 83.3438C40.0994 86.3047 40.4232 88.1278 40.9375 89.4258C41.5374 90.9397 42.3951 91.7366 43.8584 92.7842C48.3565 96.1011 55.0355 94.5449 57.3672 89.7012C57.778 88.8466 58.0496 87.3176 58.2041 85.3604C58.3595 83.3909 58.3989 80.9519 58.3281 78.252C58.1866 72.8519 57.6023 66.3916 56.6113 60.5254V60.5234C56.5053 59.9131 56.4375 59.4559 56.4238 59.0938C56.4103 58.7337 56.452 58.4901 56.5459 58.2979C56.639 58.1075 56.7977 57.9398 57.0713 57.7559C57.3485 57.5695 57.7251 57.3782 58.2383 57.1338L58.2441 57.1309L58.9346 56.792C59.5428 56.5064 59.926 56.378 60.2715 56.373C60.7189 56.3666 61.1358 56.5678 61.958 57.0615L61.9639 57.0645L61.9707 57.0684C62.7861 57.4969 63.1461 57.7807 63.3027 58.1738C63.3824 58.374 63.4167 58.6223 63.4062 58.9658C63.3957 59.3106 63.341 59.7355 63.2529 60.2832L63.252 60.2842C62.8604 62.8044 62.525 70.4306 62.375 77.3613C62.2999 80.831 62.2714 84.135 62.3057 86.5498C62.3228 87.7561 62.356 88.7449 62.4072 89.4229C62.4327 89.7597 62.4631 90.03 62.501 90.2139C62.519 90.3013 62.5424 90.3917 62.5791 90.4619C62.5962 90.4946 62.6316 90.5531 62.6963 90.5947C62.7599 90.6356 62.8357 90.6496 62.9082 90.6338L62.9785 90.6074L62.9883 90.6025C63.0862 90.5462 63.1405 90.4466 63.1699 90.3848C63.2054 90.3101 63.2366 90.2179 63.2656 90.1152C63.3241 89.9086 63.3818 89.6268 63.4375 89.2822C63.5493 88.5913 63.6595 87.6198 63.7656 86.4287C63.9249 84.6409 64.0749 82.348 64.1992 79.7432L64.3145 77.041V77.0391C64.4203 73.4748 64.597 69.9251 64.7822 67.0771C64.9679 64.2227 65.1608 62.0901 65.2988 61.3447C65.4233 60.6847 65.5178 60.2021 65.6357 59.833C65.7521 59.469 65.8838 59.2409 66.0674 59.0762C66.2536 58.9093 66.5182 58.7848 66.9424 58.6768C67.3682 58.5683 67.9286 58.4821 68.6904 58.375H68.6924C72.2575 57.8465 74.949 55.7758 75.9971 53.6328C76.5216 52.56 76.6446 51.4428 76.2139 50.4951C75.7809 49.5427 74.8172 48.8235 73.3008 48.4922L73.2998 48.4932C72.0169 48.2009 70.678 48.5319 69.376 49.3809C68.075 50.2291 66.7977 51.6004 65.6201 53.418L65.6182 53.4219C65.2118 54.0778 64.8976 54.57 64.6387 54.9287C64.376 55.2925 64.1866 55.4941 64.0342 55.5928C63.9624 55.6392 63.9047 55.659 63.8564 55.665C63.8086 55.6709 63.755 55.6651 63.6875 55.6416C63.541 55.5906 63.3613 55.4687 63.0967 55.2559C62.6055 54.8318 62.4378 54.5878 62.4248 54.2754C62.4178 54.1063 62.4553 53.8955 62.5547 53.6035C62.6537 53.3126 62.8075 52.9576 63.0186 52.502L63.1514 52.2021C63.7879 50.6547 64.0637 48.3939 64.0137 46.2988C63.9869 45.1773 63.8668 44.0908 63.6523 43.1719C63.4399 42.2615 63.1277 41.4819 62.6953 41.0068L62.6924 41.0039C61.732 39.9834 60.7429 39.6927 59.8467 40.0684C58.986 40.4292 58.3028 41.3718 57.8438 42.5879C56.9202 45.0344 56.817 48.8041 58.1816 52.1836L58.1826 52.1865C58.4309 52.7835 58.6116 53.2269 58.7236 53.5752C58.8366 53.9262 58.8684 54.1483 58.8457 54.3115C58.825 54.4594 58.7555 54.5861 58.5918 54.7363C58.4193 54.8945 58.1625 55.0611 57.7881 55.292V55.293C57.2552 55.6149 56.8672 55.8386 56.5625 55.96C56.2595 56.0806 56.0925 56.0769 55.9697 56.0186C55.8325 55.9533 55.6803 55.7888 55.4893 55.417C55.3016 55.0518 55.099 54.5352 54.833 53.8311L54.832 53.8301C54.2483 52.3184 53.1407 50.9257 51.8389 49.9111C50.5395 48.8985 49.0213 48.2422 47.6064 48.2422C46.4098 48.2422 45.1052 48.7718 44.1035 49.5029C43.6007 49.8699 43.1641 50.2949 42.8516 50.7422C42.5405 51.1875 42.3408 51.6715 42.3408 52.1514C42.3408 52.7549 42.5954 53.3692 43.0166 53.9551C43.4389 54.5424 44.04 55.1173 44.7656 55.6465C46.2171 56.705 48.1925 57.6022 50.3076 58.0664L50.3096 58.0674C51.4738 58.3148 52.2885 58.4688 52.9082 58.7549C53.5014 59.0287 53.9115 59.4231 54.2373 60.1777C54.5711 60.9511 54.8126 62.0944 55.0498 63.8584C55.2864 65.6176 55.5159 67.9673 55.834 71.1406C56.6114 78.9504 56.7109 83.9863 55.9277 87.2168C55.538 88.8244 54.9338 89.9666 54.1006 90.7803C53.2675 91.5937 52.1846 92.0992 50.8027 92.3975H50.8018C48.2007 92.9663 46.2848 92.5967 44.8916 91.2715C43.4804 89.9291 42.5539 87.5618 42.0615 84.0098V84.0078C41.3564 79.1379 40.9287 76.4949 39.8262 74.0107C38.7248 71.5294 36.9532 69.2173 33.6045 64.9873L33.6055 64.9863C31.737 62.5819 30.0639 60.2547 28.7793 58.2949C27.4893 56.327 26.6061 54.7508 26.2998 53.8398L26.2988 53.8379C21.8418 40.9112 30.9469 27.2438 47.3936 22.4502H47.3926C53.353 20.7553 63.2692 20.572 70.0117 22.1484L70.0137 22.1494C85.1143 25.545 94.1741 36.1887 92.9883 48.835V48.8359C92.5713 53.3947 90.4913 57.493 84.8467 64.6807C82.0905 68.1888 80.3464 70.6599 79.1689 72.9932C77.9885 75.3324 77.3827 77.5239 76.8857 80.4658L76.8848 80.4668C76.4625 83.0792 75.5495 86.5287 74.7871 88.1445L74.7852 88.1484C73.9998 89.8745 73.1457 92.6397 72.8594 94.3701L72.8584 94.3721L72.3955 97.3418L61.2988 97.8193C54.8026 98.0937 50.5849 98.3993 48.0332 98.8291C46.7622 99.0432 45.8752 99.2924 45.3242 99.6006C45.0467 99.7559 44.8345 99.9372 44.708 100.155C44.5772 100.381 44.5514 100.624 44.6084 100.87C44.7026 101.292 45.0074 101.609 45.5479 101.856C46.0816 102.101 46.8811 102.295 48.0381 102.464C50.3572 102.801 54.2023 103.045 60.4502 103.319L62.3857 103.416C64.2637 103.518 65.9508 103.633 67.2646 103.753C67.8362 103.805 68.3348 103.86 68.7471 103.912C68.2411 103.935 67.6068 103.952 66.8682 103.963C64.8591 103.993 62.09 103.978 59.0547 103.917L59.0537 103.918C53.5813 103.766 49.8048 103.794 47.3936 104.056C46.1913 104.186 45.3051 104.376 44.7129 104.643C44.1199 104.909 43.7541 105.288 43.7539 105.813C43.7539 106.07 43.8689 106.298 44.0557 106.493C44.2396 106.685 44.502 106.856 44.8271 107.012C45.4783 107.324 46.4391 107.602 47.6992 107.851C50.224 108.349 54.0166 108.747 59.1045 109.052L61.2471 109.193C63.3297 109.339 65.2089 109.493 66.6904 109.63C67.0251 109.661 67.3392 109.693 67.6309 109.722C67.3573 109.731 67.0635 109.741 66.751 109.749C64.6436 109.802 61.6964 109.832 58.4131 109.832C55.1261 109.832 52.0324 109.894 49.6885 109.993C48.5168 110.043 47.5297 110.102 46.7988 110.168C46.434 110.201 46.1296 110.236 45.8965 110.273C45.7801 110.292 45.6781 110.311 45.5938 110.332C45.514 110.352 45.4323 110.377 45.3682 110.411V110.412C44.9303 110.643 44.6358 110.945 44.5488 111.316C44.4607 111.693 44.6029 112.063 44.8711 112.385C45.3338 112.94 46.2388 113.442 47.4404 113.786L47.9736 113.924C49.487 114.296 52.9683 114.601 55.6533 114.662H55.6592L56.7227 114.673C59.2713 114.723 62.2097 114.936 63.7441 115.147C63.8858 115.171 64.0198 115.195 64.1465 115.216C63.5191 115.232 62.6959 115.247 61.6602 115.26H61.6582C58.122 115.321 55.4506 115.565 53.6572 115.998C52.7624 116.214 52.0662 116.483 51.5879 116.813C51.105 117.147 50.8174 117.565 50.8174 118.071C50.8175 118.603 51.1271 119.068 51.6074 119.452C52.089 119.837 52.7716 120.168 53.5947 120.436C55.2435 120.972 57.5148 121.279 60.041 121.248ZM60.7598 52.373C60.7495 52.3668 60.7351 52.3564 60.7168 52.3398C60.6365 52.267 60.5338 52.127 60.3926 51.8984L60.3848 51.8867C60.2011 51.6225 59.9982 51.068 59.8125 50.3506C59.6299 49.6451 59.473 48.8164 59.3682 48.0322C59.0912 45.9389 59.4761 43.9511 60.0645 42.8555C60.2105 42.5836 60.3637 42.3766 60.5137 42.2373C60.6642 42.0974 60.7979 42.0381 60.9082 42.0293C61.1039 42.0137 61.4063 42.1616 61.7168 42.8613L61.7188 42.8652C61.8764 43.2054 61.9929 43.7796 62.0586 44.5039C62.1236 45.2205 62.1365 46.0592 62.1016 46.9121C62.0311 48.6297 61.7672 50.3568 61.3643 51.2559L61.3613 51.2627C61.2031 51.6422 61.0755 51.9192 60.9658 52.1104C60.8604 52.294 60.7931 52.3578 60.7646 52.376C60.7632 52.3752 60.7615 52.3741 60.7598 52.373ZM51.1377 56.1699C48.8314 56.1698 46.853 55.2619 45.7764 54.1074C45.2386 53.5307 44.9386 52.9081 44.9111 52.3184C44.8842 51.7381 45.1191 51.153 45.7217 50.6328C46.1991 50.221 47.0904 50.0995 48.1367 50.2861C49.1642 50.4695 50.2684 50.9394 51.1152 51.6094C51.7177 52.1925 52.5381 53.4889 52.8779 54.5449L52.8809 54.5537L53.4658 56.1699H51.1377ZM67.6221 56.7314C67.0282 56.7287 66.7712 56.5524 66.6797 56.332C66.574 56.077 66.6208 55.6298 66.958 54.9434C67.2875 54.2728 67.8648 53.4331 68.7061 52.4346C69.3298 51.7473 69.8696 51.2853 70.4307 50.9932C70.9891 50.7025 71.5844 50.5723 72.3291 50.5723C72.7491 50.5723 73.0745 50.5869 73.3271 50.625C73.5808 50.6633 73.7418 50.7223 73.8477 50.7949C74.0347 50.9233 74.127 51.1517 74.127 51.7246C74.1269 53.465 72.5484 55.2864 70.1279 56.1836L69.7324 56.3154C68.838 56.6014 68.1357 56.7337 67.6221 56.7314Z" fill="black" stroke="black" stroke-width="0.5"/>
<path d="M98.9609 29.2812C99.0183 29.27 99.0804 29.2514 99.1436 29.2285C99.2703 29.1826 99.4261 29.1122 99.6025 29.0234C99.9567 28.8453 100.418 28.582 100.946 28.2627C102.005 27.623 103.347 26.7467 104.665 25.8457C105.983 24.9448 107.28 24.0155 108.25 23.2686C108.734 22.8956 109.141 22.5653 109.428 22.3047C109.57 22.1751 109.689 22.0576 109.773 21.958C109.816 21.9086 109.854 21.8578 109.884 21.8076C109.909 21.7646 109.947 21.6892 109.947 21.5996C109.947 21.4549 109.93 21.3041 109.866 21.1748C109.795 21.0318 109.673 20.9294 109.509 20.8896C109.36 20.8537 109.194 20.8732 109.022 20.9189C108.847 20.9658 108.643 21.0472 108.406 21.1611C107.467 21.6134 105.878 22.6481 103.27 24.4434H103.269C100.907 26.0863 99.4584 27.15 98.7441 27.8291C98.5644 28 98.4232 28.1542 98.3242 28.293C98.2291 28.4263 98.1528 28.5739 98.1455 28.7275C98.137 28.9077 98.2245 29.049 98.3574 29.1396C98.4748 29.2196 98.6272 29.2614 98.7803 29.2861V29.2852C98.8493 29.298 98.9152 29.2902 98.9609 29.2812Z" fill="black" stroke="black" stroke-width="0.5"/>
<path d="M13.6572 45.5781C14.2036 45.6428 14.5981 45.6422 14.8633 45.5439C15.0064 45.4909 15.1243 45.4054 15.2012 45.2783C15.2753 45.1556 15.2959 45.02 15.2959 44.8955C15.2959 44.7887 15.2407 44.7104 15.2051 44.6689C15.1659 44.6234 15.1175 44.5846 15.0703 44.5518C14.9744 44.4852 14.8437 44.4161 14.6914 44.3467C14.3843 44.2067 13.9482 44.0455 13.4199 43.873C12.3604 43.5271 10.904 43.1288 9.30957 42.7617L9.30859 42.7607C6.06 42.0291 2.88256 41.298 2.10645 41.1152L2.10156 41.1143C1.88221 41.0669 1.68561 41.0368 1.5166 41.0303C1.35194 41.024 1.18937 41.0389 1.05371 41.1006C0.903181 41.169 0.79406 41.2932 0.760742 41.4658C0.731984 41.6151 0.766033 41.7733 0.823242 41.9248H0.822266C0.847279 42.0004 0.894356 42.0611 0.936523 42.1055C0.980434 42.1516 1.0334 42.1943 1.08984 42.2344C1.20312 42.3147 1.35221 42.3981 1.52637 42.4824C1.87601 42.6516 2.35692 42.8403 2.93066 43.0361C4.08016 43.4285 5.62587 43.8572 7.29297 44.2246C10.6046 45.0154 12.545 45.4465 13.6572 45.5781Z" fill="black" stroke="black" stroke-width="0.5"/>
<path d="M108.491 50.5264C109.709 50.4645 111.719 50.1719 114.894 49.6543H114.893C116.411 49.4104 117.841 49.1823 118.909 49.0146C119.443 48.9308 119.886 48.862 120.204 48.8145C120.363 48.7907 120.49 48.7722 120.581 48.7598C120.682 48.746 120.719 48.7432 120.716 48.7432C120.844 48.7431 120.939 48.6753 120.997 48.6172C121.057 48.5569 121.103 48.4819 121.137 48.4082C121.205 48.2598 121.248 48.071 121.248 47.8838C121.248 47.7319 121.202 47.5845 121.092 47.4619C120.987 47.3453 120.841 47.2706 120.677 47.2217C120.354 47.1256 119.875 47.1042 119.219 47.1387C118.227 47.1908 116.759 47.3763 114.658 47.6973L112.341 48.0635C110.816 48.3084 109.43 48.5997 108.422 48.8691C107.919 49.0035 107.504 49.1348 107.211 49.2539C107.066 49.3128 106.94 49.3727 106.846 49.4346C106.799 49.4652 106.751 49.503 106.711 49.5488C106.673 49.5923 106.621 49.6691 106.621 49.7734C106.621 49.9178 106.659 50.0622 106.759 50.1855C106.855 50.305 106.991 50.3822 107.146 50.4336C107.445 50.5334 107.888 50.557 108.491 50.5264Z" fill="black" stroke="black" stroke-width="0.5"/>
</svg>
