<?xml version="1.0" standalone="no"?>
<!DOCTYPE svg PUBLIC "-//W3C//DTD SVG 20010904//EN"
 "http://www.w3.org/TR/2001/REC-SVG-20010904/DTD/svg10.dtd">
<svg version="1.0" xmlns="http://www.w3.org/2000/svg"
 width="298.000000pt" height="256.000000pt" viewBox="0 0 298.000000 256.000000"
 preserveAspectRatio="xMidYMid meet">

<g transform="translate(0.000000,256.000000) scale(0.100000,-0.100000)"
fill="#000000" stroke="none">
<path d="M1303 2289 c4 -13 14 -59 24 -101 10 -50 21 -78 30 -78 7 0 13 1 13
3 -10 60 -51 192 -60 195 -9 3 -11 -2 -7 -19z"/>
<path d="M1774 2223 c-9 -27 -23 -63 -31 -82 -15 -39 -17 -61 -4 -61 7 0 71
163 71 183 0 4 -4 7 -9 7 -5 0 -17 -21 -27 -47z"/>
<path d="M880 2072 c0 -14 139 -146 147 -139 4 4 -24 39 -62 77 -66 66 -85 80
-85 62z"/>
<path d="M1390 2003 c-242 -40 -410 -228 -410 -457 1 -102 23 -159 112 -287
94 -136 105 -161 118 -278 14 -124 19 -140 60 -174 62 -53 154 -28 186 49 22
53 17 284 -11 476 -6 40 -4 44 25 60 29 17 33 17 56 1 23 -14 25 -21 20 -57
-11 -82 -19 -499 -9 -493 6 4 13 97 17 219 3 117 10 233 14 258 7 43 8 45 51
52 99 17 148 133 65 154 -34 9 -72 -20 -105 -79 -23 -43 -26 -45 -41 -31 -14
14 -14 20 -2 50 20 49 18 156 -4 184 -52 64 -96 -70 -58 -179 14 -39 14 -41
-7 -56 -30 -21 -32 -20 -47 26 -16 48 -61 89 -99 89 -32 0 -71 -33 -71 -60 0
-35 51 -78 110 -93 65 -16 63 -10 81 -218 22 -256 6 -333 -74 -353 -75 -19
-114 24 -128 141 -20 160 -24 171 -119 310 -53 79 -95 153 -104 184 -64 215
67 441 301 520 85 28 226 31 322 5 215 -56 345 -232 328 -442 -6 -76 -36 -144
-116 -262 -78 -115 -98 -161 -112 -257 -6 -43 -19 -100 -30 -127 -11 -28 -23
-73 -27 -101 l-7 -52 -160 -8 c-184 -9 -238 -20 -233 -45 4 -21 44 -28 221
-37 75 -4 137 -10 137 -15 0 -4 -71 -5 -157 -3 -155 5 -213 -2 -213 -27 0 -23
70 -39 214 -49 83 -6 152 -14 155 -16 2 -3 -72 -5 -165 -5 -93 0 -175 -4 -183
-9 -23 -14 -5 -39 36 -50 21 -6 70 -11 108 -12 39 0 90 -4 115 -8 42 -8 40 -9
-30 -10 -100 -2 -150 -16 -150 -42 0 -28 56 -49 127 -48 67 1 46 17 -23 18
-38 1 -85 23 -74 35 3 3 48 8 100 11 126 8 142 12 138 33 -4 21 -54 31 -168
32 -97 0 -160 9 -160 21 0 5 89 10 197 11 146 2 197 6 200 15 7 21 -41 32
-190 43 -78 6 -158 13 -177 16 -34 6 -35 6 -10 16 14 5 84 7 165 3 147 -6 210
1 210 25 0 19 -41 28 -163 35 -261 14 -271 29 -27 38 83 3 157 8 166 12 12 4
19 24 24 63 4 31 16 78 26 105 11 27 24 83 30 125 13 95 30 135 109 252 103
153 115 186 115 315 0 103 -2 114 -32 178 -46 97 -127 175 -225 215 -106 44
-238 62 -338 45z m134 -379 c10 -25 7 -110 -5 -141 -9 -25 -12 -26 -20 -11 -6
10 -12 39 -15 65 -8 70 22 134 40 87z m-151 -142 c9 -10 21 -32 26 -50 l10
-32 -38 0 c-67 0 -116 61 -79 98 16 16 56 7 81 -16z m327 -5 c0 -31 -24 -62
-59 -77 -62 -25 -72 2 -24 68 18 23 32 32 54 32 24 0 29 -4 29 -23z"/>
<path d="M2111 1921 c-67 -54 -81 -69 -65 -72 10 -3 154 111 154 122 0 17 -15
9 -89 -50z"/>
<path d="M662 1639 c2 -7 42 -23 89 -35 94 -26 109 -28 109 -15 0 5 -37 19
-82 31 -46 12 -91 24 -102 27 -12 3 -17 1 -14 -8z"/>
<path d="M2238 1533 c-43 -8 -78 -19 -78 -24 0 -13 23 -11 113 6 43 8 81 15
83 15 2 0 4 5 4 10 0 13 -26 11 -122 -7z"/>
</g>
</svg>
