<?xml version="1.0" standalone="no"?>
<!DOCTYPE svg PUBLIC "-//W3C//DTD SVG 20010904//EN"
 "http://www.w3.org/TR/2001/REC-SVG-20010904/DTD/svg10.dtd">
<svg version="1.0" xmlns="http://www.w3.org/2000/svg"
 width="263.000000pt" height="283.000000pt" viewBox="0 0 263.000000 283.000000"
 preserveAspectRatio="xMidYMid meet">

<g transform="translate(0.000000,283.000000) scale(0.100000,-0.100000)"
fill="#000000" stroke="none">
<path d="M1810 2303 c0 -27 9 -65 21 -91 l22 -44 -37 -37 c-20 -20 -36 -44
-36 -53 0 -15 35 -48 50 -48 4 0 32 20 63 44 34 26 71 46 94 49 30 5 53 21
111 81 39 41 72 83 72 93 0 14 -11 23 -39 31 -54 17 -75 15 -106 -9 l-27 -22
-88 27 c-49 14 -91 26 -94 26 -4 0 -6 -21 -6 -47z m120 -19 c71 -18 82 -18
113 6 29 23 36 24 70 11 25 -10 24 -10 -37 -75 -45 -49 -70 -68 -96 -72 -47
-9 -80 -27 -109 -58 -24 -25 -61 -35 -61 -17 0 5 14 19 30 31 49 35 53 52 25
106 -30 57 -34 100 -7 89 9 -3 42 -13 72 -21z"/>
<path d="M1135 2296 c-321 -74 -531 -328 -563 -677 -11 -119 -24 -150 -88
-222 -24 -27 -49 -66 -55 -87 -10 -34 -8 -44 25 -118 20 -45 43 -114 50 -154
8 -47 22 -87 40 -113 21 -31 26 -47 21 -72 -4 -20 3 -62 19 -116 37 -129 55
-156 125 -192 30 -15 52 -16 160 -11 156 8 170 0 186 -106 5 -33 12 -48 22
-48 13 0 14 9 9 52 -9 67 -29 104 -68 124 -27 14 -50 15 -149 9 -130 -7 -156
-1 -202 54 -33 39 -69 161 -71 238 -1 50 -6 67 -25 87 -17 18 -28 48 -37 101
-7 41 -29 111 -49 154 -41 92 -39 105 26 180 64 72 80 112 90 225 16 162 44
251 121 373 167 265 523 373 819 248 81 -34 109 -41 109 -26 0 15 -108 66
-185 86 -83 23 -255 28 -330 11z"/>
<path d="M929 2059 c-10 -19 -9 -37 4 -129 5 -31 38 -132 47 -145 4 -5 11 -25
15 -43 4 -18 18 -40 31 -48 13 -9 24 -21 24 -27 0 -6 7 -19 17 -29 9 -10 14
-20 12 -21 -2 -2 -53 -37 -112 -77 -60 -40 -113 -83 -119 -95 -13 -28 3 -61
34 -71 13 -3 31 -15 41 -25 38 -40 52 -33 230 119 79 67 90 74 149 83 121 19
157 36 241 118 44 42 90 95 104 119 15 26 46 56 78 76 54 35 89 88 83 129 -2
18 -11 23 -53 29 -27 3 -67 13 -87 22 -43 19 -110 21 -141 5 -12 -6 -38 -27
-58 -46 -32 -30 -43 -35 -85 -35 -42 1 -299 68 -387 101 -41 16 -55 14 -68
-10z m102 -50 c-2 -8 -5 -23 -6 -34 -1 -15 -8 -19 -26 -17 -13 2 -30 9 -36 14
-13 11 -18 60 -7 71 11 10 79 -20 75 -34z m630 5 c17 -8 49 -19 72 -23 34 -6
41 -11 39 -26 -5 -27 -39 -62 -83 -87 -20 -11 -47 -38 -59 -60 -34 -60 -146
-174 -193 -197 -39 -19 -85 -30 -179 -46 -27 -4 -66 -31 -158 -111 -111 -95
-155 -120 -155 -88 0 7 42 45 94 85 52 41 96 80 99 87 9 28 -29 8 -126 -68
-56 -44 -106 -80 -111 -80 -14 0 -30 25 -23 36 4 6 58 45 121 89 111 76 116
78 203 91 120 18 252 78 219 98 -6 4 -33 -5 -62 -19 -58 -30 -99 -28 -99 5 0
15 7 20 26 20 47 0 114 22 114 37 0 11 -6 14 -22 9 -55 -16 -118 -18 -133 -6
-27 22 -16 30 43 31 66 1 103 10 102 24 0 6 -33 10 -78 10 -72 0 -77 1 -80 22
-3 21 1 22 74 25 51 2 79 7 82 16 3 9 -16 12 -72 12 -60 0 -78 3 -83 16 -12
31 12 38 87 27 87 -14 137 -4 170 35 14 17 34 35 45 41 29 15 92 13 126 -5z
m-516 -23 c33 -10 60 -24 59 -30 -1 -6 -2 -20 -2 -30 -2 -17 -6 -18 -43 -10
-59 14 -99 37 -99 58 0 18 8 31 19 31 3 0 33 -9 66 -19z m-126 -70 c16 -4 25
-15 27 -34 2 -23 -1 -27 -21 -27 -29 0 -55 24 -55 51 0 20 9 22 49 10z m127
-27 c47 -13 54 -19 54 -41 0 -24 -2 -25 -37 -18 -50 9 -83 31 -83 55 0 24 -2
24 66 4z m-88 -74 c6 0 12 -9 12 -20 0 -23 -8 -24 -44 -10 -33 12 -36 45 -3
36 12 -3 28 -6 35 -6z m123 -20 c13 0 19 -7 19 -21 0 -19 -4 -20 -42 -14 -52
9 -58 12 -58 32 0 12 7 14 31 9 17 -3 40 -6 50 -6z m-91 -70 c0 -23 -29 -27
-48 -8 -19 19 -14 28 18 28 23 0 30 -4 30 -20z m133 -10 c5 -4 -11 -10 -33
-14 -42 -7 -76 7 -64 25 6 10 84 1 97 -11z m-79 -61 c16 -15 -3 -23 -31 -13
-38 13 -43 37 -6 28 15 -4 32 -10 37 -15z m93 5 c5 -14 -45 -25 -54 -12 -7 12
17 29 36 25 8 -1 16 -7 18 -13z"/>
<path d="M1702 1741 c3 -38 14 -78 32 -112 l27 -53 -44 -38 c-52 -44 -62 -70
-38 -99 28 -35 63 -27 129 30 32 28 68 51 79 51 50 0 92 26 175 110 47 48 88
98 90 110 3 20 -5 25 -52 41 -62 21 -99 17 -126 -12 -23 -25 -53 -24 -154 6
-123 37 -123 37 -118 -34z m122 0 c93 -29 141 -27 178 4 31 26 36 26 97 3 l24
-9 -35 -37 c-20 -20 -58 -60 -85 -89 -43 -45 -55 -53 -100 -59 -42 -5 -62 -15
-109 -55 -32 -27 -66 -49 -76 -49 -31 0 -20 31 27 72 25 22 45 46 45 55 0 8
-11 34 -25 57 -30 51 -46 139 -24 132 8 -3 45 -14 83 -25z"/>
<path d="M1916 1368 c-2 -7 -14 -53 -26 -103 -26 -108 -77 -242 -136 -350 -63
-117 -78 -185 -70 -320 10 -175 17 -215 34 -215 12 0 14 12 8 72 -24 262 -18
312 55 448 100 184 191 480 149 480 -6 0 -12 -6 -14 -12z"/>
</g>
</svg>
