<svg viewBox="0 0 122 122" fill="none" xmlns="http://www.w3.org/2000/svg">
<path d="M97.6348 20.7422C97.6903 20.7422 97.7434 20.7283 97.7803 20.7168C97.8215 20.7039 97.866 20.6861 97.9121 20.666C98.0047 20.6257 98.1182 20.569 98.2471 20.499C98.5058 20.3585 98.8438 20.1568 99.2363 19.9121C100.022 19.4223 101.039 18.7505 102.105 18.0186H102.104C103.263 17.2332 104.471 16.5396 105.583 16.0205C106.56 15.5645 107.449 15.25 108.159 15.1201L108.452 15.0752L108.46 15.0742C110.471 14.7771 112.031 13.8562 115.5 10.7324L116.22 10.0771L116.222 10.0762C117.566 8.82313 118.809 7.55311 119.718 6.51758C120.172 6.00033 120.546 5.53736 120.808 5.16211C120.938 4.97502 121.045 4.80487 121.119 4.65723C121.189 4.51865 121.249 4.36699 121.249 4.22852C121.249 3.708 121.009 3.28653 120.525 2.94336C120.057 2.61104 119.349 2.34304 118.38 2.09766L118.379 2.09863C116.523 1.58105 115.201 1.34063 114.065 1.42773C112.916 1.516 111.98 1.9361 110.894 2.68164L110.889 2.68555L109.129 3.95605L103.198 2.34277L103.193 2.34082C101.51 1.91454 99.9462 1.519 98.7773 1.22949C98.1931 1.08478 97.7065 0.966061 97.3525 0.883789C97.1757 0.842696 97.0302 0.810375 96.9219 0.788086C96.8681 0.777029 96.8217 0.768003 96.7842 0.761719C96.7527 0.756455 96.7093 0.75 96.6729 0.75C96.5309 0.750068 96.4339 0.834976 96.3799 0.90332C96.3256 0.972132 96.2865 1.05728 96.2568 1.14062C96.1965 1.31018 96.1513 1.54038 96.1162 1.80469C96.0455 2.33787 96.0108 3.06563 96.0107 3.8623C96.0107 5.55266 96.642 7.90728 97.4824 9.52148L97.4863 9.52832L98.8984 12.0332L96.5068 14.1523C95.8084 14.7714 95.1789 15.4536 94.7217 16.0537C94.4934 16.3534 94.3047 16.6371 94.1719 16.8857C94.0445 17.1241 93.9492 17.3655 93.9492 17.5684C93.9492 17.7339 94.0029 17.9034 94.0791 18.0635C94.1565 18.226 94.2649 18.395 94.3926 18.5625C94.6479 18.8974 94.9944 19.2469 95.3691 19.5635C95.7443 19.8804 96.1553 20.1706 96.543 20.3828C96.9214 20.5899 97.3115 20.7421 97.6348 20.7422ZM97.6787 17.7295C97.2749 17.8281 96.9549 17.8377 96.751 17.7812C96.6525 17.7539 96.5953 17.7151 96.5635 17.6777C96.5354 17.6447 96.5124 17.5967 96.5107 17.5166C96.5125 17.5116 96.5169 17.5014 96.5254 17.4854C96.5439 17.4503 96.5752 17.4026 96.623 17.3428C96.7188 17.2231 96.8629 17.075 97.0469 16.9082C97.4137 16.5756 97.9193 16.1873 98.4609 15.8271C99.3038 15.2932 99.9675 14.8193 100.454 14.3545C100.943 13.8871 101.267 13.4162 101.407 12.8887C101.548 12.36 101.497 11.8041 101.295 11.1816C101.094 10.5625 100.739 9.86252 100.256 9.03613L100.255 9.03418C99.2308 7.30929 98.6694 5.82487 98.5801 4.875C98.5345 4.39003 98.6182 4.11619 98.7393 3.99316C98.8398 3.8913 99.0463 3.82089 99.4746 3.97559L99.4814 3.97852L99.4883 3.98047C100.112 4.16484 102.385 4.77561 104.449 5.26367H104.452C106.881 5.80954 108.325 6.09427 109.431 6.04688C110.424 6.00428 111.136 5.69457 112.021 5.12207L112.413 4.86035L112.415 4.85938C113.416 4.15547 113.989 3.82712 114.582 3.74512C115.176 3.66307 115.825 3.82332 116.998 4.2207C117.215 4.29746 117.394 4.36063 117.539 4.42285C117.687 4.48616 117.78 4.53941 117.835 4.58691C117.882 4.62809 117.887 4.65234 117.888 4.66895C117.89 4.69815 117.88 4.76466 117.81 4.88867C117.666 5.14027 117.343 5.50776 116.771 6.07715C116.204 6.64043 115.418 7.3799 114.368 8.37109L114.366 8.37305C111.271 11.3607 109.606 12.4599 107.909 12.6914L107.9 12.6924C104.629 13.2477 102.314 14.363 100.28 16.29V16.291C99.4865 17.023 98.4774 17.5344 97.6787 17.7295Z" fill="black" stroke="black" stroke-width="0.5"/>
<path d="M45.8926 121.25C46.1342 121.25 46.3708 121.214 46.5615 121.075C46.7589 120.931 46.8617 120.711 46.9111 120.444C46.9599 120.181 46.9628 119.841 46.9346 119.416C46.9061 118.988 46.8448 118.456 46.7588 117.8L46.7578 117.795C46.4459 115.736 45.9403 114.116 45.1602 112.851C44.3767 111.58 43.3235 110.681 41.9414 110.053L41.9424 110.052C40.0195 109.168 38.3692 109.117 31.5859 109.481V109.482C27.1126 109.696 24.4689 109.706 22.5508 109.259C20.6599 108.818 19.4639 107.928 17.9004 106.271L17.8994 106.269C16.8062 105.123 15.6351 102.717 14.7178 99.9814C13.8034 97.2544 13.1576 94.249 13.0898 91.9365C13.0554 90.4125 12.9523 89.3611 12.6826 88.5322C12.4084 87.6896 11.9666 87.0914 11.292 86.4619C10.2553 85.4884 9.5366 83.8828 8.94238 81.0322L8.8252 80.4453C8.33914 77.9217 6.81823 73.634 5.43359 70.9951C4.73007 69.5956 4.21802 68.5115 3.91113 67.5977C3.6051 66.6863 3.50972 65.9617 3.62109 65.2812C3.73261 64.6004 4.05598 63.9348 4.63965 63.1484C5.22525 62.3595 6.06054 61.465 7.17773 60.3223H7.17676C9.38244 58.1225 10.7812 56.3921 11.71 54.334C12.6374 52.2786 13.0875 49.9161 13.4316 46.4697C13.9802 41.5461 14.7334 37.7449 16.0039 34.2529C17.2739 30.7624 19.0646 27.5693 21.7012 23.8662H21.7021C33.1039 7.82816 57.4414 1.2689 77.6895 8.84863L79.6113 9.5498C81.372 10.1758 82.6596 10.5778 83.5576 10.7695C84.1491 10.8958 84.6081 10.9398 84.9307 10.8721C85.0971 10.8371 85.2498 10.7675 85.3604 10.6426C85.4736 10.5146 85.5176 10.3577 85.5176 10.1982C85.5176 10.0605 85.4502 9.94062 85.3818 9.85059C85.3098 9.75575 85.211 9.66108 85.0967 9.56738C84.8671 9.37923 84.5417 9.16947 84.1475 8.94727C83.3568 8.50164 82.2538 7.98525 80.9912 7.46191C78.465 6.41483 75.2726 5.32879 72.6104 4.71582C69.7331 4.00962 65.3339 3.58291 61.0176 3.46094C56.7007 3.33897 52.4344 3.52054 49.8291 4.04395L49.8281 4.04492C27.67 8.57299 13.1524 24.1279 10.9414 45.502C10.5637 49.1245 10.1544 51.374 9.30469 53.2607C8.45677 55.1434 7.16144 56.6854 4.9668 58.874C4.13158 59.707 3.28128 60.7229 2.58691 61.6924C1.89682 62.6559 1.34461 63.5952 1.12598 64.2734V64.2744C0.777185 65.3261 0.624602 66.0489 0.87207 67.0889C1.1123 68.098 1.7293 69.406 2.8584 71.6504L3.11719 72.1777C4.41876 74.8942 5.82682 78.7099 6.27246 80.9668C6.82609 83.8495 7.79799 86.3277 9.06738 87.9541C9.78549 88.8938 10.2113 89.582 10.4209 90.2109C10.6266 90.8282 10.63 91.405 10.4658 92.1328C10.3166 92.7943 10.3771 93.7813 10.6016 94.9902C10.8277 96.208 11.2263 97.6815 11.7783 99.333C13.0482 103.257 14.0026 105.67 15.2578 107.374C16.5236 109.092 18.0815 110.074 20.501 111.177L20.5029 111.178C22.6287 112.12 24.2064 112.173 31.6094 111.869H31.6104C34.2911 111.747 36.3506 111.687 37.9521 111.765C39.5566 111.842 40.6741 112.057 41.4854 112.467C43.0745 113.27 43.5803 114.868 44.1338 118.118L44.2012 118.486C44.3611 119.317 44.5522 119.957 44.7861 120.407C45.0532 120.921 45.4117 121.25 45.8926 121.25Z" fill="black" stroke="black" stroke-width="0.5"/>
<path d="M37.1016 63.4141C37.8278 63.591 38.6368 63.4537 39.709 62.9629C40.7793 62.4729 42.1438 61.6163 43.9961 60.3115C45.851 59.0049 48.2076 57.2399 51.2646 54.9258C53.985 52.8806 55.5118 51.7696 56.8613 51.0967C58.1973 50.4306 59.3658 50.1912 61.3867 49.918L61.3877 49.917C65.5475 49.338 68.2739 48.7864 70.6865 47.7441C73.1017 46.7007 75.187 45.1727 78.0781 42.6709H78.0771C79.5944 41.387 81.1456 39.9362 82.4385 38.6221C83.5665 37.4755 84.5087 36.4227 85.0586 35.6729L85.2695 35.3711L85.2705 35.3691C86.2098 33.9262 88.1087 32.2524 90.1348 31.0557L90.542 30.8223L90.5449 30.8203C92.4254 29.7399 93.9831 28.3783 95.0205 26.96C96.0542 25.5466 96.5926 24.0467 96.3711 22.7051L96.3701 22.7061C96.3329 22.4155 96.2615 22.1527 96.1123 21.9229C95.9597 21.6879 95.7405 21.5077 95.4434 21.3633C94.8673 21.0833 93.9484 20.9131 92.5137 20.7314L92.5068 20.7305C90.6682 20.5494 87.9438 19.9445 86.5967 19.4072L86.5947 19.4062C85.0839 18.8145 83.1644 18.4914 81.3574 18.4375C79.5577 18.3838 77.8298 18.5962 76.7129 19.1064C76.2758 19.3002 75.6055 19.7241 74.8838 20.2344C74.157 20.7482 73.3613 21.3613 72.6689 21.9443L72.2744 22.2686C71.3921 22.9811 70.763 23.401 70.0801 23.6533C69.301 23.9411 68.4295 24.0184 66.9922 24.0186C66.2961 24.0036 64.6749 23.7429 62.5137 23.3193C60.3613 22.8974 57.6967 22.3189 54.9326 21.6797C49.4014 20.4006 43.4849 18.8799 40.4736 17.8789C39.0694 17.3933 38.0737 17.16 37.3047 17.2598C36.497 17.3645 35.9772 17.8292 35.5088 18.5957L35.5068 18.5977C35.1326 19.2279 34.9723 19.8429 35.0166 20.9971C35.0603 22.1345 35.3042 23.8262 35.75 26.623L35.751 26.6279C35.9272 27.5964 36.5872 29.6264 37.2734 31.4971C37.618 32.4362 37.9723 33.3428 38.2793 34.0654C38.4327 34.4264 38.5756 34.7438 38.7002 34.9971C38.822 35.2446 38.9345 35.4489 39.0293 35.5703L39.0352 35.5771L39.041 35.583C39.0862 35.633 39.1558 35.7413 39.2422 35.9121C39.3258 36.0774 39.4172 36.2855 39.5098 36.5205C39.6949 36.9904 39.88 37.5586 40.0146 38.0957C40.1617 38.6823 40.4878 39.3205 40.8877 39.8721C41.2864 40.4219 41.7765 40.9108 42.2676 41.1787C42.6961 41.4428 43.0884 41.7482 43.3711 42.0273C43.514 42.1685 43.6242 42.298 43.6963 42.4072C43.7733 42.5238 43.787 42.587 43.7871 42.6035C43.7871 42.7424 43.8305 42.8961 43.8916 43.0439C43.9545 43.1961 44.0442 43.362 44.1533 43.5312C44.3696 43.8667 44.6726 44.231 45.0293 44.5488C45.3267 44.8418 45.5546 45.1303 45.6885 45.3467C45.7315 45.4162 45.7594 45.4746 45.7793 45.5186C45.7544 45.5348 45.7251 45.5537 45.6914 45.5752C45.5759 45.649 45.4123 45.7516 45.207 45.8789C44.7967 46.1334 44.22 46.487 43.5205 46.9131C42.121 47.7655 40.231 48.9079 38.2041 50.126V50.127C36.1381 51.348 34.1911 52.6141 32.708 53.6689C31.9666 54.1962 31.3386 54.6725 30.8682 55.0645C30.6331 55.2603 30.4344 55.4374 30.2803 55.5908C30.1303 55.74 30.0078 55.881 29.9385 56.0039L29.9346 56.0107C28.9461 57.898 30.1897 60.0526 32.4238 60.6914L32.4326 60.6943L32.4424 60.6963C32.8536 60.7804 33.3604 60.9958 33.8564 61.2715C34.348 61.5447 34.8114 61.868 35.1387 62.1572C35.7925 62.7674 36.3842 63.2393 37.1016 63.4141ZM41.7402 24.5303C41.5314 24.648 41.175 24.6894 40.5645 24.6299C40.1392 24.5717 39.6408 24.44 39.1973 24.2842C38.7472 24.1261 38.3818 23.9533 38.207 23.8242C38.0409 23.699 37.8733 23.4407 37.7334 23.0723C37.5962 22.7109 37.4979 22.2749 37.4482 21.835C37.3986 21.3946 37.3993 20.9608 37.4551 20.6035C37.512 20.2393 37.6188 20.0025 37.7383 19.8926C37.7707 19.8691 37.8573 19.8351 38.0352 19.8291C38.2101 19.8233 38.4348 19.8448 38.6953 19.8926C39.215 19.9878 39.8449 20.1806 40.4482 20.4199C41.0527 20.6597 41.6165 20.9415 42.0068 21.209C42.2033 21.3436 42.3425 21.4657 42.4229 21.5674C42.509 21.6765 42.4885 21.7087 42.4932 21.6943L42.4902 21.7031C42.3505 22.1986 42.141 23.1273 42.0703 23.8164L42.0693 23.8232C42.0379 24.2406 41.9196 24.4291 41.7402 24.5303ZM37.4385 60.8799C37.2924 60.865 37.2154 60.8139 37.168 60.749C37.116 60.6778 37.0752 60.5552 37.0723 60.3525C37.0731 60.3508 37.074 60.3488 37.0752 60.3467C37.0877 60.3234 37.1104 60.2875 37.1484 60.2393C37.2242 60.1432 37.3422 60.0175 37.502 59.8633C37.8203 59.556 38.2857 59.1557 38.8672 58.6895C39.7386 57.9908 40.8619 57.1502 42.1211 56.2607L43.4219 55.3584L43.4238 55.3564C45.2133 54.1057 46.8663 52.8854 48.0986 51.9229C48.7145 51.4418 49.2274 51.0232 49.6006 50.6973C49.7868 50.5346 49.9412 50.3931 50.0566 50.2764C50.1362 50.1959 50.2121 50.1129 50.2646 50.0361L50.3086 49.9609L50.3145 49.9502L50.3184 49.9375C50.3998 49.7128 50.4471 49.4908 50.4072 49.2998C50.3859 49.1978 50.339 49.1007 50.2578 49.0234C50.1777 48.9472 50.079 48.9042 49.9785 48.8838C49.7871 48.845 49.5545 48.8805 49.3037 48.9531C49.0458 49.0278 48.7372 49.1518 48.3789 49.3223C46.9494 50.0022 44.6146 51.4753 41.2832 53.7891H41.2822C39.3603 55.1277 37.5426 56.3445 36.1631 57.2256C35.473 57.6663 34.8944 58.022 34.4688 58.2666C34.2556 58.3891 34.0837 58.4815 33.957 58.543C33.8934 58.5738 33.845 58.5956 33.8105 58.6084C33.7981 58.613 33.7895 58.6156 33.7842 58.6172C33.6114 58.6136 33.4152 58.5435 33.2158 58.4111C33.0128 58.2763 32.8209 58.0866 32.6689 57.876C32.5165 57.6645 32.4126 57.443 32.3711 57.248C32.3294 57.0524 32.3558 56.9126 32.4199 56.8223C32.422 56.8199 32.4256 56.8157 32.4307 56.8105C32.4409 56.8003 32.455 56.7869 32.4736 56.7705C32.5114 56.7373 32.5631 56.6953 32.6289 56.6445C32.7604 56.543 32.9414 56.4128 33.167 56.2559C33.6178 55.9422 34.2396 55.5287 34.9902 55.042C36.491 54.069 38.4987 52.8062 40.6621 51.4668L43.207 49.9316C45.456 48.5904 46.896 47.7993 48.2178 47.2754C49.5326 46.7543 50.7329 46.4967 52.5137 46.2334L54.5146 45.958L55.2939 45.8477C59.1965 45.2582 63.1965 44.1389 66.041 43.0039C67.5529 42.4006 68.7614 41.784 69.4521 41.2285C69.7887 40.9579 70.0506 40.6634 70.1172 40.3545C70.1531 40.1876 70.1317 40.02 70.041 39.8682C69.9556 39.7252 69.8193 39.6148 69.6572 39.5264C69.6562 39.5258 69.6553 39.525 69.6543 39.5244C69.6525 39.5234 69.6512 39.5215 69.6494 39.5205L69.6484 39.5215C69.5505 39.4663 69.4355 39.4441 69.3281 39.4365C69.2134 39.4284 69.0828 39.4339 68.9424 39.4502C68.661 39.4828 68.3141 39.5597 67.9258 39.668C67.1476 39.885 66.1747 40.2388 65.1719 40.668L65.166 40.6709C63.1878 41.5779 61.5293 41.9863 60.3848 41.9355C59.8139 41.9102 59.3974 41.7717 59.1279 41.5527C58.8677 41.3411 58.7168 41.0317 58.7168 40.5938C58.7168 40.1813 58.8234 39.9754 59.0107 39.8496C59.2269 39.7046 59.6055 39.625 60.2539 39.625C61.8973 39.625 63.8794 39.2852 65.4512 38.8311C66.2368 38.6041 66.9315 38.3453 67.4346 38.0801C67.685 37.9481 67.8994 37.8088 68.0547 37.6631C68.2033 37.5236 68.3379 37.34 68.3379 37.1211C68.3378 36.9315 68.3088 36.7501 68.2275 36.5947C68.1423 36.432 68.0081 36.3146 67.833 36.248C67.5097 36.1252 67.0596 36.1794 66.5088 36.332V36.333C64.6385 36.8149 62.6313 37.0852 60.9668 37.1455C60.1336 37.1757 59.3914 37.1531 58.7988 37.0791C58.1957 37.0038 57.786 36.881 57.582 36.7373L57.583 36.7363C57.1201 36.4019 56.8628 36.1487 56.7656 35.9688C56.7209 35.8857 56.7249 35.8458 56.7285 35.832C56.7322 35.818 56.7491 35.7793 56.833 35.7256C57.0129 35.6105 57.3787 35.5057 57.9893 35.4307C58.5881 35.3571 59.3855 35.316 60.3955 35.3008H60.3945C62.6681 35.2702 64.4565 35.1175 65.6738 34.8613C66.2799 34.7338 66.7633 34.5765 67.0967 34.3848C67.4149 34.2017 67.6676 33.9412 67.6494 33.5889H67.6504C67.6504 33.5867 67.6495 33.5842 67.6494 33.582C67.6491 33.5775 67.6498 33.5729 67.6494 33.5684L67.6484 33.5693C67.6391 33.3962 67.5076 33.2931 67.4277 33.2441C67.3311 33.185 67.2049 33.138 67.0664 33.0986C66.7856 33.0187 66.3892 32.9522 65.9082 32.8984C64.9421 32.7904 63.5912 32.7295 62.04 32.7295C60.8025 32.7295 59.8578 32.7257 59.1318 32.7002C58.4027 32.6746 57.9111 32.6272 57.5723 32.5459C57.2383 32.4658 57.0845 32.36 56.9941 32.2393C56.8958 32.1074 56.8415 31.9191 56.79 31.5996C56.737 31.2706 56.7318 31.0952 56.7773 30.9805C56.8112 30.8955 56.8952 30.7956 57.1982 30.7061C57.5046 30.6156 57.9787 30.5523 58.7061 30.501C59.429 30.4499 60.3827 30.4119 61.6377 30.3662H61.6367C63.3919 30.3052 64.763 30.1979 65.7246 30.0352C66.204 29.954 66.5941 29.8578 66.8828 29.7402C67.1559 29.629 67.4058 29.4722 67.4971 29.2295C67.5396 29.1162 67.5515 28.9867 67.499 28.8584C67.4487 28.7352 67.3529 28.6468 67.249 28.583C67.0488 28.4601 66.7401 28.3809 66.3457 28.3232C65.5435 28.206 64.2377 28.1611 62.3154 28.1611C60.2511 28.1611 58.9318 28.1143 58.0879 27.9736C57.2396 27.8322 56.9593 27.6099 56.8408 27.3369V27.3359C56.6438 26.8845 56.624 26.5826 56.7051 26.3818C56.7821 26.1914 56.9826 26.0156 57.4248 25.8955C57.866 25.7757 58.5005 25.7255 59.3584 25.75C60.2123 25.7744 61.2717 25.8723 62.5547 26.0391L63.6504 26.1826C68.8086 26.7918 72.0238 26.1904 74.2285 24.0586L74.4531 23.832L74.4551 23.8301C75.4065 22.8059 76.7579 21.7342 77.4746 21.3877C78.4197 20.9564 79.9515 20.7578 81.5566 20.8105C83.1612 20.8632 84.7899 21.1649 85.916 21.6934L85.9268 21.6973C86.9631 22.1295 88.791 22.7012 90.3057 23.0029L90.9326 23.1152C91.5133 23.2061 91.9721 23.2915 92.332 23.3828C92.6944 23.4747 92.9424 23.5692 93.1094 23.6689C93.2709 23.7655 93.3471 23.8606 93.3848 23.959C93.4241 24.0618 93.4342 24.1992 93.4053 24.4004C93.2496 25.1454 92.6267 26.0451 91.6338 26.9629C90.6486 27.8735 89.3284 28.7746 87.834 29.5273V29.5283C87.1202 29.8769 86.295 30.4698 85.5469 31.1406C84.7978 31.8124 84.1089 32.577 83.6797 33.2744V33.2754C82.5292 35.0732 80.0433 37.7022 77.4287 40.0654C76.1234 41.2452 74.7916 42.3534 73.5869 43.2529C72.3783 44.1554 71.3101 44.8385 70.5303 45.1768V45.1777C67.8847 46.32 64.7547 46.9865 58.2969 47.9609V47.96C57.3153 48.089 56.1445 48.5839 54.4443 49.6396C52.7409 50.6974 50.4825 52.3338 47.3213 54.7705C43.5062 57.6649 40.8599 59.4784 39.1738 60.3271C38.754 60.5385 38.3996 60.6871 38.1064 60.7773C37.8108 60.8683 37.5926 60.8955 37.4385 60.8799ZM53.8555 27.1533C53.6957 27.1865 53.4526 27.1856 53.0723 27.1396C52.6964 27.0942 52.2098 27.0076 51.5742 26.8857C49.5618 26.4622 47.886 25.9052 46.7197 25.3027C46.1355 25.0009 45.6903 24.6935 45.3945 24.3945C45.0967 24.0934 44.9736 23.8258 44.9736 23.5986C44.9736 23.0895 45.1019 22.6702 45.2988 22.3857C45.4934 22.1047 45.7487 21.96 46.0293 21.96C46.0265 21.96 46.0562 21.9633 46.1416 21.9805C46.218 21.9958 46.3209 22.0187 46.4482 22.0488C46.7033 22.1091 47.0501 22.1963 47.4619 22.3027C48.2852 22.5156 49.3662 22.8048 50.5 23.1094C51.6236 23.4112 52.6415 23.7724 53.3652 24.1006C53.7284 24.2653 54.0085 24.4173 54.1895 24.5449C54.2809 24.6094 54.3362 24.66 54.3643 24.6943C54.365 24.6952 54.3656 24.6964 54.3662 24.6973C54.2978 25.0979 54.2331 25.9067 54.2314 26.499C54.1975 26.7516 54.1603 26.9015 54.1045 26.9961C54.0604 27.0708 53.9983 27.1237 53.8555 27.1533ZM42.3184 30.5977C41.3819 30.5976 40.4931 30.253 39.8408 29.7178C39.1871 29.1812 38.7892 28.4702 38.7891 27.7412C38.7891 27.4497 38.8283 27.2688 38.8945 27.1562C38.9509 27.0605 39.0432 26.9868 39.2373 26.9512C39.4436 26.9134 39.7445 26.9232 40.1807 26.9941C40.6128 27.0645 41.1573 27.191 41.8418 27.373L41.8525 27.376L42.0381 27.4229C42.4569 27.5426 42.7765 27.7337 43.0098 27.9922C43.2757 28.287 43.4482 28.6903 43.5127 29.2285C43.5467 29.5752 43.558 29.8324 43.5391 30.0264C43.5203 30.219 43.4743 30.3223 43.4189 30.3857C43.3645 30.4481 43.2724 30.5045 43.0918 30.543C42.9083 30.582 42.6587 30.5977 42.3184 30.5977ZM53.2363 32.335C52.8978 32.3047 52.4486 32.2309 51.8457 32.124L51.8408 32.123C50.1424 31.852 48.7491 31.3877 47.7881 30.8223C46.8142 30.2492 46.3486 29.6134 46.3486 29.0195C46.3486 28.8317 46.3465 28.6807 46.3516 28.5498C46.3567 28.4181 46.3684 28.3304 46.3877 28.2705C46.4049 28.2173 46.4241 28.1982 46.4414 28.1865C46.4643 28.1712 46.5151 28.1488 46.627 28.1426C46.8612 28.1296 47.2491 28.1894 47.8975 28.3389C48.5372 28.4863 49.4 28.7134 50.5703 29.0186L50.5742 29.0195C51.38 29.2171 52.0079 29.3866 52.4971 29.5498C52.9878 29.7135 53.3249 29.8668 53.5586 30.0264C53.7864 30.1819 53.913 30.3407 53.9873 30.5234C54.0647 30.7138 54.0937 30.9497 54.0938 31.2734C54.0938 31.6441 54.0839 31.8914 54.042 32.0615C54.0045 32.2137 53.9519 32.2679 53.876 32.3008C53.7705 32.3463 53.5829 32.3659 53.2363 32.335ZM44.7812 35.4062C44.6106 35.4383 44.3514 35.4196 43.96 35.3291C43.5739 35.2399 43.0856 35.0876 42.4688 34.875L42.4639 34.873C41.927 34.6999 41.5222 34.4543 41.25 34.2002C40.9738 33.9422 40.8498 33.692 40.832 33.5107C40.8235 33.4233 40.8401 33.3548 40.8701 33.3018C40.8999 33.2492 40.952 33.1956 41.043 33.1533C41.2332 33.0649 41.5805 33.03 42.123 33.1611L42.127 33.1631C42.951 33.3457 44.0755 33.5342 44.5869 33.5342C44.6808 33.5344 44.8198 33.6017 44.9482 33.7852C45.0724 33.9624 45.1611 34.2165 45.1611 34.502C45.1611 34.8449 45.1256 35.0647 45.0605 35.2012C45.0064 35.3146 44.9296 35.3783 44.7812 35.4062ZM53.0283 36.5684C52.6455 36.5415 52.1473 36.479 51.4951 36.3877C50.6021 36.2507 49.9125 36.1371 49.3789 36.0254C48.8423 35.9131 48.4806 35.8049 48.2344 35.6855C47.9954 35.5697 47.882 35.4509 47.8184 35.3184C47.7494 35.1745 47.7227 34.982 47.7227 34.6846C47.7227 34.5249 47.7496 34.4357 47.7832 34.3838C47.812 34.3394 47.8633 34.295 47.9814 34.2646C48.1064 34.2326 48.2904 34.221 48.5566 34.2402C48.8202 34.2593 49.1493 34.3074 49.5576 34.3828L49.5645 34.3838L50.5 34.5186C51.4756 34.6479 52.5077 34.752 53.0391 34.752C53.4498 34.752 53.7006 34.8502 53.8506 34.999C54.0002 35.1476 54.0937 35.3914 54.0938 35.7812C54.0938 36.0713 54.0752 36.247 54.0293 36.3594C53.9942 36.4452 53.9415 36.5012 53.8105 36.5391C53.6581 36.583 53.4168 36.5956 53.0283 36.5684ZM45.5918 39.7217C45.0079 39.8023 44.2545 39.6002 43.6523 39.0664C43.3329 38.7832 43.1361 38.5546 43.04 38.3789C42.9458 38.2064 42.9748 38.1408 42.9961 38.1104C43.0378 38.0509 43.1643 37.9632 43.4727 37.8965C43.7684 37.8325 44.1817 37.7979 44.7236 37.7979C45.5205 37.7979 45.9704 37.8638 46.2227 38.0088C46.3365 38.0743 46.4084 38.1556 46.4561 38.2646C46.5066 38.3806 46.5352 38.5405 46.5352 38.7666C46.5351 39.0523 46.4359 39.2645 46.2793 39.417C46.1187 39.5734 45.8824 39.6815 45.5918 39.7217ZM53.6201 39.9814C52.2045 40.1905 50.942 40.0814 50.1494 39.8018C49.7473 39.6599 49.5056 39.4877 49.4023 39.3291C49.3544 39.2555 49.3379 39.1875 49.3428 39.1211C49.3466 39.0697 49.3643 39.0073 49.4072 38.9336L49.459 38.8555L49.4668 38.8457H49.4658C49.4561 38.8599 49.4566 38.8501 49.499 38.8301C49.5386 38.8115 49.5985 38.792 49.6816 38.7734C49.8485 38.7362 50.0789 38.7113 50.3594 38.7002C50.9181 38.678 51.6423 38.7107 52.3867 38.7861C53.1306 38.8615 53.8866 38.9783 54.5088 39.1201C54.8201 39.1911 55.0942 39.2675 55.3145 39.3467C55.4387 39.3914 55.5386 39.4369 55.6172 39.4775C55.5619 39.504 55.4907 39.5341 55.4014 39.5664C55.0024 39.7108 54.3684 39.8607 53.6201 39.9814ZM54.0869 43.6084C53.8993 43.592 53.7388 43.5596 53.6133 43.5137C53.4931 43.4697 53.4199 43.4189 53.3799 43.3721C53.3269 43.2861 53.3237 43.1878 53.3955 43.0566C53.475 42.9118 53.6386 42.7492 53.875 42.6025C54.3485 42.3089 55.0241 42.1323 55.6035 42.2402L55.6133 42.2422L55.6221 42.2432C55.8542 42.2689 56.0928 42.3604 56.2871 42.4863C56.486 42.6152 56.6095 42.7605 56.6523 42.874L56.6543 42.8799H56.6553C56.6636 42.9005 56.6658 42.9206 56.6396 42.9619C56.6067 43.0136 56.5354 43.082 56.4102 43.1572C56.1612 43.3068 55.7756 43.4388 55.3438 43.5234C54.9147 43.6075 54.4622 43.6411 54.0869 43.6084ZM49.6816 43.8955C49.3285 43.8713 48.906 43.7916 48.4414 43.6445L48.4385 43.6436C47.8032 43.4509 47.3161 43.2202 46.9814 42.9971C46.814 42.8854 46.6889 42.7788 46.6035 42.6836C46.5164 42.5865 46.4812 42.5135 46.4707 42.4697C46.4625 42.4353 46.4698 42.4277 46.4736 42.4229C46.4854 42.4083 46.5273 42.3723 46.6396 42.3438C46.8679 42.2857 47.2775 42.2876 47.9004 42.4219C48.4089 42.5422 48.9488 42.6916 49.4014 42.8477C49.6283 42.9259 49.8297 43.0051 49.9932 43.0811C50.1611 43.1592 50.2719 43.2268 50.3301 43.2783L50.3359 43.2832C50.5993 43.5021 50.6468 43.641 50.6475 43.6895C50.6476 43.6995 50.6485 43.7606 50.4775 43.8242C50.3092 43.8868 50.0392 43.92 49.6816 43.8955Z" fill="black" stroke="black" stroke-width="0.5"/>
<path d="M88.7363 57.8301C89.3529 58.0474 90.0228 58.077 90.7637 57.9248C92.0485 57.6609 93.5673 56.8458 95.4482 55.4814L96.2773 54.8623L96.2783 54.8613C97.3689 54.0155 98.5271 53.2457 99.5039 52.6885C99.9925 52.4098 100.432 52.1861 100.793 52.0332C101.165 51.8755 101.42 51.8076 101.554 51.8076C105.092 51.8076 108.041 50.161 113.746 45.043H113.747C115.366 43.5769 116.884 42.0791 118.015 40.8545C118.58 40.2426 119.051 39.6952 119.392 39.2529C119.561 39.0321 119.702 38.8337 119.805 38.6641C119.903 38.5015 119.983 38.3415 120.009 38.2031L120.01 38.1982C120.064 37.8788 120.076 37.5827 119.983 37.3096C119.888 37.0289 119.695 36.8055 119.406 36.6094C119.123 36.4167 118.734 36.2412 118.227 36.0547C117.717 35.8673 117.07 35.6636 116.263 35.4199H116.262C111.977 34.1334 109.316 34.3465 107.359 36.209L107.358 36.21C106.985 36.5696 106.591 36.8299 106.106 36.9961C105.62 37.1632 105.029 37.2398 104.259 37.2139C102.904 37.1681 101.031 36.8067 98.2578 36.1045L97.0137 35.7832C94.9037 35.2206 93.3113 34.796 92.1201 34.5449C90.9424 34.2967 90.1059 34.2049 89.5352 34.3506C89.2374 34.4266 89.0006 34.5699 88.8291 34.793C88.6615 35.0111 88.5726 35.2852 88.5273 35.5947C88.4385 36.2025 88.507 37.0478 88.5918 38.1152V38.1182C88.8012 40.4686 89.5683 42.9413 90.8252 45.0459L92.5693 48.082L89.7197 50.2627V50.2637C87.935 51.6026 86.8189 52.7017 86.3779 53.7197C86.1527 54.2398 86.1006 54.7443 86.2275 55.2432C86.3531 55.7363 86.6488 56.2023 87.0781 56.6621C87.5789 57.2162 88.1221 57.6135 88.7363 57.8301ZM89.9404 55.5713C89.4275 55.5713 89.1746 55.4546 89.0703 55.3281C88.9795 55.2179 88.9401 55.0185 89.0889 54.6611C89.2357 54.3084 89.5436 53.8633 90.0264 53.3447C90.5065 52.829 91.1487 52.2521 91.9482 51.6338L91.9492 51.6328C92.8162 50.9565 93.5997 50.2471 94.1689 49.6338C94.453 49.3277 94.6885 49.0406 94.8545 48.79C94.9375 48.6647 95.007 48.5437 95.0557 48.4307C95.103 48.3206 95.1376 48.2022 95.1377 48.0859C95.1377 47.9172 95.0768 47.6911 94.9902 47.4502C94.9003 47.2001 94.7715 46.9034 94.6143 46.582C94.3002 45.9403 93.8647 45.1859 93.3779 44.4766L93.3789 44.4756C92.3689 42.9536 91.5884 40.8674 91.25 39.2178C91.0801 38.3892 91.0274 37.6971 91.0977 37.251C91.1333 37.0249 91.1952 36.9012 91.251 36.8447C91.2871 36.8082 91.3358 36.7818 91.4502 36.8135C92.0271 37.0036 94.5696 37.6726 97.1621 38.3379C103.557 40.1052 106.962 40.0162 109.605 38.0527L109.983 37.7754C110.818 37.176 111.333 36.9096 112.022 36.8916C112.426 36.8811 112.902 36.9561 113.548 37.126C114.194 37.2958 114.993 37.5557 116.042 37.9062H116.043L117.293 38.3232L115.194 40.2891V40.29C113.815 41.5127 111.208 43.9457 109.354 45.71C107.875 47.0827 106.952 47.8668 106.023 48.3594C105.103 48.8473 104.161 49.0566 102.624 49.2383V49.2393C101.168 49.3931 100.075 49.6246 98.9346 50.1338C97.7995 50.6408 96.6303 51.4173 95.0127 52.6377V52.6367C93.9204 53.4536 92.7951 54.1937 91.8604 54.7285C91.3926 54.9961 90.9762 55.2111 90.6377 55.3574C90.2871 55.509 90.0551 55.5713 89.9404 55.5713Z" fill="black" stroke="black" stroke-width="0.5"/>
<path d="M89.9404 121.25C90.1827 121.25 90.4238 121.195 90.6113 121.003C90.7896 120.82 90.8812 120.55 90.9268 120.211C91.0175 119.535 90.9433 118.408 90.7383 116.59L90.7393 116.589C89.9141 108.604 89.6089 103.883 90.1279 100.126C90.6448 96.3854 91.9807 93.5877 94.4824 89.4561C97.9293 83.8339 101.218 76.507 103.284 70.585C104.317 67.6255 105.049 65.0049 105.34 63.1172C105.485 62.1776 105.524 61.3956 105.425 60.8389C105.375 60.5608 105.287 60.3142 105.138 60.1328C104.98 59.9411 104.765 59.836 104.509 59.8359C104.23 59.8359 103.971 59.9581 103.769 60.1191C103.566 60.2807 103.399 60.4994 103.312 60.7295L103.309 60.7402C103.204 61.0644 102.714 62.7246 102.127 64.8193L101.519 67.0264C99.7384 73.5811 96.2432 81.7215 92.2012 88.2803V88.2812C90.0305 91.8548 88.6753 94.6972 87.9365 97.6865C87.1978 100.676 87.0788 103.796 87.3545 107.92L87.4814 109.823C87.7724 114.048 88.0349 116.781 88.3457 118.494C88.5226 119.469 88.7197 120.141 88.9609 120.574C89.0831 120.793 89.2235 120.964 89.3906 121.08C89.5615 121.198 89.7472 121.25 89.9404 121.25Z" fill="black" stroke="black" stroke-width="0.5"/>
</svg>
