<svg viewBox="0 0 750 1200" fill="none" xmlns="http://www.w3.org/2000/svg">
<g clip-path="url(#clip0_668_2583)">
<path d="M750 0V1200H0V0H750Z" fill="#F0E2F9"/>
<path d="M-0.000793457 672.2C117.299 654.4 234.599 636.7 336.099 582.1C437.599 527.5 523.399 436.2 576.799 333C630.199 229.8 651.199 114.9 672.199 0.000183105H-0.000793457V672.2Z" fill="#D4C6E9"/>
<path d="M-0.000396729 504.1C87.9996 490.8 175.9 477.5 252.1 436.6C328.2 395.7 392.5 327.1 432.6 249.8C472.6 172.4 488.4 86.2001 504.1 9.15527e-05H-0.000396729V504.1Z" fill="#B5A7D8"/>
<path d="M-0.000396729 336.1C58.5996 327.2 117.3 318.3 168 291.1C218.8 263.8 261.7 218.1 288.4 166.5C315.1 114.9 325.6 57.5001 336.1 9.15527e-05H-0.000396729V336.1Z" fill="#9285C6"/>
<path d="M0 168C29.3 163.6 58.6 159.2 84 145.5C109.4 131.9 130.8 109 144.2 83.3C157.5 57.5 162.8 28.7 168 0H0V168Z" fill="#7265B4"/>
<path d="M750 527.8C676.7 620.9 603.4 713.9 495 758.3C386.6 802.7 243.3 798.4 167.9 863.9C92.5 929.4 85.2 1064.7 77.8 1200H750V527.8Z" fill="#D4C6E9"/>
<path d="M750 695.9C695 765.7 640 835.5 558.8 868.7C477.5 902 369.9 898.8 313.4 947.9C256.9 997.1 251.4 1098.5 245.9 1200H750V695.9Z" fill="#B5A7D8"/>
<path d="M750 863.9C713.3 910.4 676.7 957 622.5 979.2C568.3 1001.4 496.6 999.2 458.9 1032C421.3 1064.7 417.6 1132.4 413.9 1200H750V863.9Z" fill="#9285C6"/>
<path d="M750 1032C731.7 1055.2 713.3 1078.5 686.3 1089.6C659.2 1100.7 623.3 1099.6 604.5 1116C585.6 1132.4 583.8 1166.2 582 1200H750V1032Z" fill="#7265B4"/>
</g>
<defs>
<clipPath id="clip0_668_2583">
<rect width="1200" height="750" fill="white" transform="matrix(0 -1 -1 0 750 1200)"/>
</clipPath>
</defs>
</svg>
