<svg id="visual" viewBox="0 0 1200 750" width="1200" height="750" xmlns="http://www.w3.org/2000/svg" xmlns:xlink="http://www.w3.org/1999/xlink" version="1.1"><rect x="0" y="0" width="1200" height="750" fill="#F0E2F9"></rect><defs><linearGradient id="grad1_0" x1="37.5%" y1="100%" x2="100%" y2="0%"><stop offset="17.999999999999996%" stop-color="#fbabfa" stop-opacity="1"></stop><stop offset="82%" stop-color="#fbabfa" stop-opacity="1"></stop></linearGradient></defs><defs><linearGradient id="grad1_1" x1="37.5%" y1="100%" x2="100%" y2="0%"><stop offset="17.999999999999996%" stop-color="#fbabfa" stop-opacity="1"></stop><stop offset="82%" stop-color="#f5bffd" stop-opacity="1"></stop></linearGradient></defs><defs><linearGradient id="grad1_2" x1="37.5%" y1="100%" x2="100%" y2="0%"><stop offset="17.999999999999996%" stop-color="#f1d1fc" stop-opacity="1"></stop><stop offset="82%" stop-color="#f5bffd" stop-opacity="1"></stop></linearGradient></defs><defs><linearGradient id="grad1_3" x1="37.5%" y1="100%" x2="100%" y2="0%"><stop offset="17.999999999999996%" stop-color="#f1d1fc" stop-opacity="1"></stop><stop offset="82%" stop-color="#f0e2f9" stop-opacity="1"></stop></linearGradient></defs><defs><linearGradient id="grad2_0" x1="0%" y1="100%" x2="62.5%" y2="0%"><stop offset="17.999999999999996%" stop-color="#fbabfa" stop-opacity="1"></stop><stop offset="82%" stop-color="#fbabfa" stop-opacity="1"></stop></linearGradient></defs><defs><linearGradient id="grad2_1" x1="0%" y1="100%" x2="62.5%" y2="0%"><stop offset="17.999999999999996%" stop-color="#f5bffd" stop-opacity="1"></stop><stop offset="82%" stop-color="#fbabfa" stop-opacity="1"></stop></linearGradient></defs><defs><linearGradient id="grad2_2" x1="0%" y1="100%" x2="62.5%" y2="0%"><stop offset="17.999999999999996%" stop-color="#f5bffd" stop-opacity="1"></stop><stop offset="82%" stop-color="#f1d1fc" stop-opacity="1"></stop></linearGradient></defs><defs><linearGradient id="grad2_3" x1="0%" y1="100%" x2="62.5%" y2="0%"><stop offset="17.999999999999996%" stop-color="#f0e2f9" stop-opacity="1"></stop><stop offset="82%" stop-color="#f1d1fc" stop-opacity="1"></stop></linearGradient></defs><g transform="translate(1200, 750)"><path d="M-672.2 0C-654.4 -117.3 -636.7 -234.6 -582.1 -336.1C-527.5 -437.6 -436.2 -523.4 -333 -576.8C-229.8 -630.2 -114.9 -651.2 0 -672.2L0 0Z" fill="#f0dafb"></path><path d="M-504.1 0C-490.8 -88 -477.5 -175.9 -436.6 -252.1C-395.7 -328.2 -327.1 -392.5 -249.8 -432.6C-172.4 -472.6 -86.2 -488.4 0 -504.1L0 0Z" fill="#f3c8fd"></path><path d="M-336.1 0C-327.2 -58.6 -318.3 -117.3 -291.1 -168C-263.8 -218.8 -218.1 -261.7 -166.5 -288.4C-114.9 -315.1 -57.5 -325.6 0 -336.1L0 0Z" fill="#f8b5fc"></path><path d="M-168 0C-163.6 -29.3 -159.2 -58.6 -145.5 -84C-131.9 -109.4 -109 -130.8 -83.3 -144.2C-57.5 -157.5 -28.7 -162.8 0 -168L0 0Z" fill="#fbabfa"></path></g><g transform="translate(0, 0)"><path d="M672.2 0C579.1 73.3 486.1 146.6 441.7 255C397.3 363.4 401.6 506.7 336.1 582.1C270.6 657.5 135.3 664.8 0 672.2L0 0Z" fill="#f0dafb"></path><path d="M504.1 0C434.3 55 364.5 110 331.3 191.2C298 272.5 301.2 380.1 252.1 436.6C202.9 493.1 101.5 498.6 0 504.1L0 0Z" fill="#f3c8fd"></path><path d="M336.1 0C289.6 36.7 243 73.3 220.8 127.5C198.6 181.7 200.8 253.4 168 291.1C135.3 328.7 67.6 332.4 0 336.1L0 0Z" fill="#f8b5fc"></path><path d="M168 0C144.8 18.3 121.5 36.7 110.4 63.7C99.3 90.8 100.4 126.7 84 145.5C67.6 164.4 33.8 166.2 0 168L0 0Z" fill="#fbabfa"></path></g></svg>