<svg  viewBox="0 0 1200 750" fill="none" xmlns="http://www.w3.org/2000/svg">
<g clip-path="url(#clip0_668_2583)">
<path d="M1200 750H0V0H1200V750Z" fill="#F0E2F9"/>
<path d="M527.801 0.000183105C545.601 117.3 563.301 234.6 617.901 336.1C672.501 437.6 763.801 523.4 867.001 576.8C970.201 630.2 1085.1 651.2 1200 672.2V0.000183105H527.801Z" fill="#D4C6E9"/>
<path d="M695.9 0.000579834C709.2 88.0006 722.5 175.901 763.4 252.101C804.3 328.201 872.9 392.501 950.2 432.601C1027.6 472.601 1113.8 488.401 1200 504.101V0.000579834H695.9Z" fill="#B5A7D8"/>
<path d="M863.9 0.000579834C872.8 58.6006 881.7 117.301 908.9 168.001C936.2 218.801 981.9 261.701 1033.5 288.401C1085.1 315.101 1142.5 325.601 1200 336.101V0.000579834H863.9Z" fill="#9285C6"/>
<path d="M1032 0C1036.4 29.3 1040.8 58.6 1054.5 84C1068.1 109.4 1091 130.8 1116.7 144.2C1142.5 157.5 1171.3 162.8 1200 168V0H1032Z" fill="#7265B4"/>
<path d="M672.2 750C579.1 676.7 486.1 603.4 441.7 495C397.3 386.6 401.6 243.3 336.1 167.9C270.6 92.5 135.3 85.2 0 77.8V750H672.2Z" fill="#D4C6E9"/>
<path d="M504.1 750C434.3 695 364.5 640 331.3 558.8C298 477.5 301.2 369.9 252.1 313.4C202.9 256.9 101.5 251.4 0 245.9V750H504.1Z" fill="#B5A7D8"/>
<path d="M336.1 750C289.6 713.3 243 676.7 220.8 622.5C198.6 568.3 200.8 496.6 168 458.9C135.3 421.3 67.6 417.6 0 413.9V750H336.1Z" fill="#9285C6"/>
<path d="M168 750C144.8 731.7 121.5 713.3 110.4 686.3C99.3 659.2 100.4 623.3 84 604.5C67.6 585.6 33.8 583.8 0 582V750H168Z" fill="#7265B4"/>
</g>
<defs>
<clipPath id="clip0_668_2583">
<rect width="1200" height="750" fill="white" transform="matrix(1 0 0 -1 0 750)"/>
</clipPath>
</defs>
</svg>
