<svg viewBox="0 0 257 200" fill="none" xmlns="http://www.w3.org/2000/svg">
<path d="M56.1455 4.40234C41.9831 3.10816 29.5279 4.83551 21.1631 10.9961L21.1562 11.001C12.8363 17.1023 7.69429 28.2645 5.39648 42.2422C3.11612 56.1142 3.75665 72.0973 6.36426 86.8887C11.618 116.286 24.5765 140.392 43.082 159.015C61.3131 177.361 84.9173 190.322 112.404 194.528L113.716 194.722C141.87 198.718 174.05 193.668 203.494 175.001L203.499 174.998L204.883 174.111C219.155 164.857 232.591 152.514 241.528 139.684C250.86 126.287 254.706 113.256 251.069 102.783C249.238 97.5095 245.379 92.4354 239.821 87.5098C234.276 82.5952 227.239 78.0048 219.374 73.6533C203.54 64.8925 185.204 57.5338 169.771 50.373C154.48 43.2777 142.757 36.6893 131.777 30.7393C120.785 24.7828 110.508 19.448 97.8604 14.668C85.1616 9.86866 70.1793 5.68481 56.1455 4.40234Z" stroke="#7265B4" stroke-width="8"/>
</svg>
