<svg width="1200" height="229" viewBox="0 0 1200 229" fill="none" xmlns="http://www.w3.org/2000/svg">
<path d="M-163 1.5H1213V228.5C1213 228.5 1165.5 138 1042 91.4995C918.5 44.9995 889.5 198 736.5 119C583.5 39.9995 477.5 156.5 393 149.5C308.5 142.5 122.5 50.5 55 62C-12.5 73.5 0 110.5 -65 101.5C-130 92.5 -163 91.4995 -163 91.4995V1.5Z" fill="#9488B0"/>
<path d="M-138.375 2.5H1237.62V217.5C1237.62 217.5 1190.12 127 1066.62 80.4995C943.125 33.9995 914.125 187 761.125 108C608.125 28.9995 502.125 145.5 417.625 138.5C333.125 131.5 177.625 51 79.625 51C-18.375 51 -18.875 111.5 -83.875 102.5C-148.875 93.5 -138.375 80.4995 -138.375 80.4995V2.5Z" fill="#BDB2D4"/>
<path d="M-114.375 0H1261.62V206.5C1261.62 206.5 1214.12 116 1090.62 69.4995C967.125 22.9995 938.125 176 785.125 96.9995C632.125 17.9995 526.125 134.5 441.625 127.5C357.125 120.5 171.625 40 73.6251 40C-24.3749 40 -59.8751 103 -86.875 103C-113.875 103 -114.375 105.5 -114.375 105.5V0Z" fill="#F0E2F9"/>
</svg>
