<svg width="278" height="75" viewBox="0 0 278 75" fill="none" xmlns="http://www.w3.org/2000/svg">
<path d="M27.5054 17.8336C31.3336 15.6921 40.6098 23.6124 36.5893 25.8608C30.1005 29.4884 24.1408 33.8686 18.7211 39.0453C55.0106 35.9179 88.0754 52.7687 122.859 63.5494C145.206 70.4742 170.897 74.4587 191.638 61.6482C182.869 58.1809 174.719 53.7084 167.849 48.6871C159.673 42.7068 151.608 34.9977 149.535 23.9572C148.195 16.8187 151.278 6.66937 157.535 3.42304C172.753 -4.47305 183.392 2.0536 189.745 15.2065C192.58 11.5207 196.161 8.66764 201.021 7.19623C207.01 5.38489 217.138 4.04704 220.91 11.3434C230.899 30.6757 219.097 48.3253 204.369 59.5066C226.99 67.8592 252.785 66.9705 266.489 43.3988C268.251 40.3661 278.839 40.5361 277.947 42.0706C260.887 71.4163 226.95 73.4729 197.895 63.9185C194.598 65.9216 191.29 67.5897 188.164 68.8669C128.23 93.3637 73.4407 36.0709 14.4142 43.4668C14.1737 43.7315 13.9245 43.9816 13.6862 44.2511C21.8606 48.3885 29.6217 53.3199 37.1009 58.9821C38.4935 60.0359 40.9224 63.5081 38.7252 65.0839C36.4056 66.7471 33.1503 64.5861 31.2658 63.1584C23.1898 57.0421 14.5388 52.1617 5.42872 48.2501C3.97924 47.6285 -1.61755 43.6707 0.455017 41.0873C8.19215 31.4284 17.0967 23.6513 27.5054 17.8336ZM199.141 56.0709C207.805 48.3764 212.936 36.6293 212.534 24.3846C212.318 17.7875 207.838 5.56459 200.278 14.6407C197.237 18.2901 195.621 23.6902 193.958 28.1991C193.112 30.4936 183.074 32.9314 182.377 30.0808C181.028 24.5667 179.537 19.4168 177.25 14.2887C172.648 3.96694 163.261 3.82854 161.216 15.3667C158.833 28.8085 170.388 38.5427 178.967 45.3219C184.539 49.724 191.096 53.7376 198.125 56.9378C198.461 56.644 198.807 56.3696 199.141 56.0709Z" fill="black"/>
</svg>
