<svg width="100" height="100" viewBox="0 0 41 53" fill="none" xmlns="http://www.w3.org/2000/svg">
<path d="M40.6289 17.4722C40.6289 30.4942 26.4427 37.7671 21.5081 46.5946C21.151 47.2336 20.1068 47.2336 19.7497 46.5946C14.8151 37.7671 0.628906 30.4942 0.628906 17.4722C0.628906 7.82279 9.58344 0 20.6289 0C31.6744 0 40.6289 7.82279 40.6289 17.4722Z" fill="#DF6767"/>
<path d="M20.6288 29.3386C28.131 29.3386 34.2127 24.0256 34.2127 17.4716C34.2127 10.9176 28.131 5.60449 20.6288 5.60449C13.1266 5.60449 7.04492 10.9176 7.04492 17.4716C7.04492 24.0256 13.1266 29.3386 20.6288 29.3386Z" fill="white"/>
<path d="M20.6283 26.022C26.0332 26.022 30.4148 22.1942 30.4148 17.4724C30.4148 12.7506 26.0332 8.92285 20.6283 8.92285C15.2234 8.92285 10.8418 12.7506 10.8418 17.4724C10.8418 22.1942 15.2234 26.022 20.6283 26.022Z" fill="#DF6767"/>
<path d="M28.8186 44.3979C27.5115 44.0749 26.1654 43.8951 24.8239 43.773C24.8239 43.773 24.8239 43.773 24.8235 43.773C24.5562 44.1014 24.2989 44.4302 24.053 44.7596C25.9708 45.071 27.8454 45.6527 29.5086 46.4976C29.9266 46.7196 30.8465 47.2897 30.7878 47.7347C30.7247 47.9214 30.6014 48.0268 30.4045 48.1821C30.2733 48.2797 30.1134 48.3759 29.9351 48.467C27.2223 49.8303 20.788 49.9663 17.6023 49.7596C16.113 49.6569 14.6397 49.4771 13.2177 49.1204C12.5468 48.947 11.9148 48.7472 11.3307 48.4527C11.0252 48.2967 10.4461 47.9509 10.4582 47.648C10.5306 47.1938 11.2805 46.7267 11.7377 46.4836C13.3726 45.6653 15.2923 45.1115 17.2311 44.7987C16.9653 44.4414 16.6858 44.0855 16.3952 43.7295C15.0607 43.8594 13.7376 44.0732 12.4359 44.3982C10.6216 44.8833 8.21234 45.7979 8.10066 47.7347C8.05708 49.1344 9.37866 50.1784 10.6348 50.8142C13.5944 52.2747 17.2782 52.7422 20.6273 52.8C24.06 52.82 27.5846 52.3039 30.6115 50.8006C31.8595 50.1597 33.1846 49.132 33.1539 47.7347C33.0581 45.7925 30.6562 44.8596 28.8186 44.3979Z" fill="#DF6767"/>
</svg>
