<svg width="51" height="66" viewBox="0 0 51 66" fill="none" xmlns="http://www.w3.org/2000/svg">
<path d="M50.6289 21.8403C50.6289 38.1177 32.8962 47.2089 26.7279 58.2433C26.2815 59.0419 24.9763 59.0419 24.5299 58.2433C18.3616 47.2089 0.628906 38.1177 0.628906 21.8403C0.628906 9.77848 11.8221 0 25.6289 0C39.4357 0 50.6289 9.77848 50.6289 21.8403Z" fill="#DF6767"/>
<path d="M25.6283 36.6735C35.0061 36.6735 42.6082 30.0322 42.6082 21.8397C42.6082 13.6472 35.0061 7.00586 25.6283 7.00586C16.2506 7.00586 8.64844 13.6472 8.64844 21.8397C8.64844 30.0322 16.2506 36.6735 25.6283 36.6735Z" fill="white"/>
<path d="M25.6276 32.5273C32.3838 32.5273 37.8607 27.7426 37.8607 21.8403C37.8607 15.938 32.3838 11.1533 25.6276 11.1533C18.8715 11.1533 13.3945 15.938 13.3945 21.8403C13.3945 27.7426 18.8715 32.5273 25.6276 32.5273Z" fill="#DF6767"/>
<path d="M35.8656 55.4976C34.2316 55.0939 32.549 54.8691 30.8722 54.7165C30.8722 54.7165 30.8722 54.7165 30.8717 54.7165C30.5375 55.127 30.216 55.538 29.9086 55.9498C32.3058 56.339 34.649 57.0661 36.7281 58.1222C37.2505 58.3997 38.4005 59.1124 38.327 59.6686C38.2482 59.902 38.094 60.0337 37.8479 60.2279C37.6839 60.3498 37.484 60.4701 37.2612 60.584C33.8702 62.2881 25.8273 62.4581 21.8452 62.1997C19.9836 62.0714 18.1419 61.8466 16.3644 61.4008C15.5258 61.1841 14.7358 60.9342 14.0056 60.5662C13.6238 60.3711 12.8999 59.9389 12.915 59.5603C13.0055 58.9925 13.9429 58.4086 14.5145 58.1048C16.558 57.0819 18.9577 56.3896 21.3811 55.9986C21.0489 55.552 20.6996 55.1071 20.3362 54.6621C18.6682 54.8244 17.0143 55.0918 15.3871 55.498C13.1193 56.1044 10.1077 57.2476 9.96811 59.6686C9.91364 61.4182 11.5656 62.7233 13.1358 63.518C16.8353 65.3436 21.44 65.9279 25.6264 66.0002C29.9173 66.0253 34.3231 65.3802 38.1067 63.501C39.6667 62.6999 41.3231 61.4152 41.2846 59.6686C41.1649 57.2408 38.1626 56.0747 35.8656 55.4976Z" fill="#DF6767"/>
</svg>
