<svg viewBox="0 0 600 750" fill="none" xmlns="http://www.w3.org/2000/svg">
<path d="M567.507 108.294C557.628 113.888 554.115 116.599 555.872 117.955C557.408 119.142 562.457 117.616 572.556 112.193C585.727 105.413 588.581 102.362 583.312 101.006C582.215 100.837 575.19 104.057 567.507 108.294Z" fill="white"/>
<path d="M516.139 132.024C505.821 135.923 501.65 138.465 502.528 140.16C503.626 142.194 505.162 142.194 512.846 139.651C527.115 134.906 536.335 130.329 535.676 128.634C534.359 125.584 530.847 126.092 516.139 132.024Z" fill="white"/>
<path d="M462.354 149.481C450.06 152.871 446.328 154.566 446.328 156.939C446.328 158.803 447.426 159.82 449.182 159.481C450.499 158.973 458.402 156.939 466.744 154.736C479.696 151.176 484.965 147.786 479.916 145.922C478.818 145.583 470.915 147.108 462.354 149.481Z" fill="white"/>
<path d="M400.885 162.024C389.25 163.38 387.055 164.227 387.055 166.939C387.055 169.651 388.152 170.16 392.104 169.482C394.738 168.973 402.641 167.617 409.666 166.6C417.788 165.414 422.179 163.888 422.179 162.193C422.179 159.482 420.642 159.482 400.885 162.024Z" fill="white"/>
<path d="M266.316 169.989C266.316 173.379 267.414 173.549 284.318 173.04C299.685 172.532 302.538 172.023 303.197 169.481C303.856 166.939 301.88 166.6 285.196 166.6C267.634 166.6 266.316 166.769 266.316 169.989Z" fill="white"/>
<path d="M327.785 170.159C327.785 173.718 328.444 173.887 341.176 172.701C348.64 172.193 356.543 171.684 358.738 171.684C361.153 171.684 362.909 170.498 362.909 169.142C362.909 167.108 359.397 166.599 345.347 166.599C328.883 166.599 327.785 166.769 327.785 170.159Z" fill="white"/>
<path d="M230.093 169.142C228.996 169.481 223.288 170.159 217.58 170.836C210.555 171.514 207.043 172.701 207.043 174.396C207.043 177.277 210.116 177.277 228.337 174.904C237.557 173.718 242.167 172.192 242.167 170.667C242.167 168.464 235.581 167.616 230.093 169.142Z" fill="white"/>
<path d="M167.531 183.719C160.945 186.431 154.139 189.821 152.383 191.177C146.236 195.923 155.676 195.923 165.335 191.177C170.165 188.804 176.751 186.092 179.605 185.245C183.117 184.228 184.654 182.702 183.776 181.008C182.019 177.618 181.58 177.618 167.531 183.719Z" fill="white"/>
<path d="M122.748 214.397C118.577 219.312 114.625 225.075 113.747 227.108C111.552 233.21 118.577 232.024 122.748 225.414C124.724 222.532 128.675 217.448 131.748 214.397C136.798 209.312 137.017 205.583 132.407 205.583C131.09 205.583 126.919 209.651 122.748 214.397Z" fill="white"/>
<path d="M108.474 257.617C108.913 270.159 111.108 275.752 115.719 276.43C119.011 276.939 119.67 276.43 118.353 273.21C117.694 271.007 116.377 264.736 115.499 259.312C114.621 252.871 113.304 249.651 111.328 249.651C109.133 249.651 108.255 252.024 108.474 257.617Z" fill="white"/>
<path d="M123.625 295.922C123.625 298.633 135.479 312.701 140.09 315.752C141.846 316.769 144.261 317.277 145.358 316.6C146.675 316.091 143.821 311.176 138.333 304.735C129.552 294.566 123.625 291.006 123.625 295.922Z" fill="white"/>
<path d="M161.822 329.482C160.066 331.685 164.895 334.905 180.701 341.685C190.8 346.092 191.897 346.261 193.214 343.55C194.092 341.855 193.653 340.329 192.336 339.99C191.019 339.651 184.433 336.77 177.408 333.55C162.92 326.77 163.798 326.939 161.822 329.482Z" fill="white"/>
<path d="M215.824 352.023C215.824 353.379 221.093 355.413 230.093 357.108C246.997 360.328 250.949 360.498 250.949 357.616C250.949 356.43 244.802 354.226 236.24 352.532C218.239 348.972 215.824 348.972 215.824 352.023Z" fill="white"/>
<path d="M275.098 360.328C275.098 363.548 281.683 364.904 297.709 364.904C307.368 364.904 310.222 364.396 310.222 362.362C310.222 360.498 307.807 359.82 301.002 359.82C295.733 359.82 287.83 359.311 283.44 358.803C276.854 357.955 275.098 358.294 275.098 360.328Z" fill="white"/>
<path d="M334.371 362.362C334.371 364.396 337.884 364.904 353.031 364.904C368.178 364.904 371.691 364.396 371.691 362.362C371.691 360.328 368.178 359.82 353.031 359.82C337.884 359.82 334.371 360.328 334.371 362.362Z" fill="white"/>
<path d="M395.84 363.378C395.84 366.26 397.596 366.599 413.182 366.599C423.281 366.599 431.403 365.751 432.062 364.734C434.257 362.192 433.818 362.022 414.061 361.005C397.157 360.158 395.84 360.327 395.84 363.378Z" fill="white"/>
<path d="M455.769 365.921C454.232 369.141 453.354 368.802 473.331 371.853C487.82 374.057 490.893 374.057 491.771 372.192C493.527 368.972 493.308 368.802 474.209 366.091C459.281 363.887 456.866 363.887 455.769 365.921Z" fill="white"/>
<path d="M515.701 376.261C512.628 378.804 514.823 381.685 521.628 383.38C525.36 384.566 532.166 387.278 536.556 389.482C544.459 393.38 547.313 393.38 547.313 389.482C547.313 386.939 517.897 374.736 515.701 376.261Z" fill="white"/>
<path d="M565.532 402.363C563.337 404.058 564.435 405.922 570.581 411.007C574.752 414.736 579.362 419.481 580.68 421.854C583.314 426.091 585.729 426.939 587.924 424.227C589.68 422.024 584.411 414.566 575.411 406.769C569.703 401.685 567.508 400.668 565.532 402.363Z" fill="white"/>
<path d="M594.509 442.532C590.997 444.396 590.997 469.989 594.509 469.989C598.68 469.989 599.998 465.921 599.998 453.888C599.998 443.21 598.461 440.328 594.509 442.532Z" fill="white"/>
<path d="M573.877 498.125C567.731 505.413 565.096 509.82 566.413 510.837C567.95 512.023 571.023 510.328 575.194 506.091C586.61 494.904 590.561 486.938 584.634 486.938C583.976 486.938 579.146 492.023 573.877 498.125Z" fill="white"/>
<path d="M530.848 529.48C523.604 533.209 517.896 536.598 518.116 537.107C518.335 537.446 518.774 538.802 519.213 539.819C519.872 541.005 526.458 538.632 536.117 533.887C544.678 529.48 551.264 525.073 550.606 524.226C548.41 521.514 544.678 522.531 530.848 529.48Z" fill="white"/>
<path d="M485.843 546.26C482.77 547.108 476.184 548.633 471.135 549.65C465.427 550.667 461.695 552.532 461.695 553.888C461.695 557.277 464.988 557.108 482.331 553.04C491.551 550.837 496.82 548.633 496.82 547.108C496.82 544.227 493.966 544.057 485.843 546.26Z" fill="white"/>
<path d="M416.256 555.922C404.182 556.43 402.426 557.108 402.426 559.989C402.426 562.871 403.523 563.21 415.158 562.193C421.964 561.684 429.867 561.006 432.721 560.498C438.428 559.65 439.306 554.566 433.818 555.074C431.623 555.244 423.72 555.583 416.256 555.922Z" fill="white"/>
<path d="M221.533 557.784C218.679 561.513 224.387 562.699 240.632 561.852C252.925 561.343 257.535 560.496 257.535 558.801C257.535 556.937 253.364 556.428 240.192 556.428C230.533 556.428 222.191 557.106 221.533 557.784Z" fill="white"/>
<path d="M281.684 558.971C281.684 560.835 284.098 561.513 291.123 561.513C296.172 561.513 304.075 562.022 308.685 562.53C315.93 563.547 316.808 563.208 316.808 559.988C316.808 556.598 315.71 556.429 299.246 556.429C285.196 556.429 281.684 556.937 281.684 558.971Z" fill="white"/>
<path d="M343.152 560.667C343.152 562.701 346.665 563.209 360.715 563.209C374.764 563.209 378.277 562.701 378.277 560.667C378.277 558.633 374.764 558.124 360.715 558.124C346.665 558.124 343.152 558.633 343.152 560.667Z" fill="white"/>
<path d="M181.8 561.006C164.897 564.057 160.945 565.243 160.945 567.616C160.945 569.65 162.262 570.159 165.994 569.481C168.629 568.972 176.971 567.616 184.435 566.599C194.313 565.074 197.606 563.887 196.728 562.192C195.631 559.82 190.362 559.481 181.8 561.006Z" fill="white"/>
<path d="M119.893 576.769C111.77 579.65 106.062 582.701 106.062 584.396C106.062 585.752 106.941 586.938 108.258 586.938C113.087 586.938 138.992 575.922 138.992 573.888C138.992 570.498 134.821 571.176 119.893 576.769Z" fill="white"/>
<path d="M73.5694 601.513C63.2516 608.293 59.0806 613.208 61.2759 615.92C62.154 617.107 67.8617 613.886 75.5452 607.954C86.9606 599.31 89.5949 595.412 84.3262 595.412C83.4481 595.412 78.6185 598.124 73.5694 601.513Z" fill="white"/>
<path d="M39.5486 633.208C37.7924 635.242 33.8409 640.835 30.7675 645.75C25.9379 652.869 25.4989 654.564 28.1332 655.411C30.3284 656.089 32.9628 654.055 36.0362 649.14C38.6705 645.242 42.622 639.988 44.8172 637.445C49.8664 632.191 49.8664 631.683 45.9149 630.496C44.1587 629.988 41.3048 631.174 39.5486 633.208Z" fill="white"/>
<path d="M13.6406 678.801C10.3477 688.123 9.90863 699.14 12.982 699.987C14.9577 700.496 20.2264 685.411 21.1045 676.089C21.9826 669.479 16.2749 671.513 13.6406 678.801Z" fill="white"/>
<path id="dot1" d="M144.5 555.75C156.562 555.75 166.25 564.864 166.25 576C166.25 587.136 156.562 596.25 144.5 596.25C132.438 596.25 122.75 587.136 122.75 576C122.75 564.864 132.438 555.75 144.5 555.75Z" fill="#C0CBC3" stroke="white" stroke-width="1.5" transform-origin="center"
  transform-box="fill-box"/>
<path id="dot2" d="M280.5 147.75C292.562 147.75 302.25 156.864 302.25 168C302.25 179.136 292.562 188.25 280.5 188.25C268.438 188.25 258.75 179.136 258.75 168C258.75 156.864 268.438 147.75 280.5 147.75Z" fill="#7265B4" stroke="white" stroke-width="1.5"/>
<path id="dot3" d="M419.5 343.75C431.562 343.75 441.25 352.864 441.25 364C441.25 375.136 431.562 384.25 419.5 384.25C407.438 384.25 397.75 375.136 397.75 364C397.75 352.864 407.438 343.75 419.5 343.75Z" fill="#BFA4D1" stroke="white" stroke-width="1.5"/>

</svg>
