<svg width="590" height="599" viewBox="0 0 590 599" fill="none" xmlns="http://www.w3.org/2000/svg">
<path d="M557.508 7.29432C547.63 12.8875 544.117 15.5994 545.874 16.9553C547.41 18.1417 552.459 16.6163 562.558 11.1926C575.729 4.41298 578.583 1.36214 573.314 0.00621223C572.217 -0.163279 565.192 3.05705 557.508 7.29432Z" fill="black"/>
<path d="M506.142 31.0242C495.825 34.9225 491.654 37.4649 492.532 39.1598C493.629 41.1937 495.166 41.1937 502.85 38.6513C517.119 33.9056 526.339 29.3293 525.68 27.6344C524.363 24.5836 520.851 25.092 506.142 31.0242Z" fill="black"/>
<path d="M452.358 48.4813C440.064 51.8712 436.332 53.5661 436.332 55.9389C436.332 57.8033 437.43 58.8203 439.186 58.4813C440.503 57.9728 448.406 55.9389 456.748 53.7356C469.7 50.1763 474.969 46.7864 469.92 44.922C468.822 44.583 460.919 46.1085 452.358 48.4813Z" fill="black"/>
<path d="M390.889 61.024C379.254 62.3799 377.059 63.2274 377.059 65.9392C377.059 68.6511 378.156 69.1596 382.108 68.4816C384.742 67.9731 392.645 66.6172 399.67 65.6002C407.792 64.4138 412.183 62.8884 412.183 61.1935C412.183 58.4816 410.646 58.4816 390.889 61.024Z" fill="black"/>
<path d="M256.316 68.9895C256.316 72.3793 257.414 72.5488 274.318 72.0403C289.685 71.5318 292.538 71.0234 293.197 68.481C293.856 65.9386 291.88 65.5996 275.196 65.5996C257.634 65.5996 256.316 65.7691 256.316 68.9895Z" fill="black"/>
<path d="M317.787 69.1587C317.787 72.718 318.446 72.8875 331.178 71.701C338.642 71.1926 346.545 70.6841 348.74 70.6841C351.155 70.6841 352.911 69.4976 352.911 68.1417C352.911 66.1078 349.399 65.5993 335.349 65.5993C318.885 65.5993 317.787 65.7688 317.787 69.1587Z" fill="black"/>
<path d="M220.095 68.1416C218.998 68.4806 213.29 69.1585 207.582 69.8365C200.557 70.5145 197.045 71.7009 197.045 73.3958C197.045 76.2772 200.118 76.2772 218.339 73.9043C227.559 72.7178 232.169 71.1924 232.169 69.667C232.169 67.4636 225.583 66.6162 220.095 68.1416Z" fill="black"/>
<path d="M157.533 82.7194C150.947 85.4313 144.141 88.8211 142.385 90.177C136.238 94.9228 145.678 94.9228 155.337 90.177C160.167 87.8041 166.753 85.0923 169.606 84.2448C173.119 83.2279 174.656 81.7025 173.778 80.0076C172.021 76.6177 171.582 76.6177 157.533 82.7194Z" fill="black"/>
<path d="M112.75 113.397C108.579 118.312 104.627 124.075 103.749 126.108C101.554 132.21 108.579 131.024 112.75 124.414C114.726 121.532 118.677 116.448 121.75 113.397C126.8 108.312 127.019 104.583 122.409 104.583C121.092 104.583 116.921 108.651 112.75 113.397Z" fill="black"/>
<path d="M98.4761 156.617C98.9151 169.159 101.11 174.752 105.72 175.43C109.013 175.939 109.672 175.43 108.355 172.21C107.696 170.007 106.379 163.736 105.501 158.312C104.623 151.871 103.306 148.651 101.33 148.651C99.1347 148.651 98.2565 151.024 98.4761 156.617Z" fill="black"/>
<path d="M113.627 194.922C113.627 197.633 125.481 211.701 130.091 214.752C131.848 215.769 134.262 216.277 135.36 215.6C136.677 215.091 133.823 210.176 128.335 203.735C119.554 193.566 113.627 190.006 113.627 194.922Z" fill="black"/>
<path d="M151.824 228.482C150.068 230.685 154.897 233.905 170.703 240.685C180.801 245.092 181.899 245.261 183.216 242.55C184.094 240.855 183.655 239.329 182.338 238.99C181.021 238.651 174.435 235.77 167.41 232.55C152.922 225.77 153.8 225.939 151.824 228.482Z" fill="black"/>
<path d="M205.826 251.023C205.826 252.379 211.095 254.413 220.095 256.108C236.999 259.328 240.951 259.498 240.951 256.616C240.951 255.43 234.804 253.226 226.242 251.532C208.241 247.972 205.826 247.972 205.826 251.023Z" fill="black"/>
<path d="M265.102 259.328C265.102 262.548 271.687 263.904 287.713 263.904C297.372 263.904 300.226 263.396 300.226 261.362C300.226 259.498 297.811 258.82 291.006 258.82C285.737 258.82 277.834 258.311 273.444 257.803C266.858 256.955 265.102 257.294 265.102 259.328Z" fill="black"/>
<path d="M324.373 261.362C324.373 263.396 327.885 263.904 343.033 263.904C358.18 263.904 361.693 263.396 361.693 261.362C361.693 259.328 358.18 258.82 343.033 258.82C327.885 258.82 324.373 259.328 324.373 261.362Z" fill="black"/>
<path d="M385.842 262.378C385.842 265.26 387.598 265.599 403.184 265.599C413.283 265.599 421.405 264.751 422.064 263.734C424.259 261.192 423.82 261.022 404.063 260.005C387.159 259.158 385.842 259.327 385.842 262.378Z" fill="black"/>
<path d="M445.771 264.921C444.234 268.141 443.356 267.802 463.333 270.853C477.821 273.057 480.895 273.057 481.773 271.192C483.529 267.972 483.31 267.802 464.211 265.091C449.283 262.887 446.868 262.887 445.771 264.921Z" fill="black"/>
<path d="M505.703 275.261C502.63 277.804 504.825 280.685 511.63 282.38C515.362 283.566 522.168 286.278 526.558 288.482C534.461 292.38 537.315 292.38 537.315 288.482C537.315 285.939 507.898 273.736 505.703 275.261Z" fill="black"/>
<path d="M555.532 301.363C553.337 303.058 554.435 304.922 560.581 310.007C564.752 313.736 569.362 318.481 570.68 320.854C573.314 325.091 575.729 325.939 577.924 323.227C579.68 321.024 574.411 313.566 565.411 305.769C559.703 300.685 557.508 299.668 555.532 301.363Z" fill="black"/>
<path d="M584.511 341.532C580.999 343.396 580.999 368.989 584.511 368.989C588.682 368.989 589.999 364.921 589.999 352.888C589.999 342.21 588.463 339.328 584.511 341.532Z" fill="black"/>
<path d="M563.877 397.125C557.731 404.413 555.096 408.82 556.413 409.837C557.95 411.023 561.023 409.328 565.194 405.091C576.61 393.904 580.561 385.938 574.634 385.938C573.976 385.938 569.146 391.023 563.877 397.125Z" fill="black"/>
<path d="M520.848 428.48C513.604 432.209 507.896 435.598 508.116 436.107C508.335 436.446 508.774 437.802 509.213 438.819C509.872 440.005 516.458 437.632 526.117 432.887C534.678 428.48 541.264 424.073 540.606 423.226C538.41 420.514 534.678 421.531 520.848 428.48Z" fill="black"/>
<path d="M475.847 445.26C472.774 446.108 466.188 447.633 461.139 448.65C455.431 449.667 451.699 451.532 451.699 452.888C451.699 456.277 454.992 456.108 472.335 452.04C481.555 449.837 486.824 447.633 486.824 446.108C486.824 443.227 483.97 443.057 475.847 445.26Z" fill="black"/>
<path d="M406.258 454.922C394.184 455.43 392.428 456.108 392.428 458.989C392.428 461.871 393.525 462.21 405.16 461.193C411.966 460.684 419.869 460.006 422.722 459.498C428.43 458.65 429.308 453.566 423.82 454.074C421.625 454.244 413.722 454.583 406.258 454.922Z" fill="black"/>
<path d="M211.535 456.784C208.681 460.513 214.388 461.699 230.634 460.852C242.927 460.343 247.537 459.496 247.537 457.801C247.537 455.937 243.366 455.428 230.194 455.428C220.535 455.428 212.193 456.106 211.535 456.784Z" fill="black"/>
<path d="M271.688 457.971C271.688 459.835 274.102 460.513 281.127 460.513C286.176 460.513 294.079 461.022 298.689 461.53C305.934 462.547 306.812 462.208 306.812 458.988C306.812 455.598 305.714 455.429 289.25 455.429C275.2 455.429 271.688 455.937 271.688 457.971Z" fill="black"/>
<path d="M333.154 459.667C333.154 461.701 336.667 462.209 350.716 462.209C364.766 462.209 368.279 461.701 368.279 459.667C368.279 457.633 364.766 457.124 350.716 457.124C336.667 457.124 333.154 457.633 333.154 459.667Z" fill="black"/>
<path d="M171.8 460.006C154.897 463.057 150.945 464.243 150.945 466.616C150.945 468.65 152.262 469.159 155.994 468.481C158.629 467.972 166.971 466.616 174.435 465.599C184.313 464.074 187.606 462.887 186.728 461.192C185.631 458.82 180.362 458.481 171.8 460.006Z" fill="black"/>
<path d="M109.895 475.769C101.772 478.65 96.0645 481.701 96.0645 483.396C96.0645 484.752 96.9426 485.938 98.2597 485.938C103.089 485.938 128.994 474.922 128.994 472.888C128.994 469.498 124.823 470.176 109.895 475.769Z" fill="black"/>
<path d="M63.5714 500.513C53.2536 507.293 49.0826 512.208 51.2779 514.92C52.156 516.107 57.8637 512.886 65.5471 506.954C76.9625 498.31 79.5968 494.412 74.3282 494.412C73.4501 494.412 68.6205 497.124 63.5714 500.513Z" fill="black"/>
<path d="M29.5486 532.208C27.7924 534.242 23.8409 539.835 20.7675 544.75C15.9379 551.869 15.4989 553.564 18.1332 554.411C20.3284 555.089 22.9628 553.055 26.0362 548.14C28.6705 544.242 32.622 538.988 34.8172 536.445C39.8664 531.191 39.8664 530.683 35.9149 529.496C34.1587 528.988 31.3048 530.174 29.5486 532.208Z" fill="black"/>
<path d="M3.64254 577.801C0.349634 587.123 -0.08942 598.14 2.98396 598.987C4.9597 599.496 10.2284 584.411 11.1065 575.089C11.9846 568.479 6.27687 570.513 3.64254 577.801Z" fill="black"/>
</svg>
