<svg width="1200" height="178" viewBox="0 0 1200 178" fill="none" xmlns="http://www.w3.org/2000/svg">
<path d="M1338.62 176H-37.375V-51C-37.375 -51 10.125 39.5005 133.625 86.0005C257.125 132.5 286.125 -20.4995 439.125 58.5005C592.125 137.5 698.125 21 782.625 28C867.125 35 1053.12 127 1120.62 115.5C1188.12 104 1175.62 67 1240.62 76C1305.62 85 1338.62 86.0005 1338.62 86.0005V176Z" fill="#E4BCFE"/>
<path d="M1314 175H-62V-40C-62 -40 -14.5 50.5005 109 97.0005C232.5 143.5 261.5 -9.49953 414.5 69.5005C567.5 148.5 673.5 32 758 39C842.5 46 998 126.5 1096 126.5C1194 126.5 1194.5 66 1259.5 75C1324.5 84 1314 97.0005 1314 97.0005V175Z" fill="#ECD1FE"/>
<path d="M1290 177.5H-86V-29C-86 -29 -38.5 61.5005 85 108C208.5 154.5 237.5 1.50047 390.5 80.5005C543.5 159.5 649.5 43 734 50C818.5 57 1004 137.5 1102 137.5C1200 137.5 1235.5 74.5 1262.5 74.5C1289.5 74.5 1290 72 1290 72V177.5Z" fill="#F0E2F9"/>
</svg>
