<svg  viewBox="0 0 1200 750" fill="none" xmlns="http://www.w3.org/2000/svg">
<g clip-path="url(#clip0_668_2542)">
<path d="M1200 380L1171.5 383.3C1143 386.7 1086 393.3 1028.8 388.2C971.7 383 914.3 366 857.2 374.2C800 382.3 743 415.7 685.8 429.8C628.7 444 571.3 439 514.2 422.5C457 406 400 378 342.8 378C285.7 378 228.3 406 171.2 419.7C114 433.3 57 432.7 28.5 432.3L0 432V144H28.5C57 144 114 144 171.2 144C228.3 144 285.7 144 342.8 144C400 144 457 144 514.2 144C571.3 144 628.7 144 685.8 144C743 144 800 144 857.2 144C914.3 144 971.7 144 1028.8 144C1086 144 1143 144 1171.5 144H1200V380Z" fill="#9488B0"/>
<path d="M1200 393L1171.5 384.5C1143 376 1086 359 1028.8 343.7C971.7 328.3 914.3 314.7 857.2 314.2C800 313.7 743 326.3 685.8 336.2C628.7 346 571.3 353 514.2 352.3C457 351.7 400 343.3 342.8 341.2C285.7 339 228.3 343 171.2 352.7C114 362.3 57 377.7 28.5 385.3L0 393V144H28.5C57 144 114 144 171.2 144C228.3 144 285.7 144 342.8 144C400 144 457 144 514.2 144C571.3 144 628.7 144 685.8 144C743 144 800 144 857.2 144C914.3 144 971.7 144 1028.8 144C1086 144 1143 144 1171.5 144H1200V393Z" fill="#AB9EC2"/>
<path d="M1200 336L1171.5 327.5C1143 319 1086 302 1028.8 294.5C971.7 287 914.3 289 857.2 296.8C800 304.7 743 318.3 685.8 314.8C628.7 311.3 571.3 290.7 514.2 283.5C457 276.3 400 282.7 342.8 294.2C285.7 305.7 228.3 322.3 171.2 317C114 311.7 57 284.3 28.5 270.7L0 257V144H28.5C57 144 114 144 171.2 144C228.3 144 285.7 144 342.8 144C400 144 457 144 514.2 144C571.3 144 628.7 144 685.8 144C743 144 800 144 857.2 144C914.3 144 971.7 144 1028.8 144C1086 144 1143 144 1171.5 144H1200V336Z" fill="#C2B4D4"/>
<path d="M1200 255L1171.5 254.8C1143 254.7 1086 254.3 1028.8 249C971.7 243.7 914.3 233.3 857.2 236.7C800 240 743 257 685.8 261.8C628.7 266.7 571.3 259.3 514.2 252.3C457 245.3 400 238.7 342.8 242.2C285.7 245.7 228.3 259.3 171.2 259C114 258.7 57 244.3 28.5 237.2L0 230V144H28.5C57 144 114 144 171.2 144C228.3 144 285.7 144 342.8 144C400 144 457 144 514.2 144C571.3 144 628.7 144 685.8 144C743 144 800 144 857.2 144C914.3 144 971.7 144 1028.8 144C1086 144 1143 144 1171.5 144H1200V255Z" fill="#D9CBE6"/>
<path d="M1200 223L1171.5 216.8C1143 210.7 1086 198.3 1028.8 196.5C971.7 194.7 914.3 203.3 857.2 201.2C800 199 743 186 685.8 182C628.7 178 571.3 183 514.2 186C457 189 400 190 342.8 196.5C285.7 203 228.3 215 171.2 214C114 213 57 199 28.5 192L0 185V137H28.5C57 137 114 137 171.2 137C228.3 137 285.7 137 342.8 137C400 137 457 137 514.2 137C571.3 137 628.7 137 685.8 137C743 137 800 137 857.2 137C914.3 137 971.7 137 1028.8 137C1086 137 1143 137 1171.5 137H1200V223Z" fill="#F0E2F9"/>
<path d="M0 102L28.5 107.047C57 112.012 114 122.105 171.2 123.57C228.3 125.035 285.7 118.035 342.8 119.744C400 121.535 457 132.116 514.2 135.372C571.3 138.628 628.7 134.558 685.8 132.116C743 129.674 800 128.86 857.2 123.57C914.3 118.279 971.7 108.512 1028.8 109.326C1086 110.14 1143 121.535 1171.5 127.233L1200 132.93V172H1171.5C1143 172 1086 172 1028.8 172C971.7 172 914.3 172 857.2 172C800 172 743 172 685.8 172C628.7 172 571.3 172 514.2 172C457 172 400 172 342.8 172C285.7 172 228.3 172 171.2 172C114 172 57 172 28.5 172H0V102Z" fill="#F0E2F9"/>
</g>
<defs>
<clipPath id="clip0_668_2542">
<rect width="1200" height="750" fill="white" transform="matrix(-1 0 0 -1 1200 750)"/>
</clipPath>
</defs>
</svg>
