<svg viewBox="0 0 5000 1000" fill="none" xmlns="http://www.w3.org/2000/svg">
<g clip-path="url(#clip0_767_4273)">
<path d="M5010 1010V808.844L5000.88 808.039L4881.88 797.539C4762.91 787.042 4523.97 765.935 4284.64 793.867L4284.64 793.868C4165.03 807.884 4045.4 834.125 3926.42 859.381C3807.26 884.677 3688.68 909 3570.31 919.539C3333.63 940.604 3096.81 906.45 2859.35 849.08C2622.66 791.897 2382.33 710.586 2142.32 727.023C2022.19 735.251 1902.19 767.973 1783.45 798.91C1664.32 829.952 1546.35 859.23 1428.59 861.702C1310.9 864.174 1192.87 839.855 1073.67 813.302C954.871 786.836 834.766 758.107 714.641 752.81C474.28 742.214 234.573 825.304 115.735 866.348L115.729 866.351L-3.27148 907.551L-10 909.88V1010H5010Z" fill="#F0E2F9" stroke="#9488B0" stroke-width="20"/>
</g>
<defs>
<clipPath id="clip0_767_4273">
<rect width="5000" height="1000" fill="white" transform="matrix(1 0 0 -1 0 1000)"/>
</clipPath>
</defs>
</svg>
