<svg viewBox="0 0 5112 567" fill="none" xmlns="http://www.w3.org/2000/svg">
<path d="M5092 540.699L4999.3 450.399C4906.7 359.999 4721.3 179.399 4536.2 136.899C4351 94.3992 4166 189.999 3980.8 179.199C3795.7 168.399 3630.6 80 3445.5 83.5C3260.3 87 3055 182.399 2869.8 198.899C2684.7 215.399 2500.6 147.5 2315.5 83.5C2130.3 19.5 1965.7 -7.10079 1780.5 59.9992C1595.4 127.199 1388.3 264.699 1203.2 236.199C1018 207.699 847.7 79 662.5 60.5C477.4 42 329.1 182.199 236.5 277.699L20.5 546.199" fill="#F0E2F9"/>
<path d="M5092 540.699L4999.3 450.399C4906.7 359.999 4721.3 179.399 4536.2 136.899C4351 94.3992 4166 189.999 3980.8 179.199C3795.7 168.399 3630.6 80 3445.5 83.5C3260.3 87 3055 182.399 2869.8 198.899C2684.7 215.399 2500.6 147.5 2315.5 83.5C2130.3 19.5 1965.7 -7.10079 1780.5 59.9992C1595.4 127.199 1388.3 264.699 1203.2 236.199C1018 207.699 847.7 79 662.5 60.5C477.4 42 329.1 182.199 236.5 277.699L20.5 546.199" stroke="#9488B0" stroke-width="40" stroke-linecap="round"/>
</svg>
