<svg viewBox="0 0 5000 288" fill="none" xmlns="http://www.w3.org/2000/svg">
<path d="M5010 298.999H-10V195.879L-3.27148 193.55L115.729 152.35L115.735 152.347C234.573 111.303 474.28 28.2134 714.641 38.8086C834.766 44.106 954.871 72.8347 1073.67 99.3008C1192.87 125.854 1310.9 150.173 1428.59 147.701C1546.35 145.229 1664.32 115.952 1783.45 84.9102C1902.19 53.973 2022.19 21.2499 2142.32 13.0225C2382.33 -3.41546 2622.66 77.896 2859.35 135.079C3096.81 192.449 3333.63 226.604 3570.31 205.539C3688.68 195 3807.26 170.676 3926.42 145.38C4045.4 120.124 4165.03 93.8827 4284.64 79.8672H4284.64C4523.97 51.9348 4762.91 73.0407 4881.88 83.5381L5000.88 94.0381L5010 94.8428V298.999Z" fill="#f0e2f9" stroke="#9488B0" stroke-width="20"/>
</svg>
