<svg viewBox="0 0 5000 1000" fill="none" xmlns="http://www.w3.org/2000/svg">
<g clip-path="url(#clip0_737_2559)">
<path d="M5010 -10V191.156L5000.88 191.961L4881.88 202.461C4762.91 212.958 4523.97 234.065 4284.64 206.133L4284.64 206.132C4165.03 192.116 4045.4 165.875 3926.42 140.619C3807.26 115.323 3688.68 91.0005 3570.31 80.4609C3333.63 59.3956 3096.81 93.5497 2859.35 150.92C2622.66 208.103 2382.33 289.414 2142.32 272.977C2022.19 264.749 1902.19 232.027 1783.45 201.09C1664.32 170.048 1546.35 140.77 1428.59 138.298C1310.9 135.826 1192.87 160.145 1073.67 186.698C954.871 213.164 834.766 241.893 714.641 247.19C474.28 257.786 234.573 174.696 115.735 133.652L115.729 133.649L-3.27148 92.4492L-10 90.1201V-10H5010Z" fill="#f0e2f9" stroke="#9488B0" stroke-width="20"/>
</g>
<defs>
<clipPath id="clip0_737_2559">
<rect width="5000" height="1000" fill="white"/>
</clipPath>
</defs>
</svg>
