<svg  viewBox="0 0 1200 750" fill="none" xmlns="http://www.w3.org/2000/svg">
<g clip-path="url(#clip0_668_2542)">
<path d="M1200 235L1171.5 238.3C1143 241.7 1086 248.3 1028.8 243.2C971.7 238 914.3 221 857.2 229.2C800 237.3 743 270.7 685.8 284.8C628.7 299 571.3 294 514.2 277.5C457 261 400 233 342.8 233C285.7 233 228.3 261 171.2 274.7C114 288.3 57 287.7 28.5 287.3L0 287V-0.999847H28.5C57 -0.999847 114 -0.999847 171.2 -0.999847C228.3 -0.999847 285.7 -0.999847 342.8 -0.999847C400 -0.999847 457 -0.999847 514.2 -0.999847C571.3 -0.999847 628.7 -0.999847 685.8 -0.999847C743 -0.999847 800 -0.999847 857.2 -0.999847C914.3 -0.999847 971.7 -0.999847 1028.8 -0.999847C1086 -0.999847 1143 -0.999847 1171.5 -0.999847H1200V235Z" fill="#9488B0"/>
<path d="M1200 248L1171.5 239.5C1143 231 1086 214 1028.8 198.7C971.7 183.3 914.3 169.7 857.2 169.2C800 168.7 743 181.3 685.8 191.2C628.7 201 571.3 208 514.2 207.3C457 206.7 400 198.3 342.8 196.2C285.7 194 228.3 198 171.2 207.7C114 217.3 57 232.7 28.5 240.3L0 248V-1H28.5C57 -1 114 -1 171.2 -1C228.3 -1 285.7 -1 342.8 -1C400 -1 457 -1 514.2 -1C571.3 -1 628.7 -1 685.8 -1C743 -1 800 -1 857.2 -1C914.3 -1 971.7 -1 1028.8 -1C1086 -1 1143 -1 1171.5 -1H1200V248Z" fill="#AB9EC2"/>
<path d="M1200 191L1171.5 182.5C1143 174 1086 157 1028.8 149.5C971.7 142 914.3 144 857.2 151.8C800 159.7 743 173.3 685.8 169.8C628.7 166.3 571.3 145.7 514.2 138.5C457 131.3 400 137.7 342.8 149.2C285.7 160.7 228.3 177.3 171.2 172C114 166.7 57 139.3 28.5 125.7L0 112V-1H28.5C57 -1 114 -1 171.2 -1C228.3 -1 285.7 -1 342.8 -1C400 -1 457 -1 514.2 -1C571.3 -1 628.7 -1 685.8 -1C743 -1 800 -1 857.2 -1C914.3 -1 971.7 -1 1028.8 -1C1086 -1 1143 -1 1171.5 -1H1200V191Z" fill="#C2B4D4"/>
<path d="M1200 110L1171.5 109.8C1143 109.7 1086 109.3 1028.8 104C971.7 98.6997 914.3 88.2997 857.2 91.6997C800 94.9997 743 112 685.8 116.8C628.7 121.7 571.3 114.3 514.2 107.3C457 100.3 400 93.6997 342.8 97.1997C285.7 100.7 228.3 114.3 171.2 114C114 113.7 57 99.2997 28.5 92.1997L0 84.9997V-1.00031H28.5C57 -1.00031 114 -1.00031 171.2 -1.00031C228.3 -1.00031 285.7 -1.00031 342.8 -1.00031C400 -1.00031 457 -1.00031 514.2 -1.00031C571.3 -1.00031 628.7 -1.00031 685.8 -1.00031C743 -1.00031 800 -1.00031 857.2 -1.00031C914.3 -1.00031 971.7 -1.00031 1028.8 -1.00031C1086 -1.00031 1143 -1.00031 1171.5 -1.00031H1200V110Z" fill="#D9CBE6"/>
<path d="M1200 85L1171.5 78.8C1143 72.7 1086 60.3 1028.8 58.5C971.7 56.7 914.3 65.3 857.2 63.2C800 61 743 48 685.8 44C628.7 40 571.3 45 514.2 48C457 51 400 52 342.8 58.5C285.7 65 228.3 77 171.2 76C114 75 57 61 28.5 54L0 47V-1H28.5C57 -1 114 -1 171.2 -1C228.3 -1 285.7 -1 342.8 -1C400 -1 457 -1 514.2 -1C571.3 -1 628.7 -1 685.8 -1C743 -1 800 -1 857.2 -1C914.3 -1 971.7 -1 1028.8 -1C1086 -1 1143 -1 1171.5 -1H1200V85Z" fill="#FFFFFF"/>
</g>
<defs>
<clipPath id="clip0_668_2542">
<rect width="1200" height="750" fill="white" transform="matrix(-1 0 0 -1 1200 750)"/>
</clipPath>
</defs>
</svg>
