<svg viewBox="0 0 5000 1000" fill="none" xmlns="http://www.w3.org/2000/svg">
<g clip-path="url(#clip0_737_2564)">
<path d="M5010 1011H-10V907.879L-3.27148 905.55L115.729 864.35L115.735 864.347C234.573 823.303 474.28 740.213 714.641 750.809C834.766 756.106 954.871 784.835 1073.67 811.301C1192.87 837.854 1310.9 862.173 1428.59 859.701C1546.35 857.229 1664.32 827.952 1783.45 796.91C1902.19 765.973 2022.19 733.25 2142.32 725.022C2382.33 708.585 2622.66 789.896 2859.35 847.079C3096.81 904.449 3333.63 938.604 3570.31 917.539C3688.68 907 3807.26 882.676 3926.42 857.38C4045.4 832.124 4165.03 805.883 4284.64 791.867H4284.64C4523.97 763.935 4762.91 785.041 4881.88 795.538L5000.88 806.038L5010 806.843V1011Z" stroke="#9488B0" stroke-width="20"/>
</g>
<defs>
<clipPath id="clip0_737_2564">
<rect width="5000" height="1000" fill="white"/>
</clipPath>
</defs>
</svg>
