<svg viewBox="0 0 5000 287" fill="none" xmlns="http://www.w3.org/2000/svg">
<path d="M5010 297H-10V194.233L-3.25977 191.91L115.74 150.884L115.748 150.882C234.587 110.011 474.287 27.2752 714.639 37.8252L717.454 37.9531C836.636 43.5469 955.789 71.912 1073.67 98.0605C1192.86 124.502 1310.89 148.719 1428.59 146.258C1546.36 143.796 1664.33 114.641 1783.46 83.7305C1902.2 52.9238 2022.19 20.3408 2142.32 12.1484C2382.32 -4.21938 2622.65 76.7449 2859.34 133.688C3096.8 190.815 3333.62 224.826 3570.32 203.85C3688.69 193.354 3807.27 169.134 3926.43 143.944C4045.41 118.795 4165.03 92.6659 4284.64 78.71L4284.65 78.709C4523.97 50.8953 4762.9 71.9122 4881.88 82.3652L5000.88 92.8213L5010 93.6221V297Z" fill="#F0E2F9" stroke="#9488B0" stroke-width="20"/>
</svg>
