<svg viewBox="0 0 3000 123" fill="none" xmlns="http://www.w3.org/2000/svg">
<path d="M0 105L38.5 100C77 95.0003 154 85.0003 231 84.5003C308 84.0003 385 93.0002 461.8 81.8002C538.7 70.7002 615.3 39.3002 692.2 29.0002C769 18.7002 846 29.3002 923 45.5002C1000 61.7002 1077 83.3002 1154 89.8002C1231 96.3002 1308 87.7003 1384.8 92.5003C1461.7 97.3003 1538.3 115.7 1615.2 100C1692 84.3003 1769 34.7002 1846 18.0002C1923 1.30025 2000 17.7003 2077 29.2003C2154 40.7003 2231 47.3003 2307.8 61.7003C2384.7 76.0003 2461.3 98.0003 2538.2 91.2003C2615 84.3003 2692 48.7002 2769 47.5002C2846 46.3002 2923 79.7002 2961.5 96.3002L3000 113" stroke="#9488B0" stroke-width="20" stroke-linecap="round"/>
</svg>
