<svg viewBox="0 0 5000 1000" fill="none" xmlns="http://www.w3.org/2000/svg">
<g clip-path="url(#clip0_767_4273)">
<path d="M5010 1035.8V834.643L5000.88 833.838L4881.88 823.338C4762.91 812.84 4523.97 791.734 4284.64 819.666L4284.64 819.667C4165.03 833.682 4045.4 859.924 3926.42 885.18C3807.26 910.476 3688.68 934.798 3570.31 945.338C3333.63 966.403 3096.81 932.249 2859.35 874.879C2622.66 817.696 2382.33 736.384 2142.32 752.822C2022.19 761.05 1902.19 793.772 1783.45 824.709C1664.32 855.751 1546.35 885.029 1428.59 887.501C1310.9 889.972 1192.87 865.654 1073.67 839.101C954.871 812.635 834.766 783.906 714.641 778.608C474.28 768.013 234.573 851.103 115.735 892.146L115.729 892.149L-3.27148 933.35L-10 935.679V1035.8H5010Z" fill="#F0E2F9" stroke="#9488B0" stroke-width="20"/>
</g>
<defs>
<clipPath id="clip0_767_4273">
<rect width="5000" height="1000" fill="white" transform="matrix(1 0 0 -1 0 1000)"/>
</clipPath>
</defs>
</svg>
