<svg width="5000" height="459" viewBox="0 0 5000 459" fill="none" xmlns="http://www.w3.org/2000/svg">
<path d="M5000 383L4963.8 389.5C4927.7 396 4855.3 409 4782.8 414.8C4710.3 420.7 4637.7 419.3 4565.2 423.2C4492.7 427 4420.3 436 4347.8 443.5C4275.3 451 4202.7 457 4130.2 458.5C4057.7 460 3985.3 457 3913 451.5C3840.7 446 3768.3 438 3695.8 426.2C3623.3 414.3 3550.7 398.7 3478.2 391.5C3405.7 384.3 3333.3 385.7 3260.8 385.8C3188.3 386 3115.7 385 3043.2 388C2970.7 391 2898.3 398 2826 406.8C2753.7 415.7 2681.3 426.3 2608.8 432.3C2536.3 438.3 2463.7 439.7 2391.2 430C2318.7 420.3 2246.3 399.7 2174 388.8C2101.7 378 2029.3 377 1956.8 379.3C1884.3 381.7 1811.7 387.3 1739.2 395.7C1666.7 404 1594.3 415 1521.8 420.8C1449.3 426.7 1376.7 427.3 1304.2 423.8C1231.7 420.3 1159.3 412.7 1087 415.3C1014.7 418 942.3 431 869.8 436.7C797.3 442.3 724.7 440.7 652.2 429.3C579.7 418 507.3 397 434.8 393.2C362.3 389.3 289.7 402.7 217.2 414C144.7 425.3 72.3002 434.7 36.2002 439.3L0 444V-1.00006H36.2002C72.3002 -1.00006 144.7 -1.00006 217.2 -1.00006C289.7 -1.00006 362.3 -1.00006 434.8 -1.00006C507.3 -1.00006 579.7 -1.00006 652.2 -1.00006C724.7 -1.00006 797.3 -1.00006 869.8 -1.00006C942.3 -1.00006 1014.7 -1.00006 1087 -1.00006C1159.3 -1.00006 1231.7 -1.00006 1304.2 -1.00006C1376.7 -1.00006 1449.3 -1.00006 1521.8 -1.00006C1594.3 -1.00006 1666.7 -1.00006 1739.2 -1.00006C1811.7 -1.00006 1884.3 -1.00006 1956.8 -1.00006C2029.3 -1.00006 2101.7 -1.00006 2174 -1.00006C2246.3 -1.00006 2318.7 -1.00006 2391.2 -1.00006C2463.7 -1.00006 2536.3 -1.00006 2608.8 -1.00006C2681.3 -1.00006 2753.7 -1.00006 2826 -1.00006C2898.3 -1.00006 2970.7 -1.00006 3043.2 -1.00006C3115.7 -1.00006 3188.3 -1.00006 3260.8 -1.00006C3333.3 -1.00006 3405.7 -1.00006 3478.2 -1.00006C3550.7 -1.00006 3623.3 -1.00006 3695.8 -1.00006C3768.3 -1.00006 3840.7 -1.00006 3913 -1.00006C3985.3 -1.00006 4057.7 -1.00006 4130.2 -1.00006C4202.7 -1.00006 4275.3 -1.00006 4347.8 -1.00006C4420.3 -1.00006 4492.7 -1.00006 4565.2 -1.00006C4637.7 -1.00006 4710.3 -1.00006 4782.8 -1.00006C4855.3 -1.00006 4927.7 -1.00006 4963.8 -1.00006H5000V383Z" fill="#9488B0"/>
</svg>
