<svg width="5000" height="84" viewBox="0 0 5000 84" fill="none" xmlns="http://www.w3.org/2000/svg">
<path d="M5000 40.0001L4963.8 40.7001C4927.7 41.3001 4855.3 42.7001 4782.8 52.7001C4710.3 62.7001 4637.7 81.3001 4565.2 83.2001C4492.7 85.0001 4420.3 70.0001 4347.8 60.5001C4275.3 51.0001 4202.7 47.0001 4130.2 44.3001C4057.7 41.7001 3985.3 40.3001 3913 38.5001C3840.7 36.7001 3768.3 34.3001 3695.8 40.0001C3623.3 45.7001 3550.7 59.3001 3478.2 65.3001C3405.7 71.3001 3333.3 69.7001 3260.8 66.0001C3188.3 62.3001 3115.7 56.7001 3043.2 51.8001C2970.7 47.0001 2898.3 43.0001 2826 43.7001C2753.7 44.3001 2681.3 49.7001 2608.8 48.7001C2536.3 47.7001 2463.7 40.3001 2391.2 47.5001C2318.7 54.7001 2246.3 76.3001 2174 80.8001C2101.7 85.3001 2029.3 72.7001 1956.8 72.5001C1884.3 72.3001 1811.7 84.7001 1739.2 83.0001C1666.7 81.3001 1594.3 65.7001 1521.8 56.2001C1449.3 46.7001 1376.7 43.3001 1304.2 40.5001C1231.7 37.7001 1159.3 35.3001 1087 39.7001C1014.7 44.0001 942.3 55.0001 869.8 65.3001C797.3 75.7001 724.7 85.3001 652.2 83.2001C579.7 81.0001 507.3 67.0001 434.8 65.7001C362.3 64.3001 289.7 75.7001 217.2 75.0001C144.7 74.3001 72.3002 61.7001 36.2002 55.3001L0 49.0001V-0.999908H36.2002C72.3002 -0.999908 144.7 -0.999908 217.2 -0.999908C289.7 -0.999908 362.3 -0.999908 434.8 -0.999908C507.3 -0.999908 579.7 -0.999908 652.2 -0.999908C724.7 -0.999908 797.3 -0.999908 869.8 -0.999908C942.3 -0.999908 1014.7 -0.999908 1087 -0.999908C1159.3 -0.999908 1231.7 -0.999908 1304.2 -0.999908C1376.7 -0.999908 1449.3 -0.999908 1521.8 -0.999908C1594.3 -0.999908 1666.7 -0.999908 1739.2 -0.999908C1811.7 -0.999908 1884.3 -0.999908 1956.8 -0.999908C2029.3 -0.999908 2101.7 -0.999908 2174 -0.999908C2246.3 -0.999908 2318.7 -0.999908 2391.2 -0.999908C2463.7 -0.999908 2536.3 -0.999908 2608.8 -0.999908C2681.3 -0.999908 2753.7 -0.999908 2826 -0.999908C2898.3 -0.999908 2970.7 -0.999908 3043.2 -0.999908C3115.7 -0.999908 3188.3 -0.999908 3260.8 -0.999908C3333.3 -0.999908 3405.7 -0.999908 3478.2 -0.999908C3550.7 -0.999908 3623.3 -0.999908 3695.8 -0.999908C3768.3 -0.999908 3840.7 -0.999908 3913 -0.999908C3985.3 -0.999908 4057.7 -0.999908 4130.2 -0.999908C4202.7 -0.999908 4275.3 -0.999908 4347.8 -0.999908C4420.3 -0.999908 4492.7 -0.999908 4565.2 -0.999908C4637.7 -0.999908 4710.3 -0.999908 4782.8 -0.999908C4855.3 -0.999908 4927.7 -0.999908 4963.8 -0.999908H5000V40.0001Z" fill="white"/>
</svg>
