<svg width="5000" height="277" viewBox="0 0 5000 277" fill="none" xmlns="http://www.w3.org/2000/svg">
<path d="M5000 205L4963.8 212.8C4927.7 220.7 4855.3 236.3 4782.8 249C4710.3 261.7 4637.7 271.3 4565.2 271.5C4492.7 271.7 4420.3 262.3 4347.8 258.8C4275.3 255.3 4202.7 257.7 4130.2 263C4057.7 268.3 3985.3 276.7 3913 276.8C3840.7 277 3768.3 269 3695.8 268.2C3623.3 267.3 3550.7 273.7 3478.2 267.5C3405.7 261.3 3333.3 242.7 3260.8 229.5C3188.3 216.3 3115.7 208.7 3043.2 214.5C2970.7 220.3 2898.3 239.7 2826 245.2C2753.7 250.7 2681.3 242.3 2608.8 245.7C2536.3 249 2463.7 264 2391.2 263C2318.7 262 2246.3 245 2174 237.5C2101.7 230 2029.3 232 1956.8 230.7C1884.3 229.3 1811.7 224.7 1739.2 227C1666.7 229.3 1594.3 238.7 1521.8 237C1449.3 235.3 1376.7 222.7 1304.2 220.7C1231.7 218.7 1159.3 227.3 1087 234C1014.7 240.7 942.3 245.3 869.8 247.7C797.3 250 724.7 250 652.2 248C579.7 246 507.3 242 434.8 236.7C362.3 231.3 289.7 224.7 217.2 227.8C144.7 231 72.3002 244 36.2002 250.5L0 257V-0.999969H36.2002C72.3002 -0.999969 144.7 -0.999969 217.2 -0.999969C289.7 -0.999969 362.3 -0.999969 434.8 -0.999969C507.3 -0.999969 579.7 -0.999969 652.2 -0.999969C724.7 -0.999969 797.3 -0.999969 869.8 -0.999969C942.3 -0.999969 1014.7 -0.999969 1087 -0.999969C1159.3 -0.999969 1231.7 -0.999969 1304.2 -0.999969C1376.7 -0.999969 1449.3 -0.999969 1521.8 -0.999969C1594.3 -0.999969 1666.7 -0.999969 1739.2 -0.999969C1811.7 -0.999969 1884.3 -0.999969 1956.8 -0.999969C2029.3 -0.999969 2101.7 -0.999969 2174 -0.999969C2246.3 -0.999969 2318.7 -0.999969 2391.2 -0.999969C2463.7 -0.999969 2536.3 -0.999969 2608.8 -0.999969C2681.3 -0.999969 2753.7 -0.999969 2826 -0.999969C2898.3 -0.999969 2970.7 -0.999969 3043.2 -0.999969C3115.7 -0.999969 3188.3 -0.999969 3260.8 -0.999969C3333.3 -0.999969 3405.7 -0.999969 3478.2 -0.999969C3550.7 -0.999969 3623.3 -0.999969 3695.8 -0.999969C3768.3 -0.999969 3840.7 -0.999969 3913 -0.999969C3985.3 -0.999969 4057.7 -0.999969 4130.2 -0.999969C4202.7 -0.999969 4275.3 -0.999969 4347.8 -0.999969C4420.3 -0.999969 4492.7 -0.999969 4565.2 -0.999969C4637.7 -0.999969 4710.3 -0.999969 4782.8 -0.999969C4855.3 -0.999969 4927.7 -0.999969 4963.8 -0.999969H5000V205Z" fill="#C9C2D7"/>
</svg>
