<svg width="5000" height="345" viewBox="0 0 5000 345" fill="none" xmlns="http://www.w3.org/2000/svg">
<path d="M5000 345L4963.8 340.2C4927.7 335.3 4855.3 325.7 4782.8 313.3C4710.3 301 4637.7 286 4565.2 284.7C4492.7 283.3 4420.3 295.7 4347.8 303C4275.3 310.3 4202.7 312.7 4130.2 314.5C4057.7 316.3 3985.3 317.7 3913 320.7C3840.7 323.7 3768.3 328.3 3695.8 318.3C3623.3 308.3 3550.7 283.7 3478.2 285.8C3405.7 288 3333.3 317 3260.8 326.8C3188.3 336.7 3115.7 327.3 3043.2 321.7C2970.7 316 2898.3 314 2826 315.5C2753.7 317 2681.3 322 2608.8 323.8C2536.3 325.7 2463.7 324.3 2391.2 313.7C2318.7 303 2246.3 283 2174 273.3C2101.7 263.7 2029.3 264.3 1956.8 272.2C1884.3 280 1811.7 295 1739.2 307.7C1666.7 320.3 1594.3 330.7 1521.8 324.7C1449.3 318.7 1376.7 296.3 1304.2 283.5C1231.7 270.7 1159.3 267.3 1087 272.5C1014.7 277.7 942.3 291.3 869.8 299C797.3 306.7 724.7 308.3 652.2 311.7C579.7 315 507.3 320 434.8 325.3C362.3 330.7 289.7 336.3 217.2 337.2C144.7 338 72.3002 334 36.2002 332L0 330V-1H36.2002C72.3002 -1 144.7 -1 217.2 -1C289.7 -1 362.3 -1 434.8 -1C507.3 -1 579.7 -1 652.2 -1C724.7 -1 797.3 -1 869.8 -1C942.3 -1 1014.7 -1 1087 -1C1159.3 -1 1231.7 -1 1304.2 -1C1376.7 -1 1449.3 -1 1521.8 -1C1594.3 -1 1666.7 -1 1739.2 -1C1811.7 -1 1884.3 -1 1956.8 -1C2029.3 -1 2101.7 -1 2174 -1C2246.3 -1 2318.7 -1 2391.2 -1C2463.7 -1 2536.3 -1 2608.8 -1C2681.3 -1 2753.7 -1 2826 -1C2898.3 -1 2970.7 -1 3043.2 -1C3115.7 -1 3188.3 -1 3260.8 -1C3333.3 -1 3405.7 -1 3478.2 -1C3550.7 -1 3623.3 -1 3695.8 -1C3768.3 -1 3840.7 -1 3913 -1C3985.3 -1 4057.7 -1 4130.2 -1C4202.7 -1 4275.3 -1 4347.8 -1C4420.3 -1 4492.7 -1 4565.2 -1C4637.7 -1 4710.3 -1 4782.8 -1C4855.3 -1 4927.7 -1 4963.8 -1H5000V345Z" fill="#B7AECA"/>
</svg>
