<svg width="5000" height="397" viewBox="0 0 5000 397" fill="none" xmlns="http://www.w3.org/2000/svg">
<path d="M5000 342L4963.8 346C4927.7 350 4855.3 358 4782.8 366.2C4710.3 374.3 4637.7 382.7 4565.2 379.8C4492.7 377 4420.3 363 4347.8 364.2C4275.3 365.3 4202.7 381.7 4130.2 389.3C4057.7 397 3985.3 396 3913 396.2C3840.7 396.3 3768.3 397.7 3695.8 386.3C3623.3 375 3550.7 351 3478.2 349.3C3405.7 347.7 3333.3 368.3 3260.8 373C3188.3 377.7 3115.7 366.3 3043.2 357.3C2970.7 348.3 2898.3 341.7 2826 347C2753.7 352.3 2681.3 369.7 2608.8 381.3C2536.3 393 2463.7 399 2391.2 392.7C2318.7 386.3 2246.3 367.7 2174 362.8C2101.7 358 2029.3 367 1956.8 370.7C1884.3 374.3 1811.7 372.7 1739.2 377.2C1666.7 381.7 1594.3 392.3 1521.8 389.5C1449.3 386.7 1376.7 370.3 1304.2 369.2C1231.7 368 1159.3 382 1087 388.3C1014.7 394.7 942.3 393.3 869.8 385C797.3 376.7 724.7 361.3 652.2 359C579.7 356.7 507.3 367.3 434.8 365C362.3 362.7 289.7 347.3 217.2 340.8C144.7 334.3 72.3002 336.7 36.2002 337.8L0 339V-0.999969H36.2002C72.3002 -0.999969 144.7 -0.999969 217.2 -0.999969C289.7 -0.999969 362.3 -0.999969 434.8 -0.999969C507.3 -0.999969 579.7 -0.999969 652.2 -0.999969C724.7 -0.999969 797.3 -0.999969 869.8 -0.999969C942.3 -0.999969 1014.7 -0.999969 1087 -0.999969C1159.3 -0.999969 1231.7 -0.999969 1304.2 -0.999969C1376.7 -0.999969 1449.3 -0.999969 1521.8 -0.999969C1594.3 -0.999969 1666.7 -0.999969 1739.2 -0.999969C1811.7 -0.999969 1884.3 -0.999969 1956.8 -0.999969C2029.3 -0.999969 2101.7 -0.999969 2174 -0.999969C2246.3 -0.999969 2318.7 -0.999969 2391.2 -0.999969C2463.7 -0.999969 2536.3 -0.999969 2608.8 -0.999969C2681.3 -0.999969 2753.7 -0.999969 2826 -0.999969C2898.3 -0.999969 2970.7 -0.999969 3043.2 -0.999969C3115.7 -0.999969 3188.3 -0.999969 3260.8 -0.999969C3333.3 -0.999969 3405.7 -0.999969 3478.2 -0.999969C3550.7 -0.999969 3623.3 -0.999969 3695.8 -0.999969C3768.3 -0.999969 3840.7 -0.999969 3913 -0.999969C3985.3 -0.999969 4057.7 -0.999969 4130.2 -0.999969C4202.7 -0.999969 4275.3 -0.999969 4347.8 -0.999969C4420.3 -0.999969 4492.7 -0.999969 4565.2 -0.999969C4637.7 -0.999969 4710.3 -0.999969 4782.8 -0.999969C4855.3 -0.999969 4927.7 -0.999969 4963.8 -0.999969H5000V342Z" fill="#A69BBD"/>
</svg>
