<svg width="5000" height="153" viewBox="0 0 5000 153" fill="none" xmlns="http://www.w3.org/2000/svg">
<path d="M5000 126L4963.8 124.5C4927.7 123 4855.3 120 4782.8 113.5C4710.3 107 4637.7 96.9997 4565.2 96.2997C4492.7 95.6997 4420.3 104.3 4347.8 106.3C4275.3 108.3 4202.7 103.7 4130.2 99.1998C4057.7 94.6998 3985.3 90.2998 3913 95.6998C3840.7 101 3768.3 116 3695.8 125.7C3623.3 135.3 3550.7 139.7 3478.2 143.8C3405.7 148 3333.3 152 3260.8 152.7C3188.3 153.3 3115.7 150.7 3043.2 147.2C2970.7 143.7 2898.3 139.3 2826 138C2753.7 136.7 2681.3 138.3 2608.8 130.7C2536.3 123 2463.7 106 2391.2 97.2997C2318.7 88.6997 2246.3 88.2998 2174 95.6998C2101.7 103 2029.3 118 1956.8 120.7C1884.3 123.3 1811.7 113.7 1739.2 116.8C1666.7 120 1594.3 136 1521.8 136.2C1449.3 136.3 1376.7 120.7 1304.2 114.2C1231.7 107.7 1159.3 110.3 1087 119C1014.7 127.7 942.3 142.3 869.8 146.5C797.3 150.7 724.7 144.3 652.2 144.2C579.7 144 507.3 150 434.8 145.7C362.3 141.3 289.7 126.7 217.2 118.5C144.7 110.3 72.3002 108.7 36.2002 107.8L0 107V-1.00026L36.2002 -1.00026C72.3002 -1.00026 144.7 -1.00026 217.2 -1.00026C289.7 -1.00026 362.3 -1.00026 434.8 -1.00026C507.3 -1.00026 579.7 -1.00026 652.2 -1.00026C724.7 -1.00026 797.3 -1.00026 869.8 -1.00026C942.3 -1.00026 1014.7 -1.00026 1087 -1.00026C1159.3 -1.00026 1231.7 -1.00026 1304.2 -1.00026C1376.7 -1.00026 1449.3 -1.00026 1521.8 -1.00026C1594.3 -1.00026 1666.7 -1.00026 1739.2 -1.00026C1811.7 -1.00026 1884.3 -1.00026 1956.8 -1.00026C2029.3 -1.00026 2101.7 -1.00026 2174 -1.00026C2246.3 -1.00026 2318.7 -1.00026 2391.2 -1.00026C2463.7 -1.00026 2536.3 -1.00026 2608.8 -1.00026C2681.3 -1.00026 2753.7 -1.00026 2826 -1.00026C2898.3 -1.00026 2970.7 -1.00026 3043.2 -1.00026C3115.7 -1.00026 3188.3 -1.00026 3260.8 -1.00026C3333.3 -1.00026 3405.7 -1.00026 3478.2 -1.00026C3550.7 -1.00026 3623.3 -1.00026 3695.8 -1.00026C3768.3 -1.00026 3840.7 -1.00026 3913 -1.00026C3985.3 -1.00026 4057.7 -1.00026 4130.2 -1.00026C4202.7 -1.00026 4275.3 -1.00026 4347.8 -1.00026C4420.3 -1.00026 4492.7 -1.00026 4565.2 -1.00026C4637.7 -1.00026 4710.3 -1.00026 4782.8 -1.00026C4855.3 -1.00026 4927.7 -1.00026 4963.8 -1.00026H5000V126Z" fill="#EDEAF2"/>
</svg>
