<svg width="5000" height="207" viewBox="0 0 5000 207" fill="none" xmlns="http://www.w3.org/2000/svg">
<path d="M5000 159L4963.8 158.5C4927.7 158 4855.3 157 4782.8 159C4710.3 161 4637.7 166 4565.2 169.5C4492.7 173 4420.3 175 4347.8 180.7C4275.3 186.3 4202.7 195.7 4130.2 190.3C4057.7 185 3985.3 165 3913 164.8C3840.7 164.7 3768.3 184.3 3695.8 193.2C3623.3 202 3550.7 200 3478.2 196.8C3405.7 193.7 3333.3 189.3 3260.8 187.7C3188.3 186 3115.7 187 3043.2 184C2970.7 181 2898.3 174 2826 166.8C2753.7 159.7 2681.3 152.3 2608.8 157.5C2536.3 162.7 2463.7 180.3 2391.2 180.7C2318.7 181 2246.3 164 2174 162.7C2101.7 161.3 2029.3 175.7 1956.8 180C1884.3 184.3 1811.7 178.7 1739.2 180.5C1666.7 182.3 1594.3 191.7 1521.8 190.5C1449.3 189.3 1376.7 177.7 1304.2 181C1231.7 184.3 1159.3 202.7 1087 205.8C1014.7 209 942.3 197 869.8 183.8C797.3 170.7 724.7 156.3 652.2 155.3C579.7 154.3 507.3 166.7 434.8 171C362.3 175.3 289.7 171.7 217.2 166.8C144.7 162 72.3002 156 36.2002 153L0 150V-0.999649L36.2002 -0.999649C72.3002 -0.999649 144.7 -0.999649 217.2 -0.999649C289.7 -0.999649 362.3 -0.999649 434.8 -0.999649C507.3 -0.999649 579.7 -0.999649 652.2 -0.999649C724.7 -0.999649 797.3 -0.999649 869.8 -0.999649C942.3 -0.999649 1014.7 -0.999649 1087 -0.999649C1159.3 -0.999649 1231.7 -0.999649 1304.2 -0.999649C1376.7 -0.999649 1449.3 -0.999649 1521.8 -0.999649C1594.3 -0.999649 1666.7 -0.999649 1739.2 -0.999649C1811.7 -0.999649 1884.3 -0.999649 1956.8 -0.999649C2029.3 -0.999649 2101.7 -0.999649 2174 -0.999649C2246.3 -0.999649 2318.7 -0.999649 2391.2 -0.999649C2463.7 -0.999649 2536.3 -0.999649 2608.8 -0.999649C2681.3 -0.999649 2753.7 -0.999649 2826 -0.999649C2898.3 -0.999649 2970.7 -0.999649 3043.2 -0.999649C3115.7 -0.999649 3188.3 -0.999649 3260.8 -0.999649C3333.3 -0.999649 3405.7 -0.999649 3478.2 -0.999649C3550.7 -0.999649 3623.3 -0.999649 3695.8 -0.999649C3768.3 -0.999649 3840.7 -0.999649 3913 -0.999649C3985.3 -0.999649 4057.7 -0.999649 4130.2 -0.999649C4202.7 -0.999649 4275.3 -0.999649 4347.8 -0.999649C4420.3 -0.999649 4492.7 -0.999649 4565.2 -0.999649C4637.7 -0.999649 4710.3 -0.999649 4782.8 -0.999649C4855.3 -0.999649 4927.7 -0.999649 4963.8 -0.999649H5000V159Z" fill="#DBD6E4"/>
</svg>
