<svg width="36" height="36" viewBox="0 0 36 36" fill="none" xmlns="http://www.w3.org/2000/svg">
<path d="M18 0.5C27.665 0.5 35.5 8.33502 35.5 18C35.5 27.665 27.665 35.5 18 35.5C8.33502 35.5 0.5 27.665 0.5 18C0.5 8.33502 8.33502 0.5 18 0.5Z" fill="#F5F5F5"/>
<path d="M18 0.5C27.665 0.5 35.5 8.33502 35.5 18C35.5 27.665 27.665 35.5 18 35.5C8.33502 35.5 0.5 27.665 0.5 18C0.5 8.33502 8.33502 0.5 18 0.5Z" stroke="#D9D9D9" stroke-linecap="round"/>
<path d="M22.9997 9.66663H20.4997C19.3946 9.66663 18.3348 10.1056 17.5534 10.887C16.772 11.6684 16.333 12.7282 16.333 13.8333V16.3333H13.833V19.6666H16.333V26.3333H19.6663V19.6666H22.1663L22.9997 16.3333H19.6663V13.8333C19.6663 13.6123 19.7541 13.4003 19.9104 13.244C20.0667 13.0878 20.2787 13 20.4997 13H22.9997V9.66663Z" stroke="#1E1E1E" stroke-width="2" stroke-linecap="round" stroke-linejoin="round"/>
</svg>
