<svg width="36" height="36" viewBox="0 0 36 36" fill="none" xmlns="http://www.w3.org/2000/svg">
<path d="M18 0.5C27.665 0.5 35.5 8.33502 35.5 18C35.5 27.665 27.665 35.5 18 35.5C8.33502 35.5 0.5 27.665 0.5 18C0.5 8.33502 8.33502 0.5 18 0.5Z" fill="#F5F5F5"/>
<path d="M18 0.5C27.665 0.5 35.5 8.33502 35.5 18C35.5 27.665 27.665 35.5 18 35.5C8.33502 35.5 0.5 27.665 0.5 18C0.5 8.33502 8.33502 0.5 18 0.5Z" stroke="#D9D9D9" stroke-linecap="round"/>
<g clip-path="url(#clip0_190_1487)">
<path d="M27.1663 10.5C26.3683 11.0629 25.4848 11.4934 24.5497 11.775C24.0478 11.1979 23.3808 10.7889 22.6389 10.6032C21.897 10.4176 21.1159 10.4643 20.4014 10.737C19.6869 11.0097 19.0734 11.4953 18.6438 12.1281C18.2143 12.7608 17.9894 13.5102 17.9997 14.275V15.1083C16.5352 15.1463 15.0841 14.8215 13.7755 14.1628C12.467 13.5042 11.3416 12.5322 10.4997 11.3333C10.4997 11.3333 7.16634 18.8333 14.6663 22.1666C12.9501 23.3316 10.9056 23.9157 8.83301 23.8333C16.333 28 25.4997 23.8333 25.4997 14.25C25.4989 14.0178 25.4766 13.7863 25.433 13.5583C26.2835 12.7195 26.8837 11.6606 27.1663 10.5Z" stroke="#1E1E1E" stroke-width="2" stroke-linecap="round" stroke-linejoin="round"/>
</g>
<defs>
<clipPath id="clip0_190_1487">
<rect width="20" height="20" fill="white" transform="translate(8 8)"/>
</clipPath>
</defs>
</svg>
