<svg width="86" height="51" viewBox="0 0 86 51" fill="none" xmlns="http://www.w3.org/2000/svg">
<path d="M20.8895 50.8311C13.9351 50.1242 6.4936 45.0584 1.33747 37.5211C-0.157997 35.335 -0.204802 35.2199 0.259678 34.8707C1.50997 33.9305 6.88903 31.562 7.15935 31.8327C7.22005 31.8935 6.12906 32.548 4.73491 33.2871C0.661625 35.4467 0.824598 35.0681 2.87193 37.6152C7.05388 42.818 12.7186 46.9801 17.7204 48.5249C23.6659 50.3612 30.4129 49.541 39.1971 45.9143C40.8184 45.2449 39.6264 46.0671 37.0262 47.4116C31.8714 50.0772 25.9072 51.3411 20.8895 50.8311ZM61.0968 50.9537C56.8287 50.5991 53.4821 49.6625 49.383 47.6756C46.2971 46.1798 44.6752 45.1369 46.8366 46.0382C49.0381 46.9563 53.6604 48.4962 55.1158 48.7964C59.2143 49.6418 63.9614 49.6027 67.463 48.6946C73.0178 47.2541 79.163 42.5559 84.3474 35.7859C84.6286 35.4187 84.3426 35.1778 82.0015 33.8075C80.5351 32.9494 79.0705 32.131 78.7468 31.9889C78.2226 31.7587 78.2417 31.747 78.9222 31.8813C79.9187 32.0779 84.6033 34.1748 85.3896 34.7761L86 35.243L84.4391 37.5247C81.4557 41.8858 76.4183 46.5458 72.5808 48.4946C69.1742 50.2245 64.4627 51.2334 61.0968 50.9537ZM27.6106 45.6172C27.2605 45.555 26.2864 45.3846 25.4461 45.2387C17.5415 43.8662 11.3132 38.6258 7.11052 29.8114C5.82285 27.1108 4.31948 22.7299 4.5099 22.2331C4.69161 21.7589 7.75021 21.1275 11.623 20.7645C19.2179 20.0528 26.8493 22.0315 31.0697 25.8068C31.6182 26.2975 31.7805 26.5158 31.4303 26.292C28.2123 24.235 24.7433 22.8563 21.3717 22.2944C19.0009 21.8993 13.4652 21.8897 10.9312 22.2764C8.48482 22.6497 6.22018 23.1184 6.22018 23.2513C6.22018 23.5856 8.09953 28.1241 8.89443 29.7095C12.7952 37.4891 17.9694 42.0208 25.0653 43.872C27.2828 44.4505 28.4444 44.5894 31.8863 44.6874C35.588 44.7928 40.0719 44.4888 41.3384 44.0467C41.6188 43.9487 41.6652 43.9895 41.4889 44.1791C40.9659 44.7419 35.6863 45.5501 31.9396 45.6409C29.9088 45.6902 27.9608 45.6796 27.6106 45.6172ZM50.6563 45.5927C49.1017 45.3976 44.7869 44.4335 44.4174 44.1987C44.1186 44.0088 44.1464 43.9842 44.5447 44.0858C47.2949 44.7872 54.2121 44.9368 57.9137 44.3748C66.5426 43.0649 72.4956 38.4629 76.8846 29.7095C77.9036 27.6772 79.646 23.331 79.5003 23.1851C79.4522 23.1369 78.0419 22.8443 76.3664 22.535C72.8981 21.8947 67.4256 21.7832 64.4073 22.2914C61.0245 22.861 57.5777 24.2315 54.3487 26.2912C53.9985 26.5145 54.1704 26.274 54.7306 25.7567C57.4819 23.2163 62.4036 21.3572 67.8843 20.7882C72.1367 20.3467 80.9061 21.2858 81.2645 22.2211C81.4582 22.7265 79.8989 27.2411 78.6159 29.8892C75.0649 37.2189 69.8755 42.2727 63.7378 44.3787C60.4447 45.5086 54.4328 46.0665 50.6563 45.5927ZM41.3038 42.5142C38.8763 39.5061 36.8211 36.1443 38.849 38.4986C39.4529 39.1998 40.6119 40.4618 41.4244 41.3032L42.9018 42.8329L43.9779 41.5898C45.8681 39.4061 48.1781 36.0219 49.4898 33.5145C51.0243 30.5813 52.5062 26.272 52.7354 24.0763C52.8535 22.9453 52.959 22.6237 53.093 22.9864C53.3562 23.6987 52.9476 27.0533 52.3114 29.4029C51.6062 32.0079 49.655 35.9722 47.8004 38.568C46.1752 40.8428 43.2432 44.2352 42.9022 44.2352C42.787 44.2352 42.0677 43.4607 41.3038 42.5142ZM36.7077 35.8622C34.0463 31.8356 32.1836 26.1037 32.2032 22.0009C32.2344 15.473 35.6999 7.76605 41.3508 1.65722L42.8839 0L44.285 1.52974C49.4167 7.13247 53.1344 15.1453 53.0387 20.3966L53.0108 21.9264L52.8039 20.3328C52.0929 14.8578 48.8229 8.29568 44.2466 3.16069L42.9216 1.674L41.7237 3.00414C39.0133 6.0135 36.2684 10.3798 34.9621 13.7595C32.2836 20.6896 32.7369 27.2522 36.3983 34.5513C37.0301 35.8109 37.5038 36.8414 37.451 36.8414C37.3981 36.8414 37.0637 36.4008 36.7077 35.8622ZM19.914 20.1128C19.4161 19.3469 19.1544 14.835 19.4455 12.0364C19.8289 8.3499 20.4168 5.73655 20.8626 5.73655C21.4352 5.73655 25.6067 7.27758 27.2286 8.08826C29.1671 9.05718 32.6769 11.3735 33.3414 12.1223C33.9447 12.8022 34.063 12.8444 30.5391 11.121C28.0477 9.90247 22.6236 7.77622 22.0066 7.77622C21.4989 7.77622 20.5793 13.0068 20.281 17.5921C20.1806 19.1346 20.0155 20.2689 19.914 20.1128ZM65.5513 18.8541C65.5478 16.1097 64.5245 8.83992 64.0287 8.03663C63.7404 7.56965 59.1753 9.15737 55.2215 11.0997C53.5561 11.9179 52.1598 12.5536 52.1187 12.5124C51.959 12.3525 54.3856 10.5375 56.3832 9.32278C58.3936 8.10022 62.9424 6.14461 64.5022 5.83227C65.2411 5.68431 65.2482 5.69456 65.6596 7.50577C66.3876 10.7104 66.6437 14.4297 66.3332 17.2875C66.0091 20.2706 65.5542 21.182 65.5513 18.8541Z" fill="#9DE43A"/>
</svg>
