<svg width="36" height="36" viewBox="0 0 36 36" fill="none" xmlns="http://www.w3.org/2000/svg">
<path d="M18 0.5C27.665 0.5 35.5 8.33502 35.5 18C35.5 27.665 27.665 35.5 18 35.5C8.33502 35.5 0.5 27.665 0.5 18C0.5 8.33502 8.33502 0.5 18 0.5Z" fill="#F5F5F5"/>
<path d="M18 0.5C27.665 0.5 35.5 8.33502 35.5 18C35.5 27.665 27.665 35.5 18 35.5C8.33502 35.5 0.5 27.665 0.5 18C0.5 8.33502 8.33502 0.5 18 0.5Z" stroke="#D9D9D9" stroke-linecap="round"/>
<g clip-path="url(#clip0_190_1490)">
<path d="M22.5837 13.4166H22.592M13.8337 9.66663H22.167C24.4682 9.66663 26.3337 11.5321 26.3337 13.8333V22.1666C26.3337 24.4678 24.4682 26.3333 22.167 26.3333H13.8337C11.5325 26.3333 9.66699 24.4678 9.66699 22.1666V13.8333C9.66699 11.5321 11.5325 9.66663 13.8337 9.66663ZM21.3337 17.475C21.4365 18.1685 21.318 18.8768 20.9951 19.4991C20.6722 20.1215 20.1613 20.6261 19.535 20.9414C18.9087 21.2566 18.199 21.3663 17.5068 21.2549C16.8146 21.1435 16.1751 20.8167 15.6794 20.3209C15.1836 19.8252 14.8568 19.1857 14.7454 18.4935C14.634 17.8013 14.7437 17.0915 15.0589 16.4653C15.3741 15.839 15.8788 15.3281 16.5011 15.0052C17.1235 14.6822 17.8318 14.5638 18.5253 14.6666C19.2328 14.7715 19.8877 15.1012 20.3934 15.6069C20.8991 16.1126 21.2288 16.7675 21.3337 17.475Z" stroke="#1E1E1E" stroke-width="2" stroke-linecap="round" stroke-linejoin="round"/>
</g>
<defs>
<clipPath id="clip0_190_1490">
<rect width="20" height="20" fill="white" transform="translate(8 8)"/>
</clipPath>
</defs>
</svg>
