<svg width="36" height="36" viewBox="0 0 36 36" fill="none" xmlns="http://www.w3.org/2000/svg">
<path d="M18 0.5C27.665 0.5 35.5 8.33502 35.5 18C35.5 27.665 27.665 35.5 18 35.5C8.33502 35.5 0.5 27.665 0.5 18C0.5 8.33502 8.33502 0.5 18 0.5Z" fill="#F5F5F5"/>
<path d="M18 0.5C27.665 0.5 35.5 8.33502 35.5 18C35.5 27.665 27.665 35.5 18 35.5C8.33502 35.5 0.5 27.665 0.5 18C0.5 8.33502 8.33502 0.5 18 0.5Z" stroke="#D9D9D9" stroke-linecap="round"/>
<g clip-path="url(#clip0_190_1493)">
<path d="M26.7835 13.35C26.6845 12.9545 26.4829 12.5922 26.199 12.2995C25.9152 12.0069 25.5591 11.7944 25.1668 11.6834C23.7335 11.3334 18.0002 11.3334 18.0002 11.3334C18.0002 11.3334 12.2668 11.3334 10.8335 11.7167C10.4412 11.8277 10.0851 12.0402 9.80127 12.3329C9.51741 12.6255 9.31581 12.9879 9.21682 13.3834C8.9545 14.838 8.82618 16.3136 8.83348 17.7917C8.82413 19.2809 8.95246 20.7678 9.21682 22.2334C9.32595 22.6166 9.53207 22.9652 9.81527 23.2454C10.0985 23.5257 10.4492 23.7282 10.8335 23.8334C12.2668 24.2167 18.0002 24.2167 18.0002 24.2167C18.0002 24.2167 23.7335 24.2167 25.1668 23.8334C25.5591 23.7224 25.9152 23.5098 26.199 23.2172C26.4829 22.9246 26.6845 22.5622 26.7835 22.1667C27.0438 20.723 27.1721 19.2587 27.1668 17.7917C27.1762 16.3025 27.0478 14.8156 26.7835 13.35Z" stroke="#1E1E1E" stroke-width="2" stroke-linecap="round" stroke-linejoin="round"/>
<path d="M16.1252 20.5167L20.9168 17.7917L16.1252 15.0667V20.5167Z" stroke="#1E1E1E" stroke-width="2" stroke-linecap="round" stroke-linejoin="round"/>
</g>
<defs>
<clipPath id="clip0_190_1493">
<rect width="20" height="20" fill="white" transform="translate(8 8)"/>
</clipPath>
</defs>
</svg>
